<?xml version="1.0" encoding="utf-8"?>
<svg version="1.1"
	 id="svg2" xmlns:svg="http://www.w3.org/2000/svg" xmlns:dc="http://purl.org/dc/elements/1.1/" xmlns:rdf="http://www.w3.org/1999/02/22-rdf-syntax-ns#" xmlns:cc="http://creativecommons.org/ns#"
	 xmlns="http://www.w3.org/2000/svg" xmlns:xlink="http://www.w3.org/1999/xlink" x="0px" y="0px"
	 viewBox="1582.8676 -62.4635 987.1324 1679.4772" enable-background="new 1582.8676 -62.4635 987.1324 1679.4772"
	 xml:space="preserve">
<path id="path7" d="M2183.3582,906.0996c89.7476-19.7531,167.9011-64.4122,234.031-134.4069
	c85.8831-90.6066,129.2539-199.678,129.2539-323.7789c0-81.1594-20.6118-159.3129-61.4063-232.3135
	c-41.6533-75.1476-100.4832-134.4069-175.6309-176.0601c-73.4299-41.2238-151.5833-62.2651-232.7427-62.2651
	c-81.5889,0-160.1718,20.6119-233.1724,61.4063c-74.2888,41.6532-133.548,100.4831-175.6307,175.6307l-0.4294,0.4294
	c-40.7943,73.8594-61.4064,152.0129-61.4064,233.1723c0,83.3065,21.4708,163.1777,63.9828,237.8959l0.4294,0.8588
	c43.8004,74.7181,103.0596,132.6891,176.4895,172.1953l0.8589,0.4294c41.2238,21.9002,81.1594,37.3591,120.2362,46.8062v133.9774
	H1630.701v215.1368h337.5201v322.0614h215.1367v-322.0613h336.6614v-215.1368h-336.6614V906.0996H2183.3582z M2076.0044,190.2649
	c44.2297,0,85.8831,11.1648,128.395,34.3532l0.8589,0.4294c40.7944,21.4707,71.7122,51.9592,94.4712,92.7536
	c23.6179,42.5121,35.2122,85.4536,35.2122,130.5421c0,72.5711-24.9063,132.2598-76.0066,183.7896
	c-50.6709,50.671-110.3596,75.577-182.9307,75.577c-71.7123,0-131.8303-24.4766-182.9307-75.577
	c-50.671-51.1003-75.5771-111.2185-75.5771-183.7896c0-45.0886,11.5942-88.0301,35.212-130.5421
	c22.759-40.7944,53.6769-71.2829,94.0419-93.183C1990.1215,201.4297,2032.2041,190.2649,2076.0044,190.2649z"/>
</svg>
