<?xml version="1.0" encoding="utf-8"?>

<!DOCTYPE svg PUBLIC "-//W3C//DTD SVG 1.1//EN" "http://www.w3.org/Graphics/SVG/1.1/DTD/svg11.dtd">
<svg version="1.1" id="Layer_1" xmlns="http://www.w3.org/2000/svg" xmlns:xlink="http://www.w3.org/1999/xlink" x="0px" y="0px"
	 viewBox="0 0 1506 1506.0001" enable-background="new 0 0 1506 1506.0001" xml:space="preserve">
<path d="M1189.1392,101.8608h-233.366c-83.9626,83.9626-131.0374,131.0372-214.9998,214.9998v0.0002h296.3376l-217.52,217.5201
	c-71.9114-44.6514-156.7585-70.44-247.6311-70.44c-259.6284,0-470.0991,210.4705-470.0991,470.0991
	s210.4707,470.0992,470.0991,470.0992s470.0991-210.4706,470.0991-470.0992c0-90.8726-25.7888-175.72-70.4399-247.6312
	l217.52-217.52v296.3378l0,0c83.9629-83.9626,131.0371-131.037,215-214.9997V316.8608v-215H1189.1392z M571.96,1198.1173
	c-145.8457,0-264.0771-118.2313-264.0771-264.0772S426.1143,669.9628,571.96,669.9628s264.0771,118.2313,264.0771,264.0773
	S717.8057,1198.1173,571.96,1198.1173z"/>
</svg>
