<?xml version="1.0" encoding="iso-8859-1"?>
<!-- Generator: Adobe Illustrator 17.1.0, SVG Export Plug-In . SVG Version: 6.00 Build 0)  -->
<!DOCTYPE svg PUBLIC "-//W3C//DTD SVG 1.1//EN">
<svg version="1.1" id="Capa_1" xmlns="http://www.w3.org/2000/svg" x="0px" y="0px"
	 viewBox="0 0 381.669 381.669" style="enable-background:new 0 0 381.669 381.669;" xml:space="preserve">
<g>
	<polygon points="106.615,127.135 211.979,127.135 211.979,68.462 106.615,68.462 106.615,28.398 0,97.799 106.615,167.2 	"/>
	<path d="M302.485,163.374c36.158,0,65.575-29.417,65.575-65.575s-29.417-65.575-65.575-65.575S236.91,61.641,236.91,97.799
		S266.327,163.374,302.485,163.374z"/>
	<polygon points="381.669,283.87 275.054,214.469 275.054,254.534 169.69,254.534 169.69,313.207 275.054,313.207 275.054,353.271 	
		"/>
	<path d="M79.184,218.295c-36.158,0-65.575,29.417-65.575,65.575s29.417,65.575,65.575,65.575s65.575-29.417,65.575-65.575
		S115.342,218.295,79.184,218.295z"/>
</g>
<g>
</g>
<g>
</g>
<g>
</g>
<g>
</g>
<g>
</g>
<g>
</g>
<g>
</g>
<g>
</g>
<g>
</g>
<g>
</g>
<g>
</g>
<g>
</g>
<g>
</g>
<g>
</g>
<g>
</g>
</svg>
