<svg viewBox="0 -121 512 512" xmlns="http://www.w3.org/2000/svg"><path d="m180 0h30v270h-30zm0 0"/><path d="m120 90h30v180h-30zm0 0"/><path d="m60 60h30v210h-30zm0 0"/><path d="m0 150h30v120h-30zm0 0"/><path d="m512 180c0-49.625-40.375-90-90-90-2.542969 0-5.082031.105469-7.605469.320312-18.867187-53.082031-71.167969-90.320312-129.394531-90.320312-11.421875 0-22.773438 1.429688-33.738281 4.253906l-11.261719 2.898438v262.847656h182c49.625 0 90-40.375 90-90zm-242-148.9375c4.949219-.707031 9.964844-1.0625 15-1.0625 49.285156 0 93.097656 33.933594 104.175781 80.6875l3.5 14.773438c11.894531-2.664063 18.164063-5.460938 29.324219-5.460938 33.085938 0 60 26.914062 60 60s-26.914062 60-60 60h-152zm0 0"/></svg>