<svg id="_x31_" enable-background="new 0 0 24 24" height="512" viewBox="0 0 24 24" width="512" xmlns="http://www.w3.org/2000/svg"><path d="m18.5 24h-16c-1.378 0-2.5-1.121-2.5-2.5v-14c0-1.379 1.122-2.5 2.5-2.5h7c.276 0 .5.224.5.5s-.224.5-.5.5h-7c-.827 0-1.5.673-1.5 1.5v14c0 .827.673 1.5 1.5 1.5h15.793l4.707-4.707v-10.793c0-.827-.673-1.5-1.5-1.5h-7c-.276 0-.5-.224-.5-.5s.224-.5.5-.5h7c1.378 0 2.5 1.121 2.5 2.5v11c0 .133-.053.26-.146.354l-5 5c-.094.093-.221.146-.354.146zm5-5.5h.01z"/><path d="m18.5 24c-.276 0-.5-.224-.5-.5v-5c0-.276.224-.5.5-.5h5c.276 0 .5.224.5.5s-.224.5-.5.5h-4.5v4.5c0 .276-.224.5-.5.5z"/><path d="m12 9c-.276 0-.5-.224-.5-.5v-5c0-.276.224-.5.5-.5s.5.224.5.5v5c0 .276-.224.5-.5.5z"/><path d="m12 4c-1.103 0-2-.897-2-2s.897-2 2-2 2 .897 2 2-.897 2-2 2zm0-3c-.551 0-1 .448-1 1s.449 1 1 1 1-.448 1-1-.449-1-1-1z"/><path d="m19.5 12h-15c-.276 0-.5-.224-.5-.5s.224-.5.5-.5h15c.276 0 .5.224.5.5s-.224.5-.5.5z"/><path d="m19.5 16h-15c-.276 0-.5-.224-.5-.5s.224-.5.5-.5h15c.276 0 .5.224.5.5s-.224.5-.5.5z"/><path d="m15.5 20h-11c-.276 0-.5-.224-.5-.5s.224-.5.5-.5h11c.276 0 .5.224.5.5s-.224.5-.5.5z"/></svg>