<?xml version="1.0" encoding="iso-8859-1"?>
<!-- Generator: Adobe Illustrator 19.0.0, SVG Export Plug-In . SVG Version: 6.00 Build 0)  -->
<svg version="1.1" id="Layer_1" xmlns="http://www.w3.org/2000/svg" x="0px" y="0px"
     viewBox="0 0 502.003 502.003" style="enable-background:new 0 0 502.003 502.003;" xml:space="preserve">
<g>
	<g>
		<g>
			<path d="M380.182,58.504c-1.2-10.937-6.587-20.751-15.169-27.635c-8.581-6.885-19.333-10.016-30.267-8.815
				c-10.937,1.199-20.752,6.587-27.637,15.169l-116.892,145.71L73.325,37.224c-6.885-8.583-16.7-13.971-27.638-15.171
				C34.748,20.858,24,23.984,15.421,30.868c-8.583,6.885-13.97,16.699-15.17,27.636c-1.2,10.937,1.931,21.687,8.815,30.269
				l128.343,159.982L9.066,408.738c-6.884,8.582-10.015,19.332-8.815,30.269c1.2,10.937,6.587,20.751,15.169,27.635
				c7.283,5.844,16.431,9.063,25.756,9.063c12.57,0,24.288-5.619,32.147-15.416l116.893-145.71l116.891,145.709
				c7.859,9.798,19.577,15.417,32.148,15.417c9.324,0,18.471-3.217,25.755-9.061c8.583-6.885,13.969-16.699,15.17-27.636
				s-1.93-21.687-8.815-30.269L243.022,248.756L371.367,88.773C378.251,80.191,381.382,69.441,380.182,58.504z M355.765,76.257
				L222.401,242.498c-2.934,3.657-2.934,8.86,0,12.516l133.364,166.242c3.541,4.415,5.152,9.944,4.534,15.571
				c-0.617,5.626-3.389,10.675-7.803,14.216c-3.803,3.051-8.382,4.663-13.241,4.663c-6.473,0-12.504-2.891-16.548-7.932
				L198.016,292.341c-1.898-2.365-4.767-3.742-7.8-3.742s-5.902,1.377-7.8,3.741L57.724,447.773
				c-4.044,5.041-10.075,7.932-16.548,7.932c-4.86,0-9.438-1.612-13.241-4.663c-4.414-3.541-7.186-8.59-7.803-14.216
				c-0.618-5.627,0.993-11.156,4.534-15.571l133.363-166.242c2.934-3.657,2.934-8.86,0-12.516L24.666,76.256
				c-3.541-4.415-5.152-9.944-4.534-15.571c0.617-5.626,3.389-10.675,7.804-14.217c4.413-3.541,9.935-5.147,15.57-4.535
				c5.626,0.617,10.676,3.389,14.218,7.805l124.692,155.433c1.898,2.365,4.767,3.742,7.8,3.742s5.903-1.377,7.8-3.742
				L322.707,49.739c3.542-4.415,8.592-7.187,14.218-7.804c5.62-0.619,11.155,0.992,15.571,4.535
				c4.414,3.541,7.186,8.59,7.803,14.216C360.917,66.313,359.306,71.842,355.765,76.257z"/>
			<path d="M492.003,460.201h-66.574l56.706-56.705c15.334-15.334,19.956-37.498,12.06-57.843
				c-7.703-19.848-25.571-32.767-46.63-33.715c-0.946-0.043-1.897-0.065-2.854-0.065c-34.436,0-62.452,28.015-62.452,62.452
				c0,5.522,4.478,10,10,10c5.522,0,10-4.478,10-10c0-23.408,19.044-42.452,42.452-42.452c0.652,0,1.303,0.015,1.951,0.045
				c13.224,0.596,24.023,8.436,28.888,20.972c3.907,10.068,3.973,24.934-7.557,36.464l-73.777,73.776
				c-2.859,2.86-3.716,7.161-2.168,10.898c1.548,3.736,5.194,6.173,9.239,6.173h90.717c5.522,0,9.999-4.478,9.999-10
				C502.003,464.679,497.525,460.201,492.003,460.201z"/>
		</g>
	</g>
</g>
<g>
</g>
<g>
</g>
<g>
</g>
<g>
</g>
<g>
</g>
<g>
</g>
<g>
</g>
<g>
</g>
<g>
</g>
<g>
</g>
<g>
</g>
<g>
</g>
<g>
</g>
<g>
</g>
<g>
</g>
</svg>
