<svg version="1.1" xmlns="http://www.w3.org/2000/svg" xmlns:xlink="http://www.w3.org/1999/xlink"
     preserveAspectRatio="xMidYMid meet" viewBox="0 0 640 640" width="640" height="640">
    <defs>
        <path d="M435.08 27.85L436.11 27.91L437.14 27.99L438.16 28.09L439.18 28.21L440.2 28.35L441.21 28.51L442.22 28.69L443.22 28.88L444.22 29.1L445.21 29.34L446.2 29.59L447.18 29.87L448.16 30.16L449.13 30.48L450.1 30.81L451.06 31.17L452.01 31.54L452.96 31.93L453.9 32.34L454.83 32.77L455.75 33.21L456.67 33.68L457.58 34.17L458.48 34.67L459.37 35.19L460.25 35.73L461.13 36.29L461.99 36.87L462.85 37.46L463.69 38.07L464.53 38.71L465.35 39.35L466.17 40.02L466.96 40.7L467.74 41.39L468.51 42.1L469.26 42.82L470 43.55L470.72 44.29L471.42 45.05L472.1 45.82L472.77 46.6L473.43 47.39L474.07 48.2L474.69 49.02L475.29 49.84L475.88 50.68L476.45 51.53L477 52.39L477.53 53.26L478.05 54.14L478.55 55.03L479.03 55.93L479.5 56.84L479.95 57.76L480.37 58.69L480.78 59.63L481.18 60.57L481.55 61.52L481.91 62.49L482.24 63.46L482.56 64.43L482.86 65.42L483.14 66.41L483.4 67.41L483.65 68.42L483.87 69.43L484.07 70.45L484.26 71.47L484.42 72.51L484.57 73.54L484.69 74.59L484.8 75.63L484.88 76.68L484.94 77.72L484.99 78.76L485.01 79.8L485.01 80.84L484.99 81.87L484.95 82.9L484.89 83.93L484.81 84.96L484.72 85.98L484.6 87L484.46 88.02L484.3 89.03L484.12 90.04L483.92 91.04L483.71 92.04L483.47 93.04L483.21 94.02L482.94 95.01L482.64 95.98L482.33 96.96L481.99 97.92L481.64 98.88L481.27 99.83L480.88 100.78L480.47 101.72L480.04 102.65L479.59 103.58L479.13 104.49L478.64 105.4L478.14 106.3L477.62 107.19L477.08 108.07L476.52 108.95L475.94 109.81L475.35 110.67L474.73 111.51L474.1 112.35L473.45 113.18L309.83 317.14L473.45 521.1L474.1 521.92L474.73 522.76L475.34 523.61L475.94 524.46L476.52 525.33L477.07 526.2L477.62 527.08L478.14 527.97L478.64 528.87L479.12 529.78L479.59 530.7L480.04 531.62L480.47 532.56L480.88 533.49L481.27 534.44L481.64 535.39L481.99 536.35L482.33 537.32L482.64 538.29L482.94 539.27L483.21 540.25L483.47 541.24L483.7 542.23L483.92 543.23L484.12 544.24L484.3 545.24L484.46 546.26L484.6 547.27L484.71 548.29L484.81 549.31L484.89 550.34L484.95 551.37L484.99 552.4L485.01 553.44L485.01 554.48L484.98 555.51L484.94 556.56L484.88 557.6L484.79 558.64L484.69 559.69L484.56 560.73L484.42 561.77L484.25 562.8L484.07 563.83L483.87 564.85L483.64 565.86L483.4 566.86L483.14 567.86L482.86 568.86L482.56 569.84L482.24 570.82L481.9 571.79L481.55 572.75L481.17 573.7L480.78 574.65L480.37 575.59L479.94 576.51L479.5 577.43L479.03 578.34L478.55 579.24L478.05 580.13L477.53 581.01L476.99 581.88L476.44 582.74L475.87 583.59L475.29 584.43L474.68 585.26L474.06 586.08L473.43 586.88L472.77 587.67L472.1 588.46L471.41 589.22L470.71 589.98L469.99 590.73L469.26 591.46L468.51 592.18L467.74 592.88L466.96 593.58L466.16 594.26L465.35 594.92L464.65 595.47L463.94 596.01L463.22 596.54L462.49 597.05L461.76 597.56L461.02 598.05L460.27 598.52L459.51 598.98L458.74 599.43L457.97 599.87L457.19 600.29L456.41 600.7L455.62 601.1L454.82 601.48L454.01 601.85L453.2 602.21L452.39 602.55L451.57 602.88L450.74 603.19L449.91 603.49L449.07 603.78L448.23 604.05L447.38 604.31L446.53 604.55L445.68 604.78L444.82 605L443.96 605.2L443.09 605.39L442.22 605.56L441.35 605.72L440.48 605.86L439.6 605.99L438.72 606.1L437.84 606.2L436.96 606.28L436.07 606.35L435.18 606.4L434.29 606.44L433.4 606.47L432.51 606.47L431.31 606.46L430.12 606.42L428.93 606.35L427.74 606.26L426.56 606.14L425.39 606L424.22 605.82L423.06 605.63L421.9 605.41L420.76 605.16L419.62 604.89L418.49 604.59L417.36 604.27L416.25 603.92L415.14 603.55L414.05 603.15L412.96 602.73L411.89 602.29L410.82 601.82L409.77 601.33L408.73 600.82L407.69 600.28L406.67 599.72L405.67 599.13L404.67 598.53L403.69 597.9L402.72 597.25L401.77 596.57L400.83 595.88L399.91 595.16L399 594.42L398.1 593.66L397.22 592.88L396.36 592.07L395.51 591.25L394.68 590.4L393.86 589.54L393.07 588.65L392.29 587.74L391.53 586.82L242.51 401.05L93.48 586.82L92.72 587.75L91.94 588.65L91.14 589.54L90.33 590.4L89.5 591.25L88.65 592.07L87.79 592.88L86.91 593.66L86.01 594.42L85.1 595.16L84.18 595.88L83.24 596.57L82.28 597.25L81.31 597.9L80.33 598.53L79.34 599.13L78.33 599.72L77.31 600.28L76.28 600.82L75.24 601.33L74.19 601.82L73.12 602.29L72.04 602.73L70.96 603.15L69.86 603.55L68.76 603.92L67.64 604.27L66.52 604.59L65.39 604.89L64.25 605.16L63.1 605.41L61.95 605.63L60.79 605.82L59.62 606L58.45 606.14L57.27 606.26L56.08 606.35L54.89 606.42L53.69 606.46L52.49 606.47L51.6 606.47L50.71 606.44L49.82 606.4L48.94 606.35L48.05 606.28L47.17 606.2L46.29 606.1L45.41 605.99L44.53 605.86L43.65 605.72L42.78 605.56L41.91 605.39L41.05 605.2L40.19 605L39.33 604.78L38.47 604.55L37.62 604.31L36.78 604.05L35.94 603.78L35.1 603.49L34.27 603.19L33.44 602.87L32.62 602.55L31.8 602.2L30.99 601.85L30.19 601.48L29.39 601.1L28.6 600.7L27.81 600.29L27.03 599.87L26.26 599.43L25.5 598.98L24.74 598.52L23.99 598.04L23.25 597.55L22.51 597.05L21.79 596.54L21.07 596.01L20.36 595.47L19.66 594.92L18.85 594.25L18.05 593.57L17.27 592.88L16.5 592.18L15.75 591.46L15.01 590.72L14.3 589.98L13.59 589.22L12.91 588.45L12.24 587.67L11.58 586.88L10.95 586.07L10.33 585.26L9.72 584.43L9.14 583.59L8.57 582.74L8.01 581.88L7.48 581.01L6.96 580.13L6.46 579.24L5.98 578.34L5.51 577.43L5.07 576.51L4.64 575.58L4.23 574.65L3.83 573.7L3.46 572.75L3.1 571.79L2.77 570.82L2.45 569.84L2.15 568.86L1.87 567.86L1.61 566.86L1.36 565.86L1.14 564.84L0.94 563.82L0.75 562.8L0.59 561.77L0.44 560.73L0.32 559.69L0.22 558.64L0.13 557.6L0.07 556.55L0.03 555.51L0 554.47L0 553.44L0.02 552.4L0.06 551.37L0.12 550.34L0.2 549.31L0.3 548.29L0.41 547.27L0.55 546.25L0.71 545.24L0.89 544.23L1.09 543.23L1.3 542.23L1.54 541.24L1.8 540.25L2.07 539.27L2.37 538.29L2.68 537.32L3.02 536.35L3.37 535.39L3.74 534.44L4.13 533.49L4.54 532.55L4.97 531.62L5.42 530.7L5.88 529.78L6.37 528.87L6.87 527.97L7.39 527.08L7.93 526.2L8.49 525.32L9.07 524.46L9.66 523.6L10.28 522.76L10.91 521.92L11.56 521.1L175.18 317.14L11.56 113.18L10.91 112.35L10.28 111.51L9.66 110.67L9.07 109.81L8.49 108.95L7.93 108.07L7.39 107.19L6.87 106.3L6.37 105.4L5.88 104.49L5.42 103.58L4.97 102.65L4.54 101.72L4.13 100.78L3.74 99.83L3.37 98.88L3.02 97.92L2.68 96.96L2.37 95.98L2.07 95.01L1.8 94.02L1.54 93.04L1.3 92.04L1.09 91.04L0.89 90.04L0.71 89.03L0.55 88.02L0.41 87L0.3 85.98L0.2 84.96L0.12 83.93L0.06 82.9L0.02 81.87L0 80.84L0 79.8L0.03 78.76L0.07 77.72L0.13 76.68L0.22 75.63L0.32 74.59L0.44 73.54L0.59 72.51L0.75 71.47L0.94 70.45L1.14 69.43L1.36 68.42L1.61 67.41L1.87 66.41L2.15 65.42L2.45 64.43L2.77 63.46L3.1 62.49L3.46 61.52L3.83 60.57L4.23 59.63L4.64 58.69L5.07 57.76L5.51 56.84L5.98 55.93L6.46 55.03L6.96 54.14L7.48 53.26L8.01 52.39L8.57 51.53L9.14 50.68L9.72 49.84L10.33 49.02L10.95 48.2L11.58 47.39L12.24 46.6L12.91 45.82L13.59 45.05L14.3 44.29L15.02 43.55L15.75 42.82L16.5 42.1L17.27 41.39L18.05 40.7L18.85 40.02L19.66 39.35L20.49 38.7L21.32 38.07L22.17 37.46L23.02 36.86L23.89 36.29L24.76 35.73L25.64 35.19L26.53 34.67L27.43 34.17L28.34 33.68L29.26 33.21L30.18 32.77L31.11 32.34L32.05 31.93L33 31.54L33.95 31.17L34.91 30.81L35.88 30.48L36.85 30.17L37.82 29.87L38.81 29.6L39.8 29.34L40.79 29.1L41.79 28.89L42.79 28.69L43.8 28.51L44.81 28.35L45.83 28.21L46.85 28.09L47.87 27.99L48.9 27.92L49.93 27.86L50.96 27.82L52 27.8L53.03 27.8L54.07 27.82L55.11 27.87L56.16 27.93L57.2 28.01L58.25 28.12L59.29 28.24L60.33 28.38L61.36 28.55L62.38 28.73L63.4 28.94L64.42 29.16L65.42 29.4L66.42 29.66L67.42 29.94L68.4 30.24L69.38 30.56L70.35 30.9L71.31 31.26L72.26 31.63L73.21 32.02L74.15 32.43L75.07 32.86L75.99 33.31L76.9 33.77L77.8 34.26L78.69 34.76L79.57 35.27L80.44 35.81L81.3 36.36L82.15 36.93L82.99 37.52L83.82 38.12L84.64 38.74L85.44 39.38L86.23 40.03L87.02 40.7L87.79 41.39L88.54 42.09L89.29 42.81L90.02 43.55L90.74 44.3L91.44 45.06L92.14 45.85L92.82 46.64L93.48 47.46L242.51 233.22L391.53 47.46L392.2 46.64L392.88 45.84L393.57 45.06L394.27 44.3L394.99 43.55L395.73 42.81L396.47 42.09L397.23 41.39L398 40.7L398.78 40.03L399.57 39.38L400.38 38.74L401.19 38.12L402.02 37.52L402.86 36.93L403.71 36.36L404.57 35.81L405.44 35.27L406.32 34.76L407.21 34.26L408.11 33.77L409.02 33.31L409.94 32.86L410.87 32.43L411.8 32.02L412.75 31.63L413.7 31.26L414.66 30.9L415.63 30.56L416.61 30.24L417.6 29.94L418.59 29.66L419.59 29.4L420.6 29.16L421.61 28.94L422.63 28.73L423.65 28.55L424.68 28.39L425.72 28.24L426.77 28.12L427.81 28.01L428.85 27.93L429.9 27.86L430.94 27.82L431.98 27.8L433.01 27.8L434.05 27.82L435.08 27.85ZM431.69 53.31L431.15 53.33L430.62 53.37L430.08 53.41L429.54 53.46L429.01 53.53L428.47 53.6L427.94 53.69L427.41 53.78L426.89 53.89L426.37 54L425.85 54.12L425.34 54.26L424.83 54.4L424.32 54.56L423.82 54.72L423.32 54.89L422.82 55.08L422.33 55.27L421.85 55.47L421.36 55.68L420.89 55.9L420.41 56.13L419.95 56.37L419.48 56.62L419.03 56.88L418.57 57.15L418.12 57.42L417.68 57.7L417.25 58L416.81 58.3L416.39 58.61L415.97 58.93L415.55 59.26L415.15 59.59L414.74 59.94L414.35 60.29L413.96 60.65L413.57 61.02L413.2 61.4L412.83 61.79L412.46 62.18L412.11 62.58L411.76 62.99L411.42 63.41L252.45 261.57L252.27 261.79L252.08 262.01L251.88 262.23L251.69 262.44L251.49 262.64L251.28 262.84L251.07 263.04L250.86 263.22L250.64 263.41L250.42 263.59L250.19 263.76L249.97 263.93L249.73 264.09L249.5 264.25L249.26 264.41L249.02 264.55L248.77 264.69L248.52 264.83L248.27 264.96L248.02 265.09L247.76 265.21L247.5 265.32L247.24 265.43L246.98 265.53L246.71 265.63L246.44 265.72L246.17 265.8L245.9 265.88L245.63 265.95L245.35 266.02L245.07 266.08L244.79 266.13L244.51 266.18L244.23 266.22L243.94 266.26L243.66 266.29L243.37 266.31L243.08 266.33L242.79 266.34L242.51 266.34L242.22 266.34L241.93 266.33L241.64 266.31L241.35 266.29L241.07 266.26L240.78 266.22L240.5 266.18L240.22 266.13L239.94 266.08L239.66 266.02L239.38 265.95L239.11 265.88L238.84 265.8L238.57 265.72L238.3 265.63L238.03 265.53L237.77 265.43L237.51 265.32L237.25 265.21L236.99 265.09L236.74 264.96L236.49 264.83L236.24 264.69L235.99 264.55L235.75 264.41L235.51 264.25L235.28 264.09L235.05 263.93L234.82 263.76L234.59 263.59L234.37 263.41L234.15 263.22L233.94 263.04L233.73 262.84L233.52 262.64L233.32 262.44L233.13 262.23L232.93 262.01L232.74 261.79L232.56 261.57L73.59 63.41L73.25 62.99L72.9 62.58L72.54 62.18L72.18 61.79L71.81 61.4L71.43 61.02L71.05 60.65L70.66 60.29L70.27 59.94L69.86 59.59L69.46 59.25L69.04 58.93L68.62 58.61L68.19 58.3L67.76 58L67.33 57.7L66.88 57.42L66.44 57.14L65.98 56.88L65.53 56.62L65.06 56.37L64.59 56.13L64.12 55.9L63.64 55.68L63.16 55.47L62.68 55.27L62.19 55.08L61.69 54.89L61.19 54.72L60.69 54.55L60.18 54.4L59.67 54.26L59.16 54.12L58.64 54L58.12 53.88L57.59 53.78L57.07 53.68L56.54 53.6L56 53.52L55.47 53.46L54.93 53.41L54.39 53.36L53.85 53.33L53.32 53.31L52.78 53.3L52.25 53.3L51.71 53.31L51.18 53.33L50.65 53.36L50.12 53.4L49.6 53.45L49.07 53.51L48.55 53.58L48.03 53.66L47.51 53.76L47 53.86L46.48 53.97L45.97 54.09L45.46 54.22L44.96 54.37L44.45 54.52L43.95 54.68L43.46 54.85L42.96 55.03L42.47 55.22L41.99 55.42L41.51 55.63L41.03 55.85L40.55 56.08L40.08 56.32L39.61 56.57L39.15 56.83L38.69 57.1L38.24 57.38L37.79 57.67L37.34 57.96L36.9 58.27L36.47 58.58L36.04 58.91L35.62 59.24L35.2 59.58L34.79 59.93L34.38 60.29L33.99 60.65L33.6 61.02L33.23 61.4L32.86 61.78L32.49 62.17L32.14 62.57L31.8 62.97L31.46 63.38L31.13 63.79L30.81 64.21L30.5 64.64L30.2 65.07L29.91 65.51L29.62 65.95L29.35 66.4L29.08 66.85L28.83 67.31L28.58 67.77L28.34 68.24L28.11 68.71L27.89 69.19L27.68 69.67L27.47 70.16L27.28 70.65L27.1 71.14L26.92 71.64L26.76 72.14L26.61 72.65L26.46 73.16L26.33 73.68L26.2 74.19L26.09 74.71L25.98 75.24L25.89 75.77L25.8 76.3L25.73 76.83L25.67 77.37L25.61 77.9L25.57 78.44L25.54 78.98L25.51 79.51L25.5 80.05L25.5 80.58L25.51 81.11L25.53 81.65L25.56 82.18L25.6 82.7L25.65 83.23L25.71 83.75L25.79 84.28L25.87 84.8L25.96 85.32L26.06 85.83L26.17 86.35L26.29 86.86L26.43 87.37L26.57 87.87L26.72 88.37L26.88 88.87L27.05 89.37L27.23 89.87L27.43 90.36L27.63 90.84L27.84 91.32L28.06 91.8L28.29 92.28L28.53 92.75L28.78 93.22L29.04 93.68L29.3 94.14L29.58 94.59L29.87 95.04L30.17 95.49L30.47 95.93L30.79 96.36L31.11 96.79L31.45 97.22L201.47 309.16L201.74 309.51L202 309.87L202.25 310.24L202.48 310.61L202.7 310.99L202.9 311.37L203.09 311.76L203.27 312.16L203.43 312.56L203.57 312.96L203.71 313.37L203.83 313.78L203.93 314.19L204.02 314.61L204.1 315.03L204.16 315.45L204.21 315.87L204.25 316.29L204.27 316.71L204.28 317.14L204.27 317.56L204.25 317.98L204.21 318.4L204.16 318.83L204.1 319.25L204.02 319.66L203.93 320.08L203.83 320.49L203.71 320.9L203.57 321.31L203.43 321.71L203.27 322.11L203.09 322.51L202.9 322.9L202.7 323.28L202.48 323.66L202.25 324.03L202 324.4L201.74 324.76L201.47 325.11L31.45 537.05L31.11 537.48L30.79 537.91L30.47 538.34L30.17 538.78L29.87 539.23L29.58 539.68L29.3 540.13L29.04 540.59L28.78 541.06L28.53 541.52L28.29 541.99L28.06 542.47L27.84 542.95L27.63 543.43L27.43 543.92L27.23 544.41L27.05 544.9L26.88 545.4L26.72 545.9L26.57 546.4L26.43 546.91L26.29 547.42L26.17 547.93L26.06 548.44L25.96 548.96L25.87 549.48L25.79 550L25.71 550.52L25.65 551.04L25.6 551.57L25.56 552.1L25.53 552.63L25.51 553.16L25.5 553.69L25.5 554.22L25.51 554.76L25.54 555.29L25.57 555.83L25.61 556.37L25.67 556.91L25.73 557.44L25.8 557.98L25.89 558.51L25.98 559.03L26.09 559.56L26.2 560.08L26.33 560.6L26.46 561.11L26.61 561.62L26.76 562.13L26.92 562.63L27.1 563.13L27.28 563.63L27.47 564.12L27.68 564.6L27.89 565.08L28.11 565.56L28.34 566.03L28.58 566.5L28.82 566.97L29.08 567.42L29.35 567.88L29.62 568.32L29.91 568.77L30.2 569.2L30.5 569.63L30.81 570.06L31.13 570.48L31.46 570.89L31.8 571.3L32.14 571.7L32.49 572.1L32.86 572.49L33.23 572.87L33.6 573.25L33.99 573.62L34.38 573.98L34.79 574.34L35.2 574.69L35.61 575.03L35.98 575.32L36.35 575.6L36.72 575.87L37.1 576.14L37.48 576.4L37.86 576.66L38.25 576.9L38.64 577.14L39.03 577.37L39.43 577.6L39.83 577.82L40.23 578.03L40.63 578.23L41.04 578.43L41.45 578.62L41.87 578.8L42.28 578.98L42.7 579.15L43.12 579.31L43.55 579.46L43.98 579.61L44.41 579.75L44.84 579.88L45.27 580L45.71 580.12L46.15 580.23L46.59 580.33L47.03 580.43L47.48 580.51L47.93 580.59L48.37 580.67L48.83 580.73L49.28 580.79L49.73 580.84L50.19 580.88L50.65 580.91L51.11 580.94L51.57 580.96L52.03 580.97L52.49 580.98L53.11 580.97L53.73 580.95L54.34 580.91L54.95 580.87L55.56 580.8L56.16 580.73L56.77 580.64L57.36 580.54L57.96 580.43L58.55 580.3L59.13 580.16L59.72 580.01L60.29 579.84L60.87 579.66L61.44 579.47L62 579.27L62.56 579.05L63.11 578.82L63.66 578.58L64.2 578.33L64.74 578.06L65.27 577.79L65.8 577.5L66.32 577.2L66.83 576.89L67.33 576.56L67.83 576.23L68.32 575.88L68.8 575.52L69.28 575.15L69.75 574.77L70.21 574.38L70.66 573.98L71.11 573.57L71.54 573.14L71.97 572.71L72.39 572.26L72.8 571.81L73.2 571.34L73.59 570.86L232.56 372.7L232.74 372.48L232.93 372.26L233.13 372.05L233.32 371.84L233.52 371.63L233.73 371.43L233.94 371.24L234.15 371.05L234.37 370.86L234.59 370.69L234.82 370.51L235.05 370.34L235.28 370.18L235.51 370.02L235.75 369.87L235.99 369.72L236.24 369.58L236.49 369.44L236.74 369.31L236.99 369.19L237.25 369.07L237.51 368.95L237.77 368.85L238.03 368.74L238.3 368.65L238.57 368.56L238.84 368.47L239.11 368.39L239.38 368.32L239.66 368.25L239.94 368.19L240.22 368.14L240.5 368.09L240.78 368.05L241.07 368.01L241.35 367.98L241.64 367.96L241.93 367.95L242.22 367.94L242.51 367.93L242.79 367.94L243.08 367.95L243.37 367.96L243.66 367.98L243.94 368.01L244.23 368.05L244.51 368.09L244.79 368.14L245.07 368.19L245.35 368.25L245.63 368.32L245.9 368.39L246.17 368.47L246.44 368.56L246.71 368.65L246.98 368.74L247.24 368.85L247.5 368.95L247.76 369.07L248.02 369.19L248.27 369.31L248.52 369.44L248.77 369.58L249.02 369.72L249.26 369.87L249.5 370.02L249.73 370.18L249.96 370.34L250.19 370.51L250.42 370.69L250.64 370.87L250.86 371.05L251.07 371.24L251.28 371.43L251.49 371.63L251.69 371.84L251.88 372.05L252.08 372.26L252.27 372.48L252.45 372.7L411.42 570.86L411.81 571.34L412.21 571.81L412.62 572.26L413.04 572.71L413.47 573.14L413.9 573.57L414.35 573.98L414.8 574.38L415.26 574.77L415.73 575.16L416.2 575.52L416.69 575.88L417.18 576.23L417.68 576.56L418.18 576.89L418.69 577.2L419.21 577.5L419.74 577.79L420.27 578.07L420.8 578.33L421.35 578.58L421.89 578.82L422.45 579.05L423.01 579.27L423.57 579.47L424.14 579.66L424.71 579.84L425.29 580.01L425.87 580.16L426.46 580.3L427.05 580.43L427.65 580.54L428.24 580.64L428.84 580.73L429.45 580.81L430.06 580.87L430.67 580.91L431.28 580.95L431.9 580.97L432.51 580.98L432.98 580.97L433.44 580.96L433.9 580.94L434.36 580.91L434.82 580.88L435.28 580.84L435.73 580.79L436.18 580.73L436.63 580.67L437.08 580.59L437.53 580.51L437.98 580.43L438.42 580.33L438.86 580.23L439.3 580.12L439.74 580L440.17 579.88L440.6 579.75L441.03 579.61L441.46 579.46L441.88 579.31L442.31 579.15L442.73 578.98L443.14 578.8L443.56 578.62L443.97 578.43L444.38 578.24L444.78 578.03L445.18 577.82L445.58 577.6L445.98 577.38L446.37 577.14L446.76 576.9L447.15 576.66L447.53 576.4L447.91 576.14L448.29 575.88L448.66 575.6L449.03 575.32L449.39 575.03L449.81 574.69L450.22 574.34L450.63 573.98L451.02 573.62L451.41 573.25L451.78 572.87L452.15 572.49L452.51 572.1L452.87 571.71L453.21 571.3L453.55 570.9L453.88 570.48L454.2 570.06L454.51 569.64L454.81 569.2L455.1 568.77L455.38 568.32L455.66 567.88L455.93 567.42L456.18 566.97L456.43 566.5L456.67 566.04L456.9 565.56L457.12 565.09L457.33 564.6L457.54 564.12L457.73 563.63L457.91 563.13L458.08 562.63L458.25 562.13L458.4 561.62L458.55 561.11L458.68 560.6L458.81 560.08L458.92 559.56L459.02 559.04L459.12 558.51L459.2 557.98L459.28 557.44L459.34 556.91L459.4 556.37L459.44 555.83L459.47 555.3L459.49 554.76L459.51 554.23L459.51 553.69L459.5 553.16L459.48 552.63L459.45 552.1L459.41 551.57L459.36 551.04L459.29 550.52L459.22 550L459.14 549.48L459.05 548.96L458.95 548.44L458.84 547.93L458.71 547.42L458.58 546.91L458.44 546.4L458.29 545.9L458.13 545.4L457.96 544.9L457.77 544.41L457.58 543.92L457.38 543.43L457.17 542.95L456.95 542.47L456.72 542L456.48 541.52L456.23 541.06L455.97 540.59L455.7 540.13L455.43 539.68L455.14 539.23L454.84 538.79L454.54 538.35L454.22 537.91L453.9 537.48L453.56 537.06L283.54 325.12L283.26 324.76L283 324.4L282.76 324.04L282.53 323.66L282.31 323.28L282.11 322.9L281.92 322.51L281.74 322.11L281.58 321.71L281.43 321.31L281.3 320.9L281.18 320.49L281.08 320.08L280.98 319.67L280.91 319.25L280.84 318.83L280.8 318.41L280.76 317.98L280.74 317.56L280.73 317.14L280.74 316.71L280.76 316.29L280.8 315.87L280.84 315.45L280.91 315.03L280.98 314.61L281.08 314.19L281.18 313.78L281.3 313.37L281.43 312.96L281.58 312.56L281.74 312.16L281.92 311.77L282.11 311.38L282.31 310.99L282.53 310.61L282.76 310.24L283 309.87L283.26 309.51L283.54 309.16L453.56 97.22L453.9 96.79L454.22 96.36L454.54 95.93L454.84 95.49L455.14 95.04L455.43 94.6L455.7 94.14L455.97 93.68L456.23 93.22L456.48 92.75L456.72 92.28L456.95 91.81L457.17 91.33L457.38 90.84L457.58 90.36L457.77 89.87L457.96 89.37L458.13 88.88L458.29 88.38L458.44 87.87L458.58 87.37L458.71 86.86L458.84 86.35L458.95 85.83L459.05 85.32L459.14 84.8L459.22 84.28L459.29 83.76L459.36 83.23L459.41 82.7L459.45 82.18L459.48 81.65L459.5 81.12L459.51 80.58L459.51 80.05L459.49 79.52L459.47 78.98L459.44 78.44L459.4 77.91L459.34 77.37L459.28 76.83L459.2 76.3L459.12 75.77L459.02 75.24L458.92 74.72L458.81 74.19L458.68 73.68L458.55 73.16L458.4 72.65L458.25 72.15L458.08 71.64L457.91 71.14L457.73 70.65L457.54 70.16L457.33 69.67L457.12 69.19L456.9 68.71L456.67 68.24L456.43 67.77L456.18 67.31L455.93 66.85L455.66 66.4L455.38 65.95L455.1 65.51L454.81 65.07L454.51 64.64L454.2 64.21L453.88 63.79L453.55 63.38L453.21 62.97L452.87 62.57L452.51 62.17L452.15 61.78L451.78 61.4L451.41 61.02L451.02 60.66L450.63 60.29L450.22 59.94L449.81 59.59L449.39 59.24L448.97 58.91L448.54 58.59L448.1 58.27L447.66 57.96L447.22 57.67L446.77 57.38L446.31 57.1L445.86 56.83L445.39 56.57L444.93 56.32L444.45 56.08L443.98 55.85L443.5 55.63L443.02 55.42L442.53 55.22L442.04 55.03L441.54 54.85L441.05 54.68L440.55 54.52L440.04 54.36L439.54 54.22L439.03 54.09L438.52 53.97L438 53.86L437.49 53.75L436.97 53.66L436.45 53.58L435.93 53.51L435.4 53.45L434.88 53.4L434.35 53.36L433.82 53.33L433.29 53.31L432.76 53.3L432.22 53.3L431.69 53.31Z"
              id="b4safTeWc"></path>
        <path d="M542.38 191.72C585.75 148.35 609.85 124.25 614.67 119.43C634.22 99.88 640.11 71.62 630.05 45.69C620.23 20.38 597.45 3.91 570.6 2.7C569.39 2.65 568.18 2.62 566.96 2.62C523.06 2.62 487.34 38.34 487.34 82.24C487.34 89.28 493.05 94.99 500.09 94.99C507.13 94.99 512.84 89.28 512.84 82.24C512.84 52.4 537.12 28.12 566.96 28.12C567.79 28.12 568.62 28.14 569.45 28.17C586.31 28.93 600.07 38.93 606.28 54.91C611.26 67.75 611.34 86.7 596.64 101.4C587.24 110.81 511.99 186.05 502.58 195.46C498.94 199.1 497.85 204.59 499.82 209.35C501.79 214.11 506.44 217.22 511.6 217.22C523.16 217.22 615.69 217.22 627.25 217.22C634.29 217.22 640 211.51 640 204.47C640 197.43 634.29 191.72 627.25 191.72C615.93 191.72 587.64 191.72 542.38 191.72Z"
              id="g11vQnEmr"></path>
    </defs>
    <g>
        <g>
            <g>
                <use xlink:href="#b4safTeWc" opacity="1" fill="#000000" fill-opacity="1"></use>
                <g>
                    <use xlink:href="#b4safTeWc" opacity="1" fill-opacity="0" stroke="#000000" stroke-width="1"
                         stroke-opacity="0"></use>
                </g>
            </g>
            <g>
                <use xlink:href="#g11vQnEmr" opacity="1" fill="#000000" fill-opacity="1"></use>
                <g>
                    <use xlink:href="#g11vQnEmr" opacity="1" fill-opacity="0" stroke="#000000" stroke-width="1"
                         stroke-opacity="0"></use>
                </g>
            </g>
        </g>
    </g>
</svg>
