<?xml version="1.0" encoding="iso-8859-1"?>
<!-- Generator: Adobe Illustrator 19.0.0, SVG Export Plug-In . SVG Version: 6.00 Build 0)  -->
<svg version="1.1" id="Layer_1" xmlns="http://www.w3.org/2000/svg" x="0px" y="0px"
     viewBox="0 0 512 512" style="enable-background:new 0 0 512 512;" xml:space="preserve">
<circle style="fill:#F8E99B;" cx="256" cy="288.368" r="223.632"/>
<path style="fill:#F6E27D;" d="M256,64.736V512c123.509,0,223.632-100.124,223.632-223.632S379.509,64.736,256,64.736z"/>
<path style="fill:#A58868;" d="M238.345,288.368h-35.31c0-9.735-7.92-17.655-17.655-17.655c-9.735,0-17.655,7.92-17.655,17.655
	h-35.31c0-29.206,23.759-52.966,52.966-52.966S238.345,259.161,238.345,288.368z"/>
<path style="fill:#947859;" d="M379.586,288.368h-35.31c0-9.735-7.919-17.655-17.655-17.655s-17.655,7.92-17.655,17.655h-35.31
	c0-29.206,23.759-52.966,52.966-52.966S379.586,259.161,379.586,288.368z"/>
<path style="fill:#A58868;" d="M256,435.494c-58.486,0-112.253-29.442-143.825-78.756l29.738-19.039
	c25.048,39.126,67.698,62.485,114.087,62.485s89.037-23.359,114.088-62.485l29.738,19.039
	C368.253,406.052,314.486,435.494,256,435.494z"/>
<path style="fill:#98C8ED;" d="M256,153.011c-99.204,0-205.977-23.942-205.977-76.506S156.796,0,256,0
	s205.977,23.942,205.977,76.506S355.204,153.011,256,153.011z M256,35.31c-48.566,0-93.987,5.837-127.898,16.433
	C92.944,62.73,85.333,74.245,85.333,76.506c0,2.261,7.611,13.776,42.769,24.762c33.911,10.599,79.332,16.433,127.898,16.433
	s93.988-5.834,127.898-16.433c35.159-10.986,42.769-22.501,42.769-24.762c0-2.261-7.611-13.776-42.769-24.762
	C349.988,41.147,304.566,35.31,256,35.31z"/>
<path style="fill:#947859;" d="M370.088,337.699c-25.05,39.126-67.699,62.485-114.088,62.485v35.31
	c58.486,0,112.253-29.442,143.825-78.756L370.088,337.699z"/>
<path style="fill:#7AB9E8;" d="M256,0v35.31c48.566,0,93.988,5.837,127.898,16.433c35.159,10.986,42.769,22.501,42.769,24.762
	c0,2.261-7.611,13.776-42.769,24.762c-33.91,10.599-79.332,16.433-127.898,16.433v35.31c99.204,0,205.977-23.942,205.977-76.506
	S355.204,0,256,0z"/>
<g>
</g>
<g>
</g>
<g>
</g>
<g>
</g>
<g>
</g>
<g>
</g>
<g>
</g>
<g>
</g>
<g>
</g>
<g>
</g>
<g>
</g>
<g>
</g>
<g>
</g>
<g>
</g>
<g>
</g>
</svg>
