<?xml version="1.0" encoding="iso-8859-1"?>
<!-- Generator: Adobe Illustrator 19.0.0, SVG Export Plug-In . SVG Version: 6.00 Build 0)  -->
<svg version="1.1" id="Layer_1" xmlns="http://www.w3.org/2000/svg" x="0px" y="0px"
     viewBox="0 0 512 512" style="enable-background:new 0 0 512 512;" xml:space="preserve">
<circle style="fill:#F8E99B;" cx="256" cy="256" r="256"/>
<path style="fill:#F6E27D;" d="M256,0v512c141.385,0,256-114.615,256-256S397.385,0,256,0z"/>
<path style="fill:#A58868;" d="M159.435,440.425l-35.922-18.534c25.132-48.711,72.142-77.793,125.751-77.793
	c53.61,0,100.62,29.082,125.75,77.794l-35.921,18.532c-18.331-35.529-51.071-55.905-89.829-55.905
	C210.506,384.519,177.765,404.896,159.435,440.425z"/>
<path style="fill:#947859;" d="M256,344.272v40.461c35.8,2.227,65.834,22.241,83.092,55.691l35.921-18.532
	C350.942,375.231,306.792,346.602,256,344.272z"/>
<path style="fill:#A58868;" d="M175.158,276.211c-31.357,0-61.658-14.969-62.933-15.608l18.035-36.174
	c0.23,0.113,23.243,11.361,44.898,11.361c21.573,0,44.63-11.226,44.857-11.339l18.076,36.153
	C236.816,261.241,206.515,276.211,175.158,276.211z"/>
<g>
	<path style="fill:#947859;" d="M336.842,276.211c-31.357,0-61.66-14.969-62.933-15.608l18.035-36.174
		c0.23,0.113,23.243,11.361,44.898,11.361c21.573,0,44.629-11.226,44.857-11.339l18.076,36.153
		C398.502,261.241,368.199,276.211,336.842,276.211z"/>
	
		<rect x="323.362" y="85.59" transform="matrix(-0.4856 -0.8742 0.8742 -0.4856 374.9495 530.5433)" style="fill:#947859;" width="40.42" height="138.727"/>
</g>
<rect x="99.072" y="134.741" transform="matrix(-0.8742 -0.4856 0.4856 -0.8742 240.4369 372.1988)" style="fill:#A58868;" width="138.727" height="40.422"/>
<path style="fill:#F8F8F9;" d="M196.673,354.008l18.906-44.113l-44.113,18.906c-14.123-4.805-30.372-1.586-41.634,9.677
	c-15.784,15.786-15.784,41.378,0,57.165c15.784,15.784,41.378,15.784,57.163,0C198.257,384.381,201.477,368.131,196.673,354.008z"/>
<path style="fill:#EDEDED;" d="M340.534,328.802l-44.113-18.905l18.906,44.112c-4.805,14.122-1.586,30.372,9.677,41.632
	c15.786,15.786,41.378,15.786,57.165,0c15.784-15.784,15.784-41.378,0-57.163C370.908,327.218,354.657,323.998,340.534,328.802z"/>
<g>
</g>
<g>
</g>
<g>
</g>
<g>
</g>
<g>
</g>
<g>
</g>
<g>
</g>
<g>
</g>
<g>
</g>
<g>
</g>
<g>
</g>
<g>
</g>
<g>
</g>
<g>
</g>
<g>
</g>
</svg>
