<?xml version="1.0" encoding="iso-8859-1"?>
<!-- Generator: Adobe Illustrator 19.0.0, SVG Export Plug-In . SVG Version: 6.00 Build 0)  -->
<svg version="1.1" id="Layer_1" xmlns="http://www.w3.org/2000/svg" x="0px" y="0px"
     viewBox="0 0 512 512" style="enable-background:new 0 0 512 512;" xml:space="preserve">
<circle style="fill:#E07188;" cx="256" cy="256" r="256"/>
<path style="fill:#E02753;" d="M256,0v512c141.385,0,256-114.615,256-256S397.385,0,256,0z"/>
<g>
	<path style="fill:#58575D;" d="M207.78,410.677l-38.298-12.932c7.687-22.761,19.829-40.148,36.093-51.676
		c14.257-10.105,31.693-15.446,50.424-15.446c41.231,0,72.796,24.561,86.603,67.385l-38.471,12.405
		c-8.422-26.124-24.616-39.369-48.133-39.369C232.559,371.045,216.785,384.008,207.78,410.677z"/>
	<path style="fill:#58575D;" d="M195.368,289.684c-14.859,0-26.947-12.089-26.947-26.947c0-14.859,12.089-26.947,26.947-26.947
		c14.861,0,26.947,12.089,26.947,26.947C222.31,277.598,210.222,289.684,195.368,289.684z"/>
</g>
<g>
	<path style="fill:#454449;" d="M316.632,289.684c-14.859,0-26.947-12.089-26.947-26.947c0-14.859,12.089-26.947,26.947-26.947
		c14.861,0,26.947,12.089,26.947,26.947C343.574,277.598,331.485,289.684,316.632,289.684z"/>
	
		<rect x="323.345" y="99.059" transform="matrix(-0.4856 -0.8742 0.8742 -0.4856 363.1517 550.5387)" style="fill:#454449;" width="40.422" height="138.727"/>
</g>
<rect x="99.078" y="148.21" transform="matrix(-0.8742 -0.4856 0.4856 -0.8742 233.9063 397.446)" style="fill:#58575D;" width="138.727" height="40.422"/>
<path style="fill:#454449;" d="M256,330.624v40.421c23.516,0,39.71,13.245,48.133,39.369l38.471-12.405
	C328.796,355.184,297.231,330.624,256,330.624z"/>
<g>
</g>
<g>
</g>
<g>
</g>
<g>
</g>
<g>
</g>
<g>
</g>
<g>
</g>
<g>
</g>
<g>
</g>
<g>
</g>
<g>
</g>
<g>
</g>
<g>
</g>
<g>
</g>
<g>
</g>
</svg>
