<?xml version="1.0" encoding="iso-8859-1"?>
<!-- Generator: Adobe Illustrator 19.0.0, SVG Export Plug-In . SVG Version: 6.00 Build 0)  -->
<svg version="1.1" id="Layer_1" xmlns="http://www.w3.org/2000/svg" x="0px" y="0px"
     viewBox="0 0 512 512" style="enable-background:new 0 0 512 512;" xml:space="preserve">
<circle style="fill:#F8E99B;" cx="256" cy="256" r="256"/>
<path style="fill:#F6E27D;" d="M256,0v512c141.385,0,256-114.615,256-256S397.385,0,256,0z"/>
<path style="fill:#A58868;" d="M161.683,262.737c-31.357,0-61.658-14.969-62.933-15.608l18.035-36.174
	c0.229,0.113,23.243,11.361,44.898,11.361c21.573,0,44.63-11.226,44.857-11.339l18.076,36.153
	C223.341,247.768,193.04,262.737,161.683,262.737z"/>
<path style="fill:#947859;" d="M350.314,262.737c-31.357,0-61.658-14.969-62.933-15.608l18.035-36.174
	c0.229,0.113,23.243,11.361,44.898,11.361c21.573,0,44.63-11.226,44.857-11.339l18.076,36.153
	C411.973,247.768,381.672,262.737,350.314,262.737z"/>
<path style="fill:#A58868;" d="M90.103,202.014l-31.845-24.895c32.49-41.56,74.344-76.389,121.033-100.725l18.683,35.845
	C156.365,133.924,119.063,164.969,90.103,202.014z"/>
<path style="fill:#947859;" d="M421.897,202.014c-28.962-37.043-66.262-68.088-107.87-89.775l18.683-35.845
	c46.689,24.336,88.542,59.166,121.033,100.725L421.897,202.014z"/>
<path style="fill:#7AB9E8;" d="M444.632,309.895H336.842c29.765,0,53.895,24.129,53.895,53.895c0,29.766,24.13,53.895,53.895,53.895
	c29.765,0,53.895-24.129,53.895-53.895S474.396,309.895,444.632,309.895z"/>
<path style="fill:#E07188;" d="M356.782,412.442c5.627-21.563-11.539-44.659-38.768-48.326c-43.127-5.833-86.843-5.831-129.969,0
	c-27.229,3.668-44.394,26.763-38.768,48.326l0,0c5.621,21.643,27.675,34.688,49.603,31.787c35.934-4.86,72.362-4.86,108.297,0
	C329.106,447.131,351.159,434.086,356.782,412.442L356.782,412.442z"/>
<path style="fill:#E02753;" d="M318.014,364.116c-20.675-2.796-41.486-4.236-62.301-4.351v80.842
	c17.196,0.115,34.386,1.312,51.465,3.622c21.927,2.902,43.982-10.143,49.603-31.787
	C362.408,390.878,345.243,367.784,318.014,364.116z"/>
<g>
</g>
<g>
</g>
<g>
</g>
<g>
</g>
<g>
</g>
<g>
</g>
<g>
</g>
<g>
</g>
<g>
</g>
<g>
</g>
<g>
</g>
<g>
</g>
<g>
</g>
<g>
</g>
<g>
</g>
</svg>
