<?xml version="1.0" encoding="iso-8859-1"?>
<!-- Generator: Adobe Illustrator 19.0.0, SVG Export Plug-In . SVG Version: 6.00 Build 0)  -->
<svg version="1.1" id="Layer_1" xmlns="http://www.w3.org/2000/svg" x="0px" y="0px"
     viewBox="0 0 512 512" style="enable-background:new 0 0 512 512;" xml:space="preserve">
<circle style="fill:#F8E99B;" cx="256" cy="256" r="256"/>
<path style="fill:#F6E27D;" d="M256,0v512c141.385,0,256-114.615,256-256S397.385,0,256,0z"/>
<path style="fill:#58575D;" d="M323.368,141.474c-16.15,0-30.425,8.165-38.93,20.578c-8.486-4.529-18.165-7.105-28.439-7.105
	c-10.274,0-19.953,2.576-28.439,7.105c-8.505-12.413-22.78-20.578-38.93-20.578H26.947v40.421c3.715,0,6.737,3.022,6.737,6.737
	v40.421c0,55.72,45.332,101.053,101.053,101.053s101.053-45.332,101.053-101.053v-13.474c0-11.144,9.066-20.211,20.211-20.211
	c11.144,0,20.211,9.066,20.211,20.211v13.474c0,55.72,45.332,101.053,101.053,101.053s101.053-45.332,101.053-101.053v-40.421
	c0-3.715,3.022-6.737,6.737-6.737v-40.421H323.368z"/>
<path style="fill:#A58868;" d="M256,437.895c-53.61,0-100.62-29.082-125.75-77.794l35.921-18.532
	c18.331,35.529,51.071,55.905,89.829,55.905c38.757,0,71.497-20.376,89.829-55.906l35.921,18.534
	C356.619,408.813,309.609,437.895,256,437.895z"/>
<path style="fill:#454449;" d="M323.368,141.474c-16.15,0-30.425,8.165-38.93,20.578c-8.486-4.529-18.165-7.105-28.439-7.105v40.421
	c11.144,0,20.211,9.066,20.211,20.211v13.474c0,55.72,45.332,101.053,101.053,101.053s101.053-45.332,101.053-101.053v-40.421
	c0-3.715,3.022-6.737,6.737-6.737v-40.421H323.368z"/>
<path style="fill:#947859;" d="M345.829,341.567c-18.332,35.53-51.072,55.906-89.829,55.906v40.421
	c53.609,0,100.619-29.082,125.75-77.793L345.829,341.567z"/>
<rect x="114.536" y="171.883" transform="matrix(-0.7071 -0.7071 0.7071 -0.7071 68.0654 486.283)" style="fill:#88888F;" width="40.419" height="114.323"/>
<rect x="357.883" y="171.881" transform="matrix(-0.7071 -0.7071 0.7071 -0.7071 483.4872 658.3528)" style="fill:#5D5D5D;" width="40.421" height="114.323"/>
<g>
</g>
<g>
</g>
<g>
</g>
<g>
</g>
<g>
</g>
<g>
</g>
<g>
</g>
<g>
</g>
<g>
</g>
<g>
</g>
<g>
</g>
<g>
</g>
<g>
</g>
<g>
</g>
<g>
</g>
</svg>
