<?xml version="1.0" encoding="iso-8859-1"?>
<!-- Generator: Adobe Illustrator 19.0.0, SVG Export Plug-In . SVG Version: 6.00 Build 0)  -->
<svg version="1.1" id="Layer_1" xmlns="http://www.w3.org/2000/svg" x="0px" y="0px"
     viewBox="0 0 512 512" style="enable-background:new 0 0 512 512;" xml:space="preserve">
<circle style="fill:#F8E99B;" cx="256" cy="256" r="256"/>
<path style="fill:#F6E27D;" d="M256,0v512c141.385,0,256-114.615,256-256S397.385,0,256,0z"/>
<path style="fill:#A58868;" d="M178.526,303.158c13.022,0,23.579-18.098,23.579-40.421v-40.421H94.316v40.421h60.632
	C154.947,285.06,165.504,303.158,178.526,303.158z"/>
<path style="fill:#947859;" d="M309.895,222.316v40.421h60.632c0,22.323,10.558,40.421,23.579,40.421
	c13.022,0,23.579-18.098,23.579-40.421v-40.421H309.895z"/>
<path style="fill:#A58868;" d="M193.938,154.239l-10.612-39.002c-43.252,11.768-83.474,34.284-116.316,65.113l27.664,29.471
	C122.716,183.497,157.04,164.278,193.938,154.239z"/>
<path style="fill:#947859;" d="M444.99,180.348c-32.842-30.83-73.064-53.346-116.316-65.113l-10.612,39.002
	c36.898,10.039,71.222,29.259,99.263,55.582L444.99,180.348z"/>
<path style="fill:#A58868;" d="M240.402,382.448l-79.766-13.167l-6.583,39.882l79.638,13.146c8.192,1.405,16.338,2.096,24.391,2.096
	c43.893,0,84.815-20.52,112.707-57.496l-32.27-24.343C314.445,374.481,278.727,389.034,240.402,382.448z"/>
<path style="fill:#947859;" d="M338.521,342.566c-20.772,27.538-50.216,42.134-82.521,41.395v40.398
	c0.694,0.011,1.391,0.044,2.083,0.044c43.893,0,84.816-20.52,112.707-57.496L338.521,342.566z"/>
<g>
</g>
<g>
</g>
<g>
</g>
<g>
</g>
<g>
</g>
<g>
</g>
<g>
</g>
<g>
</g>
<g>
</g>
<g>
</g>
<g>
</g>
<g>
</g>
<g>
</g>
<g>
</g>
<g>
</g>
</svg>
