<?xml version="1.0" encoding="iso-8859-1"?>
<!-- Generator: Adobe Illustrator 19.0.0, SVG Export Plug-In . SVG Version: 6.00 Build 0)  -->
<svg version="1.1" id="Layer_1" xmlns="http://www.w3.org/2000/svg" x="0px" y="0px"
     viewBox="0 0 512 512" style="enable-background:new 0 0 512 512;" xml:space="preserve">
<circle style="fill:#F8E99B;" cx="256" cy="256" r="256"/>
<path style="fill:#F6E27D;" d="M256,0v512c141.385,0,256-114.615,256-256S397.385,0,256,0z"/>
<path style="fill:#E07188;" d="M191.721,335.495c-2.005,8.933-3.09,18.436-3.09,28.295c0,52.089,30.162,94.316,67.368,94.316
	s67.368-42.227,67.368-94.316c0-9.859-1.085-19.362-3.09-28.295H191.721z"/>
<path style="fill:#A58868;" d="M81.202,182.873l-27.666-29.471c32.843-30.829,73.065-53.345,116.316-65.113l10.613,39.002
	C143.566,137.331,109.242,156.549,81.202,182.873z"/>
<path style="fill:#947859;" d="M430.798,182.873c-28.04-26.322-62.366-45.542-99.263-55.582l10.613-39.002
	c43.252,11.767,83.472,34.282,116.316,65.113L430.798,182.873z"/>
<path style="fill:#98C8ED;" d="M101.053,459.777c12.607,9.601,26.132,18.057,40.421,25.219V215.579h-40.421V459.777z"/>
<path style="fill:#7AB9E8;" d="M370.526,484.996c14.289-7.16,27.814-15.617,40.421-25.219V215.579h-40.421V484.996z"/>
<rect x="80.842" y="195.368" style="fill:#A58868;" width="107.789" height="40.421"/>
<rect x="323.368" y="195.368" style="fill:#947859;" width="107.789" height="40.421"/>
<path style="fill:#E02753;" d="M256,335.495v122.611c37.206,0,67.368-42.227,67.368-94.316c0-9.859-1.085-19.362-3.09-28.295H256z"
	/>
<path style="fill:#F8F8F9;" d="M256,269.474c-30.515,0-56.28,28.413-64.563,67.368h129.126
	C312.28,297.887,286.515,269.474,256,269.474z"/>
<path style="fill:#EDEDED;" d="M256,269.474v67.368h64.563C312.28,297.887,286.515,269.474,256,269.474z"/>
<g>
</g>
<g>
</g>
<g>
</g>
<g>
</g>
<g>
</g>
<g>
</g>
<g>
</g>
<g>
</g>
<g>
</g>
<g>
</g>
<g>
</g>
<g>
</g>
<g>
</g>
<g>
</g>
<g>
</g>
</svg>
