<?xml version="1.0" encoding="iso-8859-1"?>
<!-- Generator: Adobe Illustrator 19.0.0, SVG Export Plug-In . SVG Version: 6.00 Build 0)  -->
<svg version="1.1" id="Layer_1" xmlns="http://www.w3.org/2000/svg" x="0px" y="0px"
     viewBox="0 0 512 512" style="enable-background:new 0 0 512 512;" xml:space="preserve">
<path style="fill:#C5142C;" d="M466.856,167.218C494.35,129.249,509.393,85.065,512,40.291c-3.312,3.929-6.805,7.756-10.506,11.457
	c-22.988,22.988-50.632,38.482-79.896,46.481"/>
<path style="fill:#E02753;" d="M90.401,98.231C61.137,90.231,33.494,74.737,10.506,51.75C6.805,48.048,3.312,44.221,0,40.293
	c2.609,44.776,17.651,88.961,45.146,126.93"/>
<circle style="fill:#E07188;" cx="256.002" cy="256.001" r="228.724"/>
<path style="fill:#E02753;" d="M256.001,27.275v457.447c126.32,0,228.724-102.403,228.724-228.724S382.321,27.275,256.001,27.275z"
	/>
<path style="fill:#58575D;" d="M201.829,286.094c-13.276,0-24.076-10.801-24.076-24.076c0-13.276,10.801-24.076,24.076-24.076
	c13.278,0,24.076,10.801,24.076,24.076C225.901,275.297,215.1,286.094,201.829,286.094z"/>
<g>
	<path style="fill:#454449;" d="M310.172,286.094c-13.276,0-24.076-10.801-24.076-24.076c0-13.276,10.801-24.076,24.076-24.076
		c13.278,0,24.076,10.801,24.076,24.076C334.243,275.297,323.443,286.094,310.172,286.094z"/>
	
		<rect x="316.165" y="115.786" transform="matrix(-0.4856 -0.8742 0.8742 -0.4856 341.1236 556.2488)" style="fill:#454449;" width="36.115" height="123.946"/>
</g>
<g>
	
		<rect x="115.794" y="159.694" transform="matrix(-0.8742 -0.4856 0.4856 -0.8742 246.854 419.4614)" style="fill:#58575D;" width="123.946" height="36.115"/>
	<path style="fill:#58575D;" d="M256.001,406.475c-47.898,0-89.899-25.983-112.353-69.505l32.095-16.557
		c16.377,31.743,45.629,49.948,80.257,49.948s63.88-18.205,80.257-49.95l32.095,16.56
		C345.897,380.492,303.897,406.475,256.001,406.475z"/>
</g>
<path style="fill:#454449;" d="M336.257,320.411c-16.377,31.744-45.63,49.95-80.257,49.95v36.114
	c47.897,0,89.898-25.983,112.353-69.504L336.257,320.411z"/>
<g>
</g>
<g>
</g>
<g>
</g>
<g>
</g>
<g>
</g>
<g>
</g>
<g>
</g>
<g>
</g>
<g>
</g>
<g>
</g>
<g>
</g>
<g>
</g>
<g>
</g>
<g>
</g>
<g>
</g>
</svg>
