<?xml version="1.0" encoding="iso-8859-1"?>
<!-- Generator: Adobe Illustrator 19.0.0, SVG Export Plug-In . SVG Version: 6.00 Build 0)  -->
<svg version="1.1" id="Layer_1" xmlns="http://www.w3.org/2000/svg" x="0px" y="0px"
     viewBox="0 0 512 512" style="enable-background:new 0 0 512 512;" xml:space="preserve">
<circle style="fill:#F8E99B;" cx="256" cy="256" r="256"/>
<path style="fill:#F6E27D;" d="M256,0v512c141.385,0,256-114.615,256-256S397.385,0,256,0z"/>
<path style="fill:#A58868;" d="M154.947,262.737c-14.859,0-26.947-12.089-26.947-26.947s12.089-26.947,26.947-26.947
	c14.86,0,26.947,12.089,26.947,26.947C181.889,250.651,169.801,262.737,154.947,262.737z"/>
<path style="fill:#947859;" d="M357.053,262.737c-14.859,0-26.947-12.089-26.947-26.947s12.089-26.947,26.947-26.947
	c14.86,0,26.947,12.089,26.947,26.947C383.995,250.651,371.906,262.737,357.053,262.737z"/>
<path style="fill:#A58868;" d="M94.676,196.347L67.01,166.876c32.843-30.829,73.065-53.345,116.316-65.113l10.613,39.002
	C157.04,150.804,122.716,170.023,94.676,196.347z"/>
<path style="fill:#947859;" d="M417.324,196.347c-28.04-26.322-62.366-45.542-99.263-55.582l10.613-39.002
	c43.252,11.767,83.472,34.282,116.316,65.113L417.324,196.347z"/>
<path style="fill:#E07188;" d="M374.961,398.879c14.799-16.834,4.174-48.039-30.88-60.785c-54.222-19.632-116.003-19.632-170.221,0
	c-35.057,12.752-45.677,43.962-30.88,60.785l0,0c14.72,17.257,39.89,21.581,60.977,14.529c35.149-12.276,74.88-12.276,110.029,0
	C335.07,420.46,360.242,416.139,374.961,398.879L374.961,398.879z"/>
<path style="fill:#E02753;" d="M344.08,338.079c-28.036-10.151-58.093-15.039-88.08-14.693v80.862
	c19.707-0.342,39.481,2.683,57.984,9.146c21.085,7.052,46.258,2.731,60.977-14.529C389.76,382.03,379.135,350.825,344.08,338.079z"
	/>
<g>
</g>
<g>
</g>
<g>
</g>
<g>
</g>
<g>
</g>
<g>
</g>
<g>
</g>
<g>
</g>
<g>
</g>
<g>
</g>
<g>
</g>
<g>
</g>
<g>
</g>
<g>
</g>
<g>
</g>
</svg>
