<?xml version="1.0" encoding="iso-8859-1"?>
<!-- Generator: Adobe Illustrator 19.0.0, SVG Export Plug-In . SVG Version: 6.00 Build 0)  -->
<svg version="1.1" id="Layer_1" xmlns="http://www.w3.org/2000/svg" x="0px" y="0px"
     viewBox="0 0 512 512" style="enable-background:new 0 0 512 512;" xml:space="preserve">
<circle style="fill:#F8E99B;" cx="256" cy="256" r="256"/>
<path style="fill:#F6E27D;" d="M256,0v512c141.385,0,256-114.615,256-256S397.385,0,256,0z"/>
<rect x="161.684" y="370.526" style="fill:#A58868;" width="188.632" height="40.421"/>
<rect x="256" y="370.526" style="fill:#947859;" width="94.316" height="40.421"/>
<path style="fill:#A58868;" d="M161.684,303.158c-31.357,0-61.658-14.971-62.933-15.607l18.035-36.175
	c0.23,0.113,23.243,11.361,44.898,11.361c21.573,0,44.629-11.226,44.857-11.341l18.076,36.154
	C223.342,288.187,193.042,303.158,161.684,303.158z"/>
<path style="fill:#947859;" d="M350.316,303.158c-31.357,0-61.658-14.971-62.933-15.607l18.035-36.175
	c0.23,0.113,23.243,11.361,44.898,11.361c21.573,0,44.63-11.226,44.857-11.341l18.076,36.154
	C411.974,288.187,381.673,303.158,350.316,303.158z"/>
<path style="fill:#A58868;" d="M76.71,234.435L58.027,198.59c41.608-21.687,78.909-52.731,107.872-89.775l31.844,24.897
	C165.251,175.27,123.399,210.101,76.71,234.435z"/>
<path style="fill:#947859;" d="M435.29,234.435c-46.689-24.336-88.541-59.166-121.033-100.724l31.844-24.897
	c28.963,37.046,66.264,68.089,107.872,89.775L435.29,234.435z"/>
<g>
</g>
<g>
</g>
<g>
</g>
<g>
</g>
<g>
</g>
<g>
</g>
<g>
</g>
<g>
</g>
<g>
</g>
<g>
</g>
<g>
</g>
<g>
</g>
<g>
</g>
<g>
</g>
<g>
</g>
</svg>
