<?xml version="1.0" encoding="iso-8859-1"?>
<!-- Generator: Adobe Illustrator 19.0.0, SVG Export Plug-In . SVG Version: 6.00 Build 0)  -->
<svg version="1.1" id="Layer_1" xmlns="http://www.w3.org/2000/svg" x="0px" y="0px"
     viewBox="0 0 512 512" style="enable-background:new 0 0 512 512;" xml:space="preserve">
<circle style="fill:#F8E99B;" cx="256" cy="256" r="256"/>
<path style="fill:#F6E27D;" d="M256,0v512c141.385,0,256-114.615,256-256S397.385,0,256,0z"/>
<g>
	<path style="fill:#A58868;" d="M207.78,410.158l-38.298-12.932c7.685-22.761,19.829-40.146,36.093-51.674
		c14.257-10.105,31.694-15.446,50.424-15.446c41.231,0,72.796,24.56,86.603,67.385l-38.471,12.404
		c-8.421-26.121-24.616-39.367-48.132-39.367C232.559,370.526,216.785,383.491,207.78,410.158z"/>
	<path style="fill:#A58868;" d="M121.623,311.156l-27.666-29.471c32.842-30.829,73.064-53.345,116.316-65.114l10.613,39.002
		C183.987,265.615,149.662,284.834,121.623,311.156z"/>
</g>
<g>
	<path style="fill:#947859;" d="M390.378,311.156c-28.043-26.322-62.367-45.542-99.265-55.582l10.613-39.002
		c43.252,11.768,83.472,34.284,116.314,65.114L390.378,311.156z"/>
	<path style="fill:#947859;" d="M256,330.105v40.421c23.516,0,39.711,13.246,48.133,39.367l38.471-12.404
		C328.796,354.665,297.231,330.105,256,330.105z"/>
</g>
<g>
</g>
<g>
</g>
<g>
</g>
<g>
</g>
<g>
</g>
<g>
</g>
<g>
</g>
<g>
</g>
<g>
</g>
<g>
</g>
<g>
</g>
<g>
</g>
<g>
</g>
<g>
</g>
<g>
</g>
</svg>
