<?xml version="1.0" encoding="iso-8859-1"?>
<!-- Generator: Adobe Illustrator 19.0.0, SVG Export Plug-In . SVG Version: 6.00 Build 0)  -->
<svg version="1.1" id="Layer_1" xmlns="http://www.w3.org/2000/svg" x="0px" y="0px"
     viewBox="0 0 512 512" style="enable-background:new 0 0 512 512;" xml:space="preserve">
<circle style="fill:#F8E99B;" cx="256" cy="256" r="256"/>
<path style="fill:#F6E27D;" d="M256,0v512c141.385,0,256-114.615,256-256S397.385,0,256,0z"/>
<path style="fill:#A58868;" d="M195.368,262.737c-14.859,0-26.947-12.089-26.947-26.947s12.089-26.947,26.947-26.947
	c14.861,0,26.947,12.089,26.947,26.947C222.31,250.651,210.222,262.737,195.368,262.737z"/>
<path style="fill:#947859;" d="M316.632,262.737c-14.859,0-26.947-12.089-26.947-26.947s12.089-26.947,26.947-26.947
	c14.86,0,26.947,12.089,26.947,26.947C343.574,250.651,331.485,262.737,316.632,262.737z"/>
<path style="fill:#A58868;" d="M108.148,196.347l-27.664-29.471c32.842-30.829,73.064-53.345,116.316-65.113l10.612,39.002
	C170.514,150.804,136.189,170.023,108.148,196.347z"/>
<path style="fill:#947859;" d="M403.851,196.347c-28.04-26.322-62.366-45.542-99.263-55.582l10.613-39.002
	c43.252,11.767,83.472,34.282,116.316,65.113L403.851,196.347z"/>
<path style="fill:#A58868;" d="M166.172,413.478l-35.922-18.534c25.132-48.711,72.142-77.793,125.751-77.793
	c53.61,0,100.62,29.082,125.75,77.794l-35.921,18.532c-18.33-35.529-51.071-55.905-89.829-55.905
	C217.243,357.571,184.502,377.949,166.172,413.478z"/>
<g>
</g>
<g>
</g>
<g>
</g>
<g>
</g>
<g>
</g>
<g>
</g>
<g>
</g>
<g>
</g>
<g>
</g>
<g>
</g>
<g>
</g>
<g>
</g>
<g>
</g>
<g>
</g>
<g>
</g>
</svg>
