<?xml version="1.0" encoding="iso-8859-1"?>
<!-- Generator: Adobe Illustrator 19.0.0, SVG Export Plug-In . SVG Version: 6.00 Build 0)  -->
<svg version="1.1" id="Layer_1" xmlns="http://www.w3.org/2000/svg" x="0px" y="0px"
     viewBox="0 0 512 512" style="enable-background:new 0 0 512 512;" xml:space="preserve">
<circle style="fill:#F8E99B;" cx="256" cy="256" r="256"/>
<path style="fill:#F6E27D;" d="M256,0v512c141.385,0,256-114.615,256-256S397.385,0,256,0z"/>
<path style="fill:#A58868;" d="M256,423.902c-41.229,0-72.796-24.561-86.603-67.385l38.471-12.404
	c8.422,26.123,24.616,39.367,48.133,39.367c23.442,0,39.215-12.963,48.22-39.632l38.298,12.932
	c-7.687,22.761-19.829,40.146-36.093,51.674C292.167,418.561,274.731,423.902,256,423.902z"/>
<path style="fill:#E07188;" d="M141.474,303.158c0-3.72-0.503-7.324-1.444-10.745c-0.939-3.425-2.317-6.667-4.069-9.666
	c-7.96-11.926-20.087-21.357-34.9-20.033c-3.724,0.015-7.33,0.521-10.753,1.466c-17.108,4.706-29.676,20.375-29.676,38.978
	c0,22.323,18.098,40.421,40.421,40.421S141.474,325.481,141.474,303.158z"/>
<circle style="fill:#E02753;" cx="410.947" cy="303.158" r="40.421"/>
<g>
	<path style="fill:#A58868;" d="M88.934,166.73L72.75,129.691c40.422-17.664,100.314-28.638,156.303-28.638v40.421
		C179.044,141.474,124.043,151.388,88.934,166.73z"/>
	<path style="fill:#A58868;" d="M140.819,233.857l-11.923-38.622c43.213-13.34,72.161-13.34,100.157-13.34v40.421
		C202.904,222.316,178.207,222.316,140.819,233.857z"/>
</g>
<g>
	<path style="fill:#947859;" d="M423.066,166.73c-35.11-15.342-90.109-25.256-140.118-25.256v-40.421
		c55.989,0,115.88,10.974,156.303,28.638L423.066,166.73z"/>
	<path style="fill:#947859;" d="M371.181,233.857c-37.388-11.542-62.085-11.542-88.234-11.542v-40.421
		c27.996,0,56.944,0,100.157,13.34L371.181,233.857z"/>
	<path style="fill:#947859;" d="M304.22,343.85c-9.004,26.668-24.778,39.631-48.22,39.631v40.421
		c18.731,0,36.167-5.341,50.424-15.446c16.264-11.528,28.407-28.913,36.093-51.674L304.22,343.85z"/>
</g>
<g>
</g>
<g>
</g>
<g>
</g>
<g>
</g>
<g>
</g>
<g>
</g>
<g>
</g>
<g>
</g>
<g>
</g>
<g>
</g>
<g>
</g>
<g>
</g>
<g>
</g>
<g>
</g>
<g>
</g>
</svg>
