<?xml version="1.0" encoding="iso-8859-1"?>
<!-- Generator: Adobe Illustrator 19.0.0, SVG Export Plug-In . SVG Version: 6.00 Build 0)  -->
<svg version="1.1" id="Layer_1" xmlns="http://www.w3.org/2000/svg" x="0px" y="0px"
     viewBox="0 0 512 512" style="enable-background:new 0 0 512 512;" xml:space="preserve">
<circle style="fill:#F8E99B;" cx="256" cy="256" r="256"/>
<path style="fill:#F6E27D;" d="M256,0v512c141.385,0,256-114.615,256-256S397.385,0,256,0z"/>
<path style="fill:#A58868;" d="M235.789,202.105h-40.421c0-11.144-9.066-20.211-20.211-20.211c-11.144,0-20.211,9.066-20.211,20.211
	h-40.421c0-33.432,27.199-60.632,60.632-60.632S235.789,168.673,235.789,202.105z"/>
<path style="fill:#947859;" d="M397.474,202.105h-40.421c0-11.144-9.065-20.211-20.211-20.211c-11.144,0-20.211,9.066-20.211,20.211
	h-40.421c0-33.432,27.198-60.632,60.632-60.632S397.474,168.673,397.474,202.105z"/>
<path style="fill:#A58868;" d="M256,424.421c-53.61,0-100.62-29.083-125.75-77.794l35.921-18.533
	C184.502,363.622,217.242,384,256,384c38.757,0,71.497-20.378,89.829-55.906l35.921,18.533
	C356.619,395.339,309.608,424.421,256,424.421z"/>
<circle style="fill:#E07188;" cx="94.316" cy="282.947" r="40.421"/>
<circle style="fill:#E02753;" cx="417.684" cy="282.947" r="40.421"/>
<path style="fill:#947859;" d="M345.829,328.094C327.497,363.622,294.757,384,256,384v40.421c53.608,0,100.619-29.082,125.75-77.794
	L345.829,328.094z"/>
<g>
</g>
<g>
</g>
<g>
</g>
<g>
</g>
<g>
</g>
<g>
</g>
<g>
</g>
<g>
</g>
<g>
</g>
<g>
</g>
<g>
</g>
<g>
</g>
<g>
</g>
<g>
</g>
<g>
</g>
</svg>
