<?xml version="1.0" encoding="iso-8859-1"?>
<!-- Generator: Adobe Illustrator 19.0.0, SVG Export Plug-In . SVG Version: 6.00 Build 0)  -->
<svg version="1.1" id="Layer_1" xmlns="http://www.w3.org/2000/svg" x="0px" y="0px"
     viewBox="0 0 512 512" style="enable-background:new 0 0 512 512;" xml:space="preserve">
<circle style="fill:#F8E99B;" cx="256" cy="256" r="256"/>
<path style="fill:#F6E27D;" d="M256,0v512c141.385,0,256-114.615,256-256S397.385,0,256,0z"/>
<circle style="fill:#F8F8F9;" cx="154.947" cy="249.263" r="60.632"/>
<g>
	<circle style="fill:#A58868;" cx="154.947" cy="249.263" r="20.211"/>
	<rect x="202.105" y="384" style="fill:#A58868;" width="107.789" height="40.421"/>
</g>
<rect x="256" y="384" style="fill:#947859;" width="53.895" height="40.421"/>
<path style="fill:#A58868;" d="M51.859,198.737l-35.005-20.211c21.734-37.645,56.828-64.573,98.816-75.823
	c41.989-11.252,85.845-5.477,123.488,16.257l-20.211,35.005c-28.296-16.335-61.257-20.677-92.816-12.219
	C94.572,150.203,68.196,170.442,51.859,198.737z"/>
<path style="fill:#947859;" d="M460.142,198.737c-33.723-58.41-108.679-78.495-167.09-44.772l-20.211-35.005
	c77.711-44.869,177.438-18.146,222.305,59.566L460.142,198.737z"/>
<circle style="fill:#EDEDED;" cx="357.053" cy="249.263" r="60.632"/>
<circle style="fill:#947859;" cx="357.053" cy="249.263" r="20.211"/>
<circle style="fill:#E07188;" cx="121.263" cy="390.737" r="40.421"/>
<circle style="fill:#E02753;" cx="390.737" cy="390.737" r="40.421"/>
<g>
</g>
<g>
</g>
<g>
</g>
<g>
</g>
<g>
</g>
<g>
</g>
<g>
</g>
<g>
</g>
<g>
</g>
<g>
</g>
<g>
</g>
<g>
</g>
<g>
</g>
<g>
</g>
<g>
</g>
</svg>
