<?xml version="1.0" encoding="iso-8859-1"?>
<!-- Generator: Adobe Illustrator 19.0.0, SVG Export Plug-In . SVG Version: 6.00 Build 0)  -->
<svg version="1.1" id="Layer_1" xmlns="http://www.w3.org/2000/svg" x="0px" y="0px"
     viewBox="0 0 512 512" style="enable-background:new 0 0 512 512;" xml:space="preserve">
<circle style="fill:#F8E99B;" cx="256" cy="256" r="256"/>
<path style="fill:#F6E27D;" d="M256,0v512c141.385,0,256-114.615,256-256S397.385,0,256,0z"/>
<path style="fill:#F8F8F9;" d="M431.158,256c0,0-67.368,6.737-175.158,6.737S80.842,256,80.842,256
	c0,27.017,6.122,52.603,17.046,75.453h316.223C425.037,308.603,431.158,283.017,431.158,256z"/>
<path style="fill:#EDEDED;" d="M431.158,256c0,0-67.368,6.737-175.158,6.737v68.716h158.112
	C425.037,308.603,431.158,283.017,431.158,256z"/>
<path style="fill:#E07188;" d="M97.26,330.105c27.913,59.692,88.492,101.053,158.74,101.053s130.827-41.36,158.74-101.053H97.26z"/>
<path style="fill:#E02753;" d="M256,330.105v101.053c70.249,0,130.827-41.36,158.74-101.053H256z"/>
<path style="fill:#A58868;" d="M195.368,202.105c-14.859,0-26.947-12.089-26.947-26.947s12.089-26.947,26.947-26.947
	c14.861,0,26.947,12.089,26.947,26.947C222.31,190.019,210.222,202.105,195.368,202.105z"/>
<path style="fill:#947859;" d="M316.632,202.105c-14.859,0-26.947-12.089-26.947-26.947s12.089-26.947,26.947-26.947
	c14.86,0,26.947,12.089,26.947,26.947C343.574,190.019,331.485,202.105,316.632,202.105z"/>
<g>
</g>
<g>
</g>
<g>
</g>
<g>
</g>
<g>
</g>
<g>
</g>
<g>
</g>
<g>
</g>
<g>
</g>
<g>
</g>
<g>
</g>
<g>
</g>
<g>
</g>
<g>
</g>
<g>
</g>
</svg>
