<?xml version="1.0" encoding="iso-8859-1"?>
<!-- Generator: Adobe Illustrator 19.0.0, SVG Export Plug-In . SVG Version: 6.00 Build 0)  -->
<svg version="1.1" id="Layer_1" xmlns="http://www.w3.org/2000/svg" x="0px" y="0px"
     viewBox="0 0 512 512" style="enable-background:new 0 0 512 512;" xml:space="preserve">
<circle style="fill:#F8E99B;" cx="256" cy="256" r="256"/>
<path style="fill:#F6E27D;" d="M256,0v512c141.385,0,256-114.615,256-256S397.385,0,256,0z"/>
<path style="fill:#A58868;" d="M173.811,218.274l-24.253-32.337c17.682-13.272,35.486-28.951,43.168-37.726
	c-7.683-8.775-25.485-24.455-43.171-37.728l24.255-32.336c0.575,0.431,14.243,10.701,28.129,22.853
	c28.187,24.665,33.85,36.349,33.85,47.21c0,10.861-5.663,22.546-33.85,47.21C188.054,207.573,174.386,217.843,173.811,218.274z"/>
<path style="fill:#947859;" d="M338.189,218.274c-0.575-0.431-14.243-10.701-28.129-22.853c-28.187-24.665-33.85-36.349-33.85-47.21
	c0-10.861,5.663-22.546,33.85-47.21c13.886-12.152,27.554-22.422,28.129-22.853l24.253,32.337
	c-17.683,13.272-35.486,28.951-43.168,37.726c7.683,8.775,25.486,24.455,43.171,37.729L338.189,218.274z"/>
<path style="fill:#F8F8F9;" d="M431.158,256c0,0-67.368,6.737-175.158,6.737S80.842,256,80.842,256
	c0,27.017,6.121,52.603,17.046,75.453h316.223C425.037,308.603,431.158,283.017,431.158,256z"/>
<path style="fill:#EDEDED;" d="M431.158,256c0,0-67.368,6.737-175.158,6.737v68.716h158.112
	C425.037,308.603,431.158,283.017,431.158,256z"/>
<path style="fill:#E07188;" d="M97.26,330.105c27.913,59.692,88.492,101.053,158.74,101.053s130.827-41.36,158.74-101.053H97.26z"/>
<path style="fill:#E02753;" d="M256,330.105v101.053c70.249,0,130.827-41.36,158.74-101.053H256z"/>
<g>
</g>
<g>
</g>
<g>
</g>
<g>
</g>
<g>
</g>
<g>
</g>
<g>
</g>
<g>
</g>
<g>
</g>
<g>
</g>
<g>
</g>
<g>
</g>
<g>
</g>
<g>
</g>
<g>
</g>
</svg>
