<?xml version="1.0" encoding="iso-8859-1"?>
<!-- Generator: Adobe Illustrator 19.0.0, SVG Export Plug-In . SVG Version: 6.00 Build 0)  -->
<svg version="1.1" id="Layer_1" xmlns="http://www.w3.org/2000/svg" x="0px" y="0px"
     viewBox="0 0 512 512" style="enable-background:new 0 0 512 512;" xml:space="preserve">
<circle style="fill:#F8E99B;" cx="256" cy="256" r="256"/>
<path style="fill:#F6E27D;" d="M256,0v512c141.385,0,256-114.615,256-256S397.385,0,256,0z"/>
<path style="fill:#E07188;" d="M202.105,163.996c-14.882-0.001-26.947,12.064-26.947,26.947c0-14.883-12.063-26.947-26.947-26.947
	c-14.882,0-26.946,12.064-26.946,26.947c0,7.442,3.015,14.178,7.892,19.054L175.158,256l46.003-46.002
	c4.876-4.876,7.892-11.613,7.892-19.054C229.053,176.061,216.988,163.996,202.105,163.996z"/>
<path style="fill:#E02753;" d="M363.788,163.996c-14.882-0.001-26.947,12.064-26.947,26.947c0-14.883-12.063-26.947-26.947-26.947
	c-14.882,0-26.946,12.064-26.946,26.947c0,7.442,3.015,14.178,7.892,19.054L336.841,256l46.003-46.002
	c4.876-4.876,7.892-11.613,7.892-19.054C390.736,176.061,378.671,163.996,363.788,163.996z"/>
<path style="fill:#E07188;" d="M89.305,309.895C112.038,380.258,178.07,431.158,256,431.158c77.932,0,143.964-50.9,166.696-121.263
	c0,0-85.854,6.737-166.696,6.737S89.305,309.895,89.305,309.895z"/>
<path style="fill:#E02753;" d="M256,316.632v114.526c77.932,0,143.964-50.9,166.696-121.263
	C422.696,309.895,336.842,316.632,256,316.632z"/>
<g>
</g>
<g>
</g>
<g>
</g>
<g>
</g>
<g>
</g>
<g>
</g>
<g>
</g>
<g>
</g>
<g>
</g>
<g>
</g>
<g>
</g>
<g>
</g>
<g>
</g>
<g>
</g>
<g>
</g>
</svg>
