<?xml version="1.0" encoding="iso-8859-1"?>
<!-- Generator: Adobe Illustrator 19.0.0, SVG Export Plug-In . SVG Version: 6.00 Build 0)  -->
<svg version="1.1" id="Layer_1" xmlns="http://www.w3.org/2000/svg" x="0px" y="0px"
     viewBox="0 0 512 512" style="enable-background:new 0 0 512 512;" xml:space="preserve">
<circle style="fill:#F8E99B;" cx="256" cy="256" r="256"/>
<path style="fill:#F6E27D;" d="M256,0v512c141.385,0,256-114.615,256-256S397.385,0,256,0z"/>
<g>
	<path style="fill:#A58868;" d="M249.263,424.421h-13.474V384h13.474c7.429,0,13.474-6.044,13.474-13.474
		c0-3.716-1.461-6.442-2.685-8.073l-9.118-12.137l9.118-12.137c1.225-1.632,2.685-4.356,2.685-8.073
		c0-7.429-6.044-13.474-13.474-13.474h-13.474v-40.421h13.474c29.718,0,53.895,24.177,53.895,53.895
		c0,7.031-1.331,13.852-3.909,20.211c2.578,6.358,3.909,13.18,3.909,20.211C303.158,400.244,278.981,424.421,249.263,424.421z"/>
	<path style="fill:#A58868;" d="M123.955,227.708l-32.334-24.255c0.431-0.575,10.702-14.243,22.853-28.129
		c24.664-28.187,36.349-33.85,47.21-33.85c10.861,0,22.547,5.663,47.21,33.85c12.151,13.886,22.422,27.554,22.853,28.129
		l-32.337,24.253c-13.272-17.683-28.952-35.486-37.726-43.168C152.91,192.22,137.228,210.022,123.955,227.708z"/>
</g>
<path style="fill:#947859;" d="M312.588,227.708l-32.335-24.255c0.431-0.575,10.701-14.243,22.853-28.129
	c24.665-28.187,36.349-33.85,47.21-33.85c10.86,0,22.546,5.663,47.21,33.85c12.152,13.886,22.422,27.554,22.853,28.129
	l-32.337,24.253c-13.272-17.683-28.951-35.486-37.726-43.168C341.54,192.22,325.861,210.022,312.588,227.708z"/>
<g>
</g>
<g>
</g>
<g>
</g>
<g>
</g>
<g>
</g>
<g>
</g>
<g>
</g>
<g>
</g>
<g>
</g>
<g>
</g>
<g>
</g>
<g>
</g>
<g>
</g>
<g>
</g>
<g>
</g>
</svg>
