<?xml version="1.0" encoding="iso-8859-1"?>
<!-- Generator: Adobe Illustrator 19.0.0, SVG Export Plug-In . SVG Version: 6.00 Build 0)  -->
<svg version="1.1" id="Layer_1" xmlns="http://www.w3.org/2000/svg" x="0px" y="0px"
     viewBox="0 0 512 512" style="enable-background:new 0 0 512 512;" xml:space="preserve">
<circle style="fill:#F8E99B;" cx="256" cy="256" r="256"/>
<path style="fill:#F6E27D;" d="M256,0v512c141.385,0,256-114.615,256-256S397.385,0,256,0z"/>
<path style="fill:#947859;" d="M373.744,257.842c-30.51-5.772-55.801-8.579-77.323-8.579v-40.421
	c24.071,0,51.821,3.036,84.836,9.282L373.744,257.842z"/>
<ellipse style="fill:#A58868;" cx="192" cy="229.053" rx="23.579" ry="40.421"/>
<path style="fill:#947859;" d="M423.064,216.263c-38.889-16.994-80.314-25.256-126.643-25.256v-40.421
	c52.012,0,98.732,9.368,142.831,28.638L423.064,216.263z"/>
<path style="fill:#A58868;" d="M117.749,213.648l-29.666-27.455c32.687-35.319,71.742-62.615,119.401-83.449l16.19,37.036
	C181.224,158.339,146.575,182.501,117.749,213.648z"/>
<path style="fill:#E02753;" d="M414.216,344.735c-10.523-10.523-27.586-10.524-38.109,0c10.523-10.524,10.524-27.585,0-38.109
	c-10.523-10.523-27.585-10.522-38.108,0.001c-5.261,5.261-7.893,12.157-7.893,19.054v65.055h65.056
	c6.896,0,13.792-2.631,19.054-7.893C424.739,372.321,424.739,355.258,414.216,344.735z"/>
<path style="fill:#A58868;" d="M249.263,451.368h-13.474v-40.421h13.474c7.429,0,13.474-6.044,13.474-13.474
	c0-3.716-1.461-6.442-2.685-8.073l-9.118-12.137l9.118-12.137c1.225-1.632,2.685-4.356,2.685-8.073
	c0-7.429-6.044-13.474-13.474-13.474h-13.474v-40.421h13.474c29.718,0,53.895,24.177,53.895,53.895
	c0,7.031-1.331,13.852-3.909,20.211c2.578,6.358,3.909,13.18,3.909,20.211C303.158,427.191,278.981,451.368,249.263,451.368z"/>
<g>
</g>
<g>
</g>
<g>
</g>
<g>
</g>
<g>
</g>
<g>
</g>
<g>
</g>
<g>
</g>
<g>
</g>
<g>
</g>
<g>
</g>
<g>
</g>
<g>
</g>
<g>
</g>
<g>
</g>
</svg>
