<?xml version="1.0" encoding="iso-8859-1"?>
<!-- Generator: Adobe Illustrator 19.0.0, SVG Export Plug-In . SVG Version: 6.00 Build 0)  -->
<svg version="1.1" id="Layer_1" xmlns="http://www.w3.org/2000/svg" x="0px" y="0px"
     viewBox="0 0 512 512" style="enable-background:new 0 0 512 512;" xml:space="preserve">
<circle style="fill:#F8E99B;" cx="256" cy="256" r="256"/>
<path style="fill:#F6E27D;" d="M256,0v512c141.385,0,256-114.615,256-256S397.385,0,256,0z"/>
<path style="fill:#A58868;" d="M249.263,451.368h-13.474v-40.421h13.474c7.429,0,13.474-6.044,13.474-13.474
	c0-3.716-1.461-6.442-2.687-8.073l-9.116-12.137l9.116-12.137c1.226-1.632,2.687-4.356,2.687-8.073
	c0-7.429-6.044-13.474-13.474-13.474H235.79v-40.421h13.474c29.718,0,53.895,24.177,53.895,53.895
	c0,7.031-1.331,13.852-3.909,20.211c2.578,6.358,3.909,13.18,3.909,20.211C303.158,427.191,278.981,451.368,249.263,451.368z"/>
<circle style="fill:#E07188;" cx="121.263" cy="323.368" r="40.421"/>
<circle style="fill:#E02753;" cx="390.737" cy="323.368" r="40.421"/>
<g>
	<path style="fill:#A58868;" d="M88.934,180.204l-16.186-37.038c40.424-17.665,100.316-28.64,156.304-28.64v40.421
		C179.044,154.947,124.043,164.861,88.934,180.204z"/>
	<path style="fill:#A58868;" d="M140.819,247.331l-11.923-38.622c43.213-13.34,72.161-13.34,100.157-13.34v40.421
		C202.904,235.789,178.207,235.789,140.819,247.331z"/>
</g>
<g>
	<path style="fill:#947859;" d="M423.066,180.204c-35.11-15.342-90.109-25.256-140.118-25.256v-40.421
		c55.989,0,115.88,10.974,156.303,28.638L423.066,180.204z"/>
	<path style="fill:#947859;" d="M371.181,247.331c-37.388-11.542-62.085-11.542-88.234-11.542v-40.421
		c27.996,0,56.944,0,100.157,13.34L371.181,247.331z"/>
</g>
<g>
</g>
<g>
</g>
<g>
</g>
<g>
</g>
<g>
</g>
<g>
</g>
<g>
</g>
<g>
</g>
<g>
</g>
<g>
</g>
<g>
</g>
<g>
</g>
<g>
</g>
<g>
</g>
<g>
</g>
</svg>
