<?xml version="1.0" encoding="iso-8859-1"?>
<!-- Generator: Adobe Illustrator 19.0.0, SVG Export Plug-In . SVG Version: 6.00 Build 0)  -->
<svg version="1.1" id="Layer_1" xmlns="http://www.w3.org/2000/svg" x="0px" y="0px"
     viewBox="0 0 512 512" style="enable-background:new 0 0 512 512;" xml:space="preserve">
<circle style="fill:#F8E99B;" cx="256" cy="256" r="256"/>
<path style="fill:#F6E27D;" d="M256,0v512c141.385,0,256-114.615,256-256S397.385,0,256,0z"/>
<g>
	<path style="fill:#A58868;" d="M249.263,424.421h-13.474V384h13.474c7.429,0,13.474-6.044,13.474-13.474
		c0-3.716-1.461-6.442-2.687-8.073l-9.116-12.137l9.116-12.137c1.226-1.632,2.687-4.356,2.687-8.073
		c0-7.429-6.044-13.474-13.474-13.474H235.79v-40.421h13.474c29.718,0,53.895,24.177,53.895,53.895
		c0,7.031-1.331,13.852-3.909,20.211c2.578,6.358,3.909,13.18,3.909,20.211C303.158,400.244,278.981,424.421,249.263,424.421z"/>
	<path style="fill:#A58868;" d="M181.895,222.316c-14.859,0-26.947-12.089-26.947-26.947s12.089-26.947,26.947-26.947
		c14.861,0,26.947,12.089,26.947,26.947C208.837,210.23,196.748,222.316,181.895,222.316z"/>
</g>
<path style="fill:#947859;" d="M330.105,222.316c-14.859,0-26.947-12.089-26.947-26.947s12.089-26.947,26.947-26.947
	c14.861,0,26.947,12.089,26.947,26.947C357.047,210.23,344.959,222.316,330.105,222.316z"/>
<g>
</g>
<g>
</g>
<g>
</g>
<g>
</g>
<g>
</g>
<g>
</g>
<g>
</g>
<g>
</g>
<g>
</g>
<g>
</g>
<g>
</g>
<g>
</g>
<g>
</g>
<g>
</g>
<g>
</g>
</svg>
