<?xml version="1.0" encoding="iso-8859-1"?>
<!-- Generator: Adobe Illustrator 19.0.0, SVG Export Plug-In . SVG Version: 6.00 Build 0)  -->
<svg version="1.1" id="Layer_1" xmlns="http://www.w3.org/2000/svg" x="0px" y="0px"
     viewBox="0 0 512 512" style="enable-background:new 0 0 512 512;" xml:space="preserve">
<circle style="fill:#F8E99B;" cx="256" cy="256" r="243.2"/>
<path style="fill:#F6E27D;" d="M256,12.8v486.4c134.315,0,243.2-108.884,243.2-243.2S390.315,12.8,256,12.8z"/>
<path style="fill:#A58868;" d="M115.54,160.929L89.26,132.932c31.2-29.288,69.411-50.678,110.5-61.857l10.081,37.052
	C174.788,117.664,142.18,135.922,115.54,160.929z"/>
<path style="fill:#947859;" d="M396.458,160.929c-26.638-25.006-59.247-43.265-94.3-52.803l10.083-37.052
	c41.089,11.178,79.299,32.568,110.5,61.857L396.458,160.929z"/>
<path style="fill:#98C8ED;" d="M0,230.4c0,21.207,17.193,38.4,38.4,38.4s38.4-17.193,38.4-38.4V192H38.399
	C17.193,192-0.001,209.193,0,230.4z"/>
<path style="fill:#7AB9E8;" d="M473.6,268.8c21.207,0,38.4-17.193,38.4-38.4c0-21.206-17.193-38.4-38.4-38.399L435.2,192v38.401
	C435.2,251.607,452.393,268.801,473.6,268.8z"/>
<rect x="128" y="172.8" style="fill:#A58868;" width="102.4" height="38.4"/>
<rect x="281.6" y="172.8" style="fill:#947859;" width="102.4" height="38.4"/>
<path style="fill:#F8F8F9;" d="M422.4,256c0,0-64,6.4-166.4,6.4S89.6,256,89.6,256c0,25.667,5.816,49.972,16.193,71.68h300.412
	C416.585,305.972,422.4,281.667,422.4,256z"/>
<path style="fill:#EDEDED;" d="M422.4,256c0,0-64,6.4-166.4,6.4v65.28h150.207C416.585,305.972,422.4,281.667,422.4,256z"/>
<path style="fill:#E07188;" d="M105.197,326.4c26.518,56.708,84.068,96,150.803,96s124.285-39.292,150.803-96H105.197z"/>
<path style="fill:#E02753;" d="M256,326.4v96c66.737,0,124.285-39.292,150.803-96H256z"/>
<g>
</g>
<g>
</g>
<g>
</g>
<g>
</g>
<g>
</g>
<g>
</g>
<g>
</g>
<g>
</g>
<g>
</g>
<g>
</g>
<g>
</g>
<g>
</g>
<g>
</g>
<g>
</g>
<g>
</g>
</svg>
