<?xml version="1.0" encoding="iso-8859-1"?>
<!-- Generator: Adobe Illustrator 19.0.0, SVG Export Plug-In . SVG Version: 6.00 Build 0)  -->
<svg version="1.1" id="Layer_1" xmlns="http://www.w3.org/2000/svg" x="0px" y="0px"
     viewBox="0 0 512 512" style="enable-background:new 0 0 512 512;" xml:space="preserve">
<circle style="fill:#F8E99B;" cx="256" cy="256" r="256"/>
<path style="fill:#F6E27D;" d="M256,0v512c141.385,0,256-114.615,256-256S397.385,0,256,0z"/>
<path style="fill:#A58868;" d="M161.683,303.157c-31.357,0-61.658-14.971-62.933-15.607l18.035-36.175
	c0.229,0.115,23.243,11.361,44.898,11.361c21.573,0,44.63-11.226,44.857-11.341l18.076,36.154
	C223.341,288.187,193.04,303.157,161.683,303.157z"/>
<path style="fill:#947859;" d="M350.314,303.157c-31.357,0-61.658-14.971-62.933-15.607l18.035-36.175
	c0.229,0.115,23.243,11.361,44.898,11.361c21.573,0,44.63-11.226,44.857-11.341l18.076,36.154
	C411.973,288.187,381.672,303.157,350.314,303.157z"/>
<path style="fill:#A58868;" d="M96.764,228.961L64.92,204.066c32.492-41.56,74.344-76.389,121.033-100.724l18.683,35.845
	C163.028,160.872,125.726,191.916,96.764,228.961z"/>
<path style="fill:#947859;" d="M415.236,228.961c-28.963-37.046-66.264-68.089-107.872-89.775l18.683-35.845
	c46.689,24.336,88.541,59.166,121.033,100.724L415.236,228.961z"/>
<path style="fill:#A58868;" d="M256,423.902c-41.229,0-72.796-24.561-86.603-67.385l38.471-12.403
	c8.422,26.121,24.616,39.367,48.133,39.367c23.442,0,39.215-12.963,48.22-39.632l38.298,12.932
	c-7.687,22.761-19.829,40.146-36.093,51.674C292.167,418.561,274.731,423.902,256,423.902z"/>
<path style="fill:#947859;" d="M304.22,343.85c-9.004,26.668-24.778,39.631-48.22,39.631h-0.001v40.421H256
	c18.731,0,36.167-5.341,50.424-15.446c16.264-11.528,28.407-28.913,36.093-51.674L304.22,343.85z"/>
<g>
</g>
<g>
</g>
<g>
</g>
<g>
</g>
<g>
</g>
<g>
</g>
<g>
</g>
<g>
</g>
<g>
</g>
<g>
</g>
<g>
</g>
<g>
</g>
<g>
</g>
<g>
</g>
<g>
</g>
</svg>
