<?xml version="1.0" encoding="iso-8859-1"?>
<!-- Generator: Adobe Illustrator 19.0.0, SVG Export Plug-In . SVG Version: 6.00 Build 0)  -->
<svg version="1.1" id="Layer_1" xmlns="http://www.w3.org/2000/svg" x="0px" y="0px"
     viewBox="0 0 512 512" style="enable-background:new 0 0 512 512;" xml:space="preserve">
<circle style="fill:#F8E99B;" cx="256" cy="256" r="256"/>
<path style="fill:#F6E27D;" d="M256,0v512c141.385,0,256-114.615,256-256S397.385,0,256,0z"/>
<path style="fill:#A58868;" d="M168.421,235.789c-14.859,0-26.947-12.089-26.947-26.947s12.089-26.947,26.947-26.947
	c14.861,0,26.947,12.089,26.947,26.947C195.363,223.704,183.274,235.789,168.421,235.789z"/>
<path style="fill:#947859;" d="M343.579,235.789c-14.859,0-26.947-12.089-26.947-26.947s12.089-26.947,26.947-26.947
	c14.861,0,26.947,12.089,26.947,26.947C370.521,223.704,358.432,235.789,343.579,235.789z"/>
<path style="fill:#A58868;" d="M342.859,398.487c-24.076-31.916-59.795-46.464-97.99-39.902l-79.892,13.188l-6.583-39.882
	l79.766-13.167c52.706-9.041,103.962,11.663,136.971,55.421L342.859,398.487z"/>
<path style="fill:#947859;" d="M256,316.805v40.463c33.942-2.226,65.14,12.427,86.859,41.219l32.27-24.343
	C345.861,335.347,302.248,314.693,256,316.805z"/>
<g>
</g>
<g>
</g>
<g>
</g>
<g>
</g>
<g>
</g>
<g>
</g>
<g>
</g>
<g>
</g>
<g>
</g>
<g>
</g>
<g>
</g>
<g>
</g>
<g>
</g>
<g>
</g>
<g>
</g>
</svg>
