<?xml version="1.0" encoding="iso-8859-1"?>
<!-- Generator: Adobe Illustrator 19.0.0, SVG Export Plug-In . SVG Version: 6.00 Build 0)  -->
<svg version="1.1" id="Layer_1" xmlns="http://www.w3.org/2000/svg" x="0px" y="0px"
     viewBox="0 0 512 512" style="enable-background:new 0 0 512 512;" xml:space="preserve">
<circle style="fill:#F8E99B;" cx="256" cy="256" r="256"/>
<path style="fill:#F6E27D;" d="M256,0v512c141.385,0,256-114.615,256-256S397.385,0,256,0z"/>
<path style="fill:#A58868;" d="M154.947,276.211c-14.859,0-26.947-12.089-26.947-26.947s12.089-26.947,26.947-26.947
	c14.861,0,26.947,12.089,26.947,26.947C181.889,264.125,169.801,276.211,154.947,276.211z"/>
<path style="fill:#947859;" d="M357.053,276.211c-14.859,0-26.947-12.089-26.947-26.947s12.089-26.947,26.947-26.947
	c14.86,0,26.947,12.089,26.947,26.947C383.995,264.125,371.906,276.211,357.053,276.211z"/>
<path style="fill:#A58868;" d="M94.674,209.82L67.01,180.349c32.842-30.829,73.064-53.345,116.316-65.113l10.612,39.002
	C157.04,164.278,122.716,183.497,94.674,209.82z"/>
<path style="fill:#947859;" d="M417.324,209.82c-28.04-26.322-62.366-45.542-99.263-55.582l10.613-39.002
	c43.252,11.767,83.472,34.282,116.316,65.113L417.324,209.82z"/>
<circle style="fill:#E07188;" cx="256" cy="377.263" r="40.421"/>
<path style="fill:#E02753;" d="M256,336.842v80.842c22.323,0,40.421-18.098,40.421-40.421
	C296.421,354.94,278.323,336.842,256,336.842z"/>
<g>
</g>
<g>
</g>
<g>
</g>
<g>
</g>
<g>
</g>
<g>
</g>
<g>
</g>
<g>
</g>
<g>
</g>
<g>
</g>
<g>
</g>
<g>
</g>
<g>
</g>
<g>
</g>
<g>
</g>
</svg>
