<?xml version="1.0" encoding="iso-8859-1"?>
<!-- Generator: Adobe Illustrator 19.0.0, SVG Export Plug-In . SVG Version: 6.00 Build 0)  -->
<svg version="1.1" id="Layer_1" xmlns="http://www.w3.org/2000/svg" x="0px" y="0px"
     viewBox="0 0 512 512" style="enable-background:new 0 0 512 512;" xml:space="preserve">
<circle style="fill:#F8E99B;" cx="256" cy="256" r="256"/>
<path style="fill:#F6E27D;" d="M256,0v512c141.385,0,256-114.615,256-256S397.385,0,256,0z"/>
<g>
	<path style="fill:#A58868;" d="M207.78,410.677l-38.298-12.932c7.687-22.761,19.829-40.148,36.093-51.676
		c14.257-10.105,31.693-15.446,50.424-15.446c41.231,0,72.796,24.561,86.603,67.385l-38.471,12.405
		c-8.422-26.124-24.616-39.369-48.133-39.369C232.559,371.045,216.785,384.008,207.78,410.677z"/>
	<path style="fill:#A58868;" d="M108.148,209.82l-27.664-29.471c32.842-30.829,73.064-53.345,116.316-65.113l10.612,39.002
		C170.514,164.278,136.189,183.497,108.148,209.82z"/>
</g>
<path style="fill:#947859;" d="M403.852,209.82c-28.041-26.322-62.366-45.542-99.263-55.582l10.612-39.002
	c43.252,11.767,83.474,34.282,116.316,65.113L403.852,209.82z"/>
<path style="fill:#98C8ED;" d="M106.155,341.745c15.784,15.786,41.379,15.786,57.163,0.001c15.784-15.786,15.786-41.379,0-57.165
	L134.737,256l-28.583,28.582C90.369,300.366,90.368,325.961,106.155,341.745z"/>
<path style="fill:#A58868;" d="M181.895,249.263c-14.859,0-26.947-12.089-26.947-26.947s12.089-26.947,26.947-26.947
	c14.861,0,26.947,12.089,26.947,26.947C208.837,237.177,196.748,249.263,181.895,249.263z"/>
<g>
	<path style="fill:#947859;" d="M330.105,249.263c-14.859,0-26.947-12.089-26.947-26.947s12.089-26.947,26.947-26.947
		c14.861,0,26.947,12.089,26.947,26.947C357.047,237.177,344.959,249.263,330.105,249.263z"/>
	<path style="fill:#947859;" d="M256,330.624v40.421c23.516,0,39.71,13.245,48.133,39.369l38.471-12.405
		C328.796,355.184,297.231,330.624,256,330.624z"/>
</g>
<g>
</g>
<g>
</g>
<g>
</g>
<g>
</g>
<g>
</g>
<g>
</g>
<g>
</g>
<g>
</g>
<g>
</g>
<g>
</g>
<g>
</g>
<g>
</g>
<g>
</g>
<g>
</g>
<g>
</g>
</svg>
