<?xml version="1.0" encoding="iso-8859-1"?>
<!-- Generator: Adobe Illustrator 19.0.0, SVG Export Plug-In . SVG Version: 6.00 Build 0)  -->
<svg version="1.1" id="Layer_1" xmlns="http://www.w3.org/2000/svg" x="0px" y="0px"
     viewBox="0 0 512 512" style="enable-background:new 0 0 512 512;" xml:space="preserve">
<circle style="fill:#F8E99B;" cx="256" cy="256" r="256"/>
<path style="fill:#F6E27D;" d="M256,0v512c141.385,0,256-114.615,256-256S397.385,0,256,0z"/>
<path style="fill:#A58868;" d="M76.71,247.909l-18.683-35.845c41.608-21.687,78.91-52.732,107.872-89.775l31.845,24.895
	C165.252,188.743,123.399,223.574,76.71,247.909z"/>
<path style="fill:#947859;" d="M435.29,247.909c-46.689-24.336-88.542-59.166-121.033-100.725l31.845-24.895
	c28.962,37.043,66.262,68.088,107.87,89.775L435.29,247.909z"/>
<path style="fill:#A58868;" d="M173.811,353.011l-24.253-32.337c17.682-13.272,35.486-28.951,43.168-37.726
	c-7.683-8.775-25.485-24.455-43.171-37.728l24.255-32.335c0.575,0.431,14.243,10.701,28.129,22.853
	c28.187,24.665,33.85,36.349,33.85,47.21s-5.663,22.546-33.85,47.21C188.054,342.31,174.386,352.579,173.811,353.011z"/>
<path style="fill:#947859;" d="M338.189,353.011c-0.575-0.431-14.243-10.701-28.129-22.853c-28.187-24.665-33.85-36.349-33.85-47.21
	s5.663-22.546,33.85-47.21c13.886-12.152,27.554-22.422,28.129-22.853l24.253,32.337c-17.683,13.272-35.486,28.951-43.168,37.726
	c7.683,8.775,25.486,24.455,43.171,37.728L338.189,353.011z"/>
<path style="fill:#A58868;" d="M207.78,437.105l-38.298-12.932c7.687-22.761,19.829-40.148,36.093-51.676
	c14.257-10.104,31.693-15.445,50.424-15.445c41.231,0,72.796,24.56,86.603,67.385l-38.471,12.405
	c-8.422-26.124-24.616-39.369-48.132-39.369C232.559,397.474,216.785,410.437,207.78,437.105z"/>
<path style="fill:#947859;" d="M256,357.053L256,357.053l-0.001,40.421H256c23.516,0,39.71,13.245,48.133,39.369l38.471-12.405
	C328.796,381.612,297.231,357.053,256,357.053z"/>
<g>
</g>
<g>
</g>
<g>
</g>
<g>
</g>
<g>
</g>
<g>
</g>
<g>
</g>
<g>
</g>
<g>
</g>
<g>
</g>
<g>
</g>
<g>
</g>
<g>
</g>
<g>
</g>
<g>
</g>
</svg>
