<?xml version="1.0" encoding="iso-8859-1"?>
<!-- Generator: Adobe Illustrator 19.0.0, SVG Export Plug-In . SVG Version: 6.00 Build 0)  -->
<svg version="1.1" id="Layer_1" xmlns="http://www.w3.org/2000/svg" x="0px" y="0px"
     viewBox="0 0 511.999 511.999" style="enable-background:new 0 0 511.999 511.999;" xml:space="preserve">
<circle style="fill:#F8E99B;" cx="256.002" cy="256.001" r="250.092"/>
<path style="fill:#F6E27D;" d="M256,5.906V506.09c138.122,0,250.092-111.97,250.092-250.092S394.121,5.906,256,5.906z"/>
<path style="fill:#E2CEEF;" d="M256,5.906c-126.344,0-230.787,93.695-247.683,215.388C76.057,275.923,162.201,308.649,256,308.649
	s179.942-32.727,247.683-87.354C486.787,99.601,382.345,5.906,256,5.906z"/>
<path style="fill:#D4B6E6;" d="M256,5.906v302.743c93.8,0,179.942-32.727,247.683-87.354C486.787,99.601,382.345,5.906,256,5.906z"
	/>
<ellipse style="fill:#E07188;" cx="256.002" cy="361.303" rx="65.814" ry="92.139"/>
<ellipse transform="matrix(0.7071 -0.7071 0.7071 0.7071 -83.3958 165.1389)" style="fill:#F8F8F9;" cx="157.642" cy="183.237" rx="65.813" ry="52.65"/>
<ellipse transform="matrix(-0.7071 -0.7071 0.7071 -0.7071 475.3499 563.3633)" style="fill:#EDEDED;" cx="354.351" cy="183.233" rx="65.813" ry="52.65"/>
<path style="fill:#ECB45C;" d="M401.111,434.748c-3.453,35.986,21.299,56.14,55.283,45.017l0,0
	c33.985-11.128,58.736-38.111,55.283-60.285c-1.756-14.041-3.51-28.08-5.265-42.121c-3.453-22.175-25.846-47.044-50.018-55.547l0,0
	c-24.172-8.504-46.566,13.767-50.018,49.755C404.621,392.627,402.867,413.688,401.111,434.748z"/>
<path style="fill:#EFC27B;" d="M110.888,434.748c3.453,35.986-21.299,56.14-55.283,45.017l0,0
	C21.62,468.637-3.131,441.653,0.321,419.479c1.755-14.041,3.509-28.08,5.265-42.121c3.453-22.175,25.846-47.044,50.018-55.547l0,0
	c24.172-8.504,46.566,13.767,50.018,49.755C107.379,392.627,109.134,413.688,110.888,434.748z"/>
<path style="fill:#E02753;" d="M256,269.161v184.278c36.348,0,65.814-41.252,65.814-92.139S292.349,269.161,256,269.161z"/>
<g>
</g>
<g>
</g>
<g>
</g>
<g>
</g>
<g>
</g>
<g>
</g>
<g>
</g>
<g>
</g>
<g>
</g>
<g>
</g>
<g>
</g>
<g>
</g>
<g>
</g>
<g>
</g>
<g>
</g>
</svg>
