<?xml version="1.0" encoding="iso-8859-1"?>
<!-- Generator: Adobe Illustrator 19.0.0, SVG Export Plug-In . SVG Version: 6.00 Build 0)  -->
<svg version="1.1" id="Layer_1" xmlns="http://www.w3.org/2000/svg" x="0px" y="0px"
     viewBox="0 0 512 512" style="enable-background:new 0 0 512 512;" xml:space="preserve">
<circle style="fill:#F8E99B;" cx="256" cy="256" r="256"/>
<path style="fill:#F6E27D;" d="M256,0v512c141.385,0,256-114.615,256-256S397.385,0,256,0z"/>
<path style="fill:#A58868;" d="M83.519,207.488l-18.681-35.845c41.607-21.687,78.909-52.731,107.872-89.777l31.845,24.898
	C172.062,148.324,130.21,183.153,83.519,207.488z"/>
<path style="fill:#947859;" d="M428.481,207.488c-46.689-24.336-88.542-59.164-121.034-100.724l31.845-24.898
	c28.962,37.046,66.265,68.089,107.872,89.777L428.481,207.488z"/>
<path style="fill:#A58868;" d="M173.811,312.589l-24.253-32.337c17.683-13.272,35.486-28.951,43.168-37.726
	c-7.683-8.775-25.487-24.455-43.171-37.728l24.255-32.335c0.575,0.431,14.242,10.701,28.13,22.853
	c28.187,24.665,33.849,36.349,33.849,47.21s-5.662,22.546-33.849,47.21C188.052,301.889,174.386,312.158,173.811,312.589z"/>
<path style="fill:#947859;" d="M338.189,312.589c-0.575-0.431-14.242-10.701-28.13-22.853
	c-28.187-24.665-33.849-36.349-33.849-47.21s5.662-22.546,33.849-47.21c13.889-12.152,27.555-22.422,28.13-22.853l24.253,32.337
	c-17.683,13.272-35.486,28.951-43.168,37.726c7.683,8.775,25.487,24.455,43.171,37.729L338.189,312.589z"/>
<path style="fill:#A58868;" d="M323.364,424.421c-26.307,0-40.091-16.538-49.211-27.482C266.004,387.16,262.797,384,255.992,384
	c-6.803,0-10.008,3.161-18.156,12.939c-9.119,10.943-22.9,27.482-49.207,27.482s-40.09-16.538-49.209-27.482
	C131.273,387.161,128.066,384,121.263,384v-40.421c26.307,0,40.09,16.538,49.209,27.482c8.148,9.778,11.354,12.939,18.157,12.939
	s10.008-3.161,18.156-12.939c9.119-10.943,22.9-27.482,49.207-27.482c26.309,0,40.092,16.538,49.213,27.482
	c8.149,9.778,11.354,12.939,18.16,12.939s10.011-3.161,18.158-12.939c9.122-10.945,22.905-27.482,49.214-27.482V384
	c-6.806,0-10.012,3.161-18.16,12.939C363.455,407.883,349.672,424.421,323.364,424.421z"/>
<path style="fill:#947859;" d="M341.524,371.061C333.375,380.839,330.17,384,323.366,384c-6.804,0-10.011-3.161-18.16-12.939
	c-9.119-10.943-22.901-27.48-49.206-27.482V384c6.8,0.003,10.008,3.165,18.153,12.939c9.122,10.943,22.904,27.482,49.211,27.482
	s40.091-16.538,49.211-27.482c8.149-9.778,11.356-12.939,18.161-12.939v-40.421C364.428,343.579,350.645,360.117,341.524,371.061z"
	/>
<g>
</g>
<g>
</g>
<g>
</g>
<g>
</g>
<g>
</g>
<g>
</g>
<g>
</g>
<g>
</g>
<g>
</g>
<g>
</g>
<g>
</g>
<g>
</g>
<g>
</g>
<g>
</g>
<g>
</g>
</svg>
