<?xml version="1.0" encoding="iso-8859-1"?>
<!-- Generator: Adobe Illustrator 19.0.0, SVG Export Plug-In . SVG Version: 6.00 Build 0)  -->
<svg version="1.1" id="Layer_1" xmlns="http://www.w3.org/2000/svg" x="0px" y="0px"
     viewBox="0 0 512 512" style="enable-background:new 0 0 512 512;" xml:space="preserve">
<circle style="fill:#F8E99B;" cx="256" cy="256" r="256"/>
<path style="fill:#F6E27D;" d="M256,0v512c141.385,0,256-114.615,256-256S397.385,0,256,0z"/>
<path style="fill:#A58868;" d="M108.148,155.926l-27.664-29.471c32.842-30.829,73.064-53.345,116.316-65.113l10.612,39.002
	C170.514,110.383,136.189,129.602,108.148,155.926z"/>
<path style="fill:#947859;" d="M403.852,155.926c-28.041-26.322-62.366-45.542-99.263-55.582l10.612-39.002
	c43.252,11.767,83.474,34.282,116.316,65.113L403.852,155.926z"/>
<polygon style="fill:#A58868;" points="201.289,147.394 175.158,173.524 149.027,147.394 120.447,175.974 146.576,202.105 
	120.447,228.236 149.027,256.817 175.158,230.687 201.289,256.817 229.869,228.236 203.74,202.105 229.869,175.974 "/>
<polygon style="fill:#947859;" points="391.553,175.974 362.973,147.394 336.842,173.524 310.711,147.394 282.131,175.974 
	308.26,202.105 282.131,228.236 310.711,256.817 336.842,230.687 362.973,256.817 391.553,228.236 365.424,202.105 "/>
<ellipse style="fill:#E07188;" cx="256" cy="370.526" rx="67.368" ry="87.579"/>
<path style="fill:#E02753;" d="M256,282.947v175.158c37.206,0,67.368-39.211,67.368-87.579S293.206,282.947,256,282.947z"/>
<g>
</g>
<g>
</g>
<g>
</g>
<g>
</g>
<g>
</g>
<g>
</g>
<g>
</g>
<g>
</g>
<g>
</g>
<g>
</g>
<g>
</g>
<g>
</g>
<g>
</g>
<g>
</g>
<g>
</g>
</svg>
