<?xml version="1.0" encoding="iso-8859-1"?>
<!-- Generator: Adobe Illustrator 19.0.0, SVG Export Plug-In . SVG Version: 6.00 Build 0)  -->
<svg version="1.1" id="Layer_1" xmlns="http://www.w3.org/2000/svg" x="0px" y="0px"
     viewBox="0 0 512 512" style="enable-background:new 0 0 512 512;" xml:space="preserve">
<circle style="fill:#F8E99B;" cx="256" cy="256" r="256"/>
<path style="fill:#F6E27D;" d="M256,0v512c141.385,0,256-114.615,256-256S397.385,0,256,0z"/>
<path style="fill:#F8F8F9;" d="M148.211,417.684h229.053V256H134.737v38.787L13.553,173.603
	c-5.036,14.826-8.736,30.267-10.989,46.174L134.737,351.95v25.313H30.496c7.734,14.352,16.802,27.878,27.032,40.421h77.208H148.211z
	"/>
<path style="fill:#947859;" d="M395.214,193.256c-0.23-0.113-23.243-11.361-44.898-11.361c-21.573,0-44.629,11.226-44.857,11.339
	l-18.076-36.153c1.273-0.639,31.576-15.608,62.933-15.608s61.66,14.969,62.933,15.608L395.214,193.256z"/>
<path style="fill:#A58868;" d="M206.583,193.256c-0.23-0.113-23.243-11.361-44.898-11.361c-21.573,0-44.629,11.226-44.857,11.339
	l-18.076-36.153c1.275-0.639,31.576-15.608,62.933-15.608s61.658,14.969,62.933,15.608L206.583,193.256z"/>
<path style="fill:#EDEDED;" d="M377.263,351.95l132.174-132.174c-2.254-15.907-5.953-31.348-10.989-46.174L377.263,294.787V256H256
	v161.684h107.789h13.474h77.21c10.231-12.543,19.297-26.069,27.032-40.421H377.263V351.95z"/>
<g>
</g>
<g>
</g>
<g>
</g>
<g>
</g>
<g>
</g>
<g>
</g>
<g>
</g>
<g>
</g>
<g>
</g>
<g>
</g>
<g>
</g>
<g>
</g>
<g>
</g>
<g>
</g>
<g>
</g>
</svg>
