<?xml version="1.0" encoding="iso-8859-1"?>
<!-- Generator: Adobe Illustrator 19.0.0, SVG Export Plug-In . SVG Version: 6.00 Build 0)  -->
<svg version="1.1" id="Layer_1" xmlns="http://www.w3.org/2000/svg" x="0px" y="0px"
     viewBox="0 0 512 512" style="enable-background:new 0 0 512 512;" xml:space="preserve">
<circle style="fill:#F8E99B;" cx="252.278" cy="255.998" r="252.278"/>
<path style="fill:#F6E27D;" d="M252.278,3.724V508.28c139.329,0,252.278-112.949,252.278-252.278S391.608,3.724,252.278,3.724z"/>
<path style="fill:#A58868;" d="M159.334,329.03c-30.901,0-60.762-14.752-62.018-15.381l17.772-35.648
	c0.227,0.112,22.906,11.196,44.246,11.196c21.259,0,43.98-11.063,44.204-11.175l17.813,35.627
	C220.096,314.278,190.235,329.03,159.334,329.03z"/>
<path style="fill:#947859;" d="M345.223,329.03c-30.901,0-60.762-14.752-62.018-15.381l17.772-35.648
	c0.227,0.112,22.906,11.196,44.246,11.196c21.259,0,43.981-11.063,44.204-11.175l17.814,35.627
	C405.985,314.278,376.124,329.03,345.223,329.03z"/>
<path style="fill:#A58868;" d="M252.278,435.252c-14.643,0-26.556-11.913-26.556-26.556c0-14.643,11.913-26.556,26.556-26.556
	c14.645,0,26.556,11.913,26.556,26.556C278.829,423.342,266.916,435.252,252.278,435.252z"/>
<g>
	<polygon style="fill:#3862CC;" points="278.834,222.81 192.528,222.81 178.446,188.811 224.112,143.143 185.889,143.143 
		185.889,103.31 272.195,103.31 286.277,137.31 240.611,182.977 278.834,182.977 	"/>
	<polygon style="fill:#3862CC;" points="391.695,196.252 305.389,196.252 291.307,162.253 336.973,116.585 298.751,116.585 
		298.751,76.752 385.056,76.752 399.139,110.752 353.472,156.418 391.695,156.418 	"/>
	<polygon style="fill:#3862CC;" points="504.556,169.696 418.251,169.696 404.168,135.697 449.835,90.029 411.612,90.029 
		411.612,50.196 497.918,50.196 512,84.197 466.334,129.863 504.556,129.863 	"/>
</g>
<g>
</g>
<g>
</g>
<g>
</g>
<g>
</g>
<g>
</g>
<g>
</g>
<g>
</g>
<g>
</g>
<g>
</g>
<g>
</g>
<g>
</g>
<g>
</g>
<g>
</g>
<g>
</g>
<g>
</g>
</svg>
