<?xml version="1.0" encoding="iso-8859-1"?>
<!-- Generator: Adobe Illustrator 19.0.0, SVG Export Plug-In . SVG Version: 6.00 Build 0)  -->
<svg version="1.1" id="Layer_1" xmlns="http://www.w3.org/2000/svg" x="0px" y="0px"
     viewBox="0 0 512 512" style="enable-background:new 0 0 512 512;" xml:space="preserve">
<circle style="fill:#F8E99B;" cx="256" cy="256" r="256"/>
<path style="fill:#F6E27D;" d="M256,0v512c141.385,0,256-114.615,256-256S397.385,0,256,0z"/>
<path style="fill:#F8F8F9;" d="M417.684,336.842c0,44.648-36.194,80.842-80.842,80.842H175.158
	c-44.648,0-80.842-36.194-80.842-80.842l0,0c0-44.648,36.194-80.842,80.842-80.842h161.684
	C381.49,256,417.684,292.194,417.684,336.842L417.684,336.842z"/>
<path style="fill:#EDEDED;" d="M336.842,256H256v161.684h80.842c44.648,0,80.842-36.194,80.842-80.842S381.49,256,336.842,256z"/>
<path style="fill:#A58868;" d="M175.158,157.59c8.775,7.683,24.455,25.485,37.726,43.168l32.337-24.253
	c-0.431-0.575-10.701-14.243-22.853-28.129c-24.665-28.187-36.349-33.85-47.21-33.85s-22.546,5.663-47.21,33.85
	c-12.152,13.886-22.422,27.554-22.853,28.129l32.335,24.255C150.703,183.075,166.382,165.272,175.158,157.59z"/>
<path style="fill:#947859;" d="M336.842,157.59c8.775,7.683,24.455,25.485,37.726,43.168l32.337-24.253
	c-0.431-0.575-10.701-14.243-22.853-28.129c-24.665-28.187-36.351-33.85-47.21-33.85c-10.861,0-22.546,5.663-47.21,33.85
	c-12.152,13.886-22.422,27.554-22.853,28.129l32.335,24.255C312.387,183.075,328.067,165.272,336.842,157.59z"/>
<path style="fill:#D8CCBC;" d="M370.526,316.632v-53.276c-10.258-4.709-21.658-7.355-33.684-7.355h-6.737v60.632h-53.895V256
	h-40.421v60.632h-53.895V256h-6.737c-12.027,0-23.428,2.646-33.684,7.355v53.276h-44.61c-1.664,6.459-2.548,13.231-2.548,20.211
	c0,6.979,0.884,13.751,2.548,20.211h44.61v53.276c10.256,4.709,21.658,7.355,33.684,7.355h6.737v-60.632h53.895v60.632h40.421
	v-60.632h53.895v60.632h6.737c12.027,0,23.427-2.646,33.684-7.355v-53.276h44.61c1.663-6.459,2.548-13.231,2.548-20.211
	c0-6.979-0.884-13.751-2.548-20.211H370.526z"/>
<path style="fill:#C6BBAF;" d="M415.136,316.632h-44.61v-53.276c-10.258-4.709-21.658-7.355-33.684-7.355h-6.737v60.632h-53.895V256
	H256v161.684h20.211v-60.632h53.895v60.632h6.737c12.027,0,23.427-2.646,33.684-7.355v-53.276h44.61
	c1.663-6.459,2.548-13.231,2.548-20.211C417.684,329.863,416.8,323.091,415.136,316.632z"/>
<g>
</g>
<g>
</g>
<g>
</g>
<g>
</g>
<g>
</g>
<g>
</g>
<g>
</g>
<g>
</g>
<g>
</g>
<g>
</g>
<g>
</g>
<g>
</g>
<g>
</g>
<g>
</g>
<g>
</g>
</svg>
