<?xml version="1.0" encoding="iso-8859-1"?>
<!-- Generator: Adobe Illustrator 19.0.0, SVG Export Plug-In . SVG Version: 6.00 Build 0)  -->
<svg version="1.1" id="Layer_1" xmlns="http://www.w3.org/2000/svg" x="0px" y="0px"
     viewBox="0 0 512 512" style="enable-background:new 0 0 512 512;" xml:space="preserve">
<circle style="fill:#F8E99B;" cx="256" cy="256" r="256"/>
<path style="fill:#F6E27D;" d="M256,0v512c141.385,0,256-114.615,256-256S397.385,0,256,0z"/>
<path style="fill:#E2CEEF;" d="M256,0C126.672,0,19.761,95.908,2.466,220.477C71.807,276.395,159.984,309.895,256,309.895
	s184.193-33.5,253.534-89.418C492.24,95.908,385.329,0,256,0z"/>
<path style="fill:#D4B6E6;" d="M256,0v309.895c96.016,0,184.193-33.5,253.534-89.418C492.24,95.908,385.329,0,256,0z"/>
<path style="fill:#A58868;" d="M195.368,262.737c-14.859,0-26.947-12.089-26.947-26.947s12.089-26.947,26.947-26.947
	c14.86,0,26.947,12.089,26.947,26.947C222.31,250.651,210.222,262.737,195.368,262.737z"/>
<path style="fill:#947859;" d="M316.632,262.737c-14.859,0-26.947-12.089-26.947-26.947s12.089-26.947,26.947-26.947
	c14.86,0,26.947,12.089,26.947,26.947C343.574,250.651,331.485,262.737,316.632,262.737z"/>
<path style="fill:#A58868;" d="M108.149,196.347l-27.666-29.471c32.843-30.829,73.065-53.345,116.316-65.113l10.613,39.002
	C170.514,150.804,136.189,170.023,108.149,196.347z"/>
<path style="fill:#947859;" d="M403.851,196.347c-28.04-26.322-62.366-45.542-99.263-55.582l10.613-39.002
	c43.252,11.767,83.472,34.282,116.316,65.113L403.851,196.347z"/>
<path style="fill:#E07188;" d="M359.753,376.068c5.627-21.563-11.539-44.659-38.768-48.326c-43.127-5.833-86.845-5.831-129.969,0
	c-27.229,3.668-44.394,26.763-38.768,48.326l0,0c5.621,21.643,27.676,34.688,49.602,31.787c35.934-4.86,72.363-4.86,108.297,0
	C332.076,410.757,354.129,397.712,359.753,376.068L359.753,376.068z"/>
<path style="fill:#E02753;" d="M320.984,327.742c-21.562-2.916-43.273-4.374-64.984-4.374v80.842c18.09,0,36.182,1.214,54.148,3.645
	c21.928,2.902,43.982-10.143,49.605-31.787C365.379,354.505,348.214,331.411,320.984,327.742z"/>
<g>
</g>
<g>
</g>
<g>
</g>
<g>
</g>
<g>
</g>
<g>
</g>
<g>
</g>
<g>
</g>
<g>
</g>
<g>
</g>
<g>
</g>
<g>
</g>
<g>
</g>
<g>
</g>
<g>
</g>
</svg>
