<?xml version="1.0" encoding="iso-8859-1"?>
<!-- Generator: Adobe Illustrator 19.0.0, SVG Export Plug-In . SVG Version: 6.00 Build 0)  -->
<svg version="1.1" id="Layer_1" xmlns="http://www.w3.org/2000/svg" x="0px" y="0px"
     viewBox="0 0 512 512" style="enable-background:new 0 0 512 512;" xml:space="preserve">
<circle style="fill:#F8E99B;" cx="256" cy="256" r="256"/>
<path style="fill:#F6E27D;" d="M256,0v512c141.385,0,256-114.615,256-256S397.385,0,256,0z"/>
<path style="fill:#A58868;" d="M94.316,222.316v40.421h60.632c0,22.323,10.557,40.421,23.579,40.421s23.579-18.098,23.579-40.421
	v-40.421H94.316z"/>
<path style="fill:#947859;" d="M309.895,222.316v40.421h60.632c0,22.323,10.558,40.421,23.579,40.421
	c13.022,0,23.579-18.098,23.579-40.421v-40.421H309.895z"/>
<g>
	<path style="fill:#A58868;" d="M207.78,410.158l-38.298-12.932c7.687-22.761,19.829-40.146,36.093-51.674
		c14.257-10.105,31.693-15.446,50.424-15.446c41.231,0,72.796,24.56,86.603,67.385l-38.471,12.404
		c-8.421-26.121-24.616-39.367-48.132-39.367C232.559,370.526,216.785,383.491,207.78,410.158z"/>
	<path style="fill:#A58868;" d="M73.747,193.902L60.99,155.547c28.076-9.339,57.422-14.073,87.221-14.073
		c29.797,0,59.143,4.735,87.221,14.073l-12.757,38.356c-23.956-7.967-49.009-12.008-74.464-12.008S97.703,185.935,73.747,193.902z"
		/>
</g>
<g>
	<path style="fill:#947859;" d="M289.326,193.902l-12.758-38.356c28.079-9.339,57.423-14.073,87.222-14.073
		c29.797,0,59.143,4.735,87.219,14.073l-12.756,38.356c-23.956-7.967-49.009-12.008-74.464-12.008
		C338.334,181.895,313.282,185.935,289.326,193.902z"/>
	<path style="fill:#947859;" d="M256,330.105v40.421c23.516,0,39.711,13.246,48.133,39.367l38.471-12.404
		C328.796,354.665,297.231,330.105,256,330.105z"/>
</g>
<g>
</g>
<g>
</g>
<g>
</g>
<g>
</g>
<g>
</g>
<g>
</g>
<g>
</g>
<g>
</g>
<g>
</g>
<g>
</g>
<g>
</g>
<g>
</g>
<g>
</g>
<g>
</g>
<g>
</g>
</svg>
