<?xml version="1.0" encoding="iso-8859-1"?>
<!-- Generator: Adobe Illustrator 19.0.0, SVG Export Plug-In . SVG Version: 6.00 Build 0)  -->
<svg version="1.1" id="Layer_1" xmlns="http://www.w3.org/2000/svg" x="0px" y="0px"
     viewBox="0 0 512 512" style="enable-background:new 0 0 512 512;" xml:space="preserve">
<circle style="fill:#F8E99B;" cx="256" cy="256" r="256"/>
<path style="fill:#F6E27D;" d="M256,0v512c141.385,0,256-114.615,256-256S397.385,0,256,0z"/>
<path style="fill:#A58868;" d="M235.789,202.105h-40.421c0-11.144-9.066-20.211-20.211-20.211c-11.144,0-20.211,9.066-20.211,20.211
	h-40.421c0-33.432,27.199-60.632,60.632-60.632S235.789,168.673,235.789,202.105z"/>
<path style="fill:#947859;" d="M397.474,202.105h-40.421c0-11.144-9.066-20.211-20.211-20.211c-11.144,0-20.211,9.066-20.211,20.211
	h-40.421c0-33.432,27.199-60.632,60.632-60.632C370.274,141.474,397.474,168.673,397.474,202.105z"/>
<path style="fill:#E02753;" d="M263.219,376.296L283.43,411.3c14.884,25.778,47.845,34.609,73.623,19.727
	c25.778-14.883,34.609-47.844,19.728-73.622l-20.211-35.005"/>
<path style="fill:#A58868;" d="M256,397.474c-78.009,0-141.474-63.464-141.474-141.474h40.421
	c0,55.72,45.332,101.053,101.053,101.053S357.053,311.72,357.053,256h40.421C397.474,334.01,334.009,397.474,256,397.474z"/>
<path style="fill:#947859;" d="M357.053,256c0,55.72-45.332,101.053-101.053,101.053v40.421
	c78.009,0,141.474-63.464,141.474-141.474H357.053z"/>
<g>
</g>
<g>
</g>
<g>
</g>
<g>
</g>
<g>
</g>
<g>
</g>
<g>
</g>
<g>
</g>
<g>
</g>
<g>
</g>
<g>
</g>
<g>
</g>
<g>
</g>
<g>
</g>
<g>
</g>
</svg>
