<?xml version="1.0" encoding="iso-8859-1"?>
<!-- Generator: Adobe Illustrator 19.0.0, SVG Export Plug-In . SVG Version: 6.00 Build 0)  -->
<svg version="1.1" id="Layer_1" xmlns="http://www.w3.org/2000/svg" x="0px" y="0px"
     viewBox="0 0 512 512" style="enable-background:new 0 0 512 512;" xml:space="preserve">
<circle style="fill:#F8E99B;" cx="256" cy="256" r="256"/>
<path style="fill:#F6E27D;" d="M256,0v512c141.385,0,256-114.615,256-256S397.385,0,256,0z"/>
<path style="fill:#E02753;" d="M89.304,309.895C112.038,380.258,178.07,431.158,256,431.158c77.932,0,143.964-50.9,166.696-121.263
	c0,0-85.854,6.737-166.696,6.737S89.304,309.895,89.304,309.895z"/>
<path style="fill:#C5142C;" d="M256,316.632v114.526c77.932,0,143.964-50.9,166.696-121.263
	C422.696,309.895,336.842,316.632,256,316.632z"/>
<path style="fill:#E07188;" d="M202.105,315.772v88.439c0,29.766,24.129,53.895,53.895,53.895c9.82,0,19.018-2.64,26.947-7.227
	V315.772H202.105z"/>
<path style="fill:#A58868;" d="M112.387,239.725l-9.194-39.362c40.501-9.46,78.292-9.46,105.887-9.46v40.421
	C183.45,231.324,148.351,231.324,112.387,239.725z"/>
<circle style="fill:#EDEDED;" cx="343.579" cy="181.895" r="60.632"/>
<circle style="fill:#947859;" cx="343.579" cy="181.895" r="20.211"/>
<path style="fill:#E02753;" d="M256,315.772v142.333c29.766,0,53.895-24.129,53.895-53.895v-88.439H256z"/>
<g>
</g>
<g>
</g>
<g>
</g>
<g>
</g>
<g>
</g>
<g>
</g>
<g>
</g>
<g>
</g>
<g>
</g>
<g>
</g>
<g>
</g>
<g>
</g>
<g>
</g>
<g>
</g>
<g>
</g>
</svg>
