<?xml version="1.0" encoding="iso-8859-1"?>
<!-- Generator: Adobe Illustrator 19.0.0, SVG Export Plug-In . SVG Version: 6.00 Build 0)  -->
<svg version="1.1" id="Layer_1" xmlns="http://www.w3.org/2000/svg" x="0px" y="0px"
     viewBox="0 0 512 512" style="enable-background:new 0 0 512 512;" xml:space="preserve">
<circle style="fill:#F8E99B;" cx="256" cy="256" r="256"/>
<path style="fill:#F6E27D;" d="M256,0v512c141.385,0,256-114.615,256-256S397.385,0,256,0z"/>
<path style="fill:#947859;" d="M373.742,271.316c-30.508-5.772-55.801-8.579-77.321-8.579v-40.421
	c24.071,0,51.821,3.036,84.836,9.282L373.742,271.316z"/>
<g>
	<ellipse style="fill:#A58868;" cx="192" cy="242.526" rx="23.579" ry="40.421"/>
	<path style="fill:#A58868;" d="M256,423.902c-41.229,0-72.796-24.561-86.603-67.385l38.471-12.404
		c8.422,26.123,24.616,39.367,48.133,39.367c23.442,0,39.215-12.963,48.22-39.632l38.298,12.932
		c-7.687,22.761-19.829,40.146-36.093,51.674C292.167,418.561,274.731,423.902,256,423.902z"/>
</g>
<path style="fill:#947859;" d="M423.066,229.737c-38.889-16.994-80.315-25.256-126.645-25.256V164.06
	c52.012,0,98.732,9.368,142.829,28.638L423.066,229.737z"/>
<path style="fill:#A58868;" d="M117.749,227.122l-29.666-27.455c32.687-35.319,71.743-62.616,119.401-83.449l16.191,37.036
	C181.224,171.812,146.576,195.973,117.749,227.122z"/>
<path style="fill:#947859;" d="M304.22,343.85c-9.004,26.668-24.778,39.631-48.22,39.631v40.421
	c18.731,0,36.167-5.341,50.424-15.446c16.264-11.528,28.407-28.913,36.093-51.674L304.22,343.85z"/>
<g>
</g>
<g>
</g>
<g>
</g>
<g>
</g>
<g>
</g>
<g>
</g>
<g>
</g>
<g>
</g>
<g>
</g>
<g>
</g>
<g>
</g>
<g>
</g>
<g>
</g>
<g>
</g>
<g>
</g>
</svg>
