<?xml version="1.0" encoding="iso-8859-1"?>
<!-- Generator: Adobe Illustrator 19.0.0, SVG Export Plug-In . SVG Version: 6.00 Build 0)  -->
<svg version="1.1" id="Layer_1" xmlns="http://www.w3.org/2000/svg" x="0px" y="0px"
     viewBox="0 0 512 512" style="enable-background:new 0 0 512 512;" xml:space="preserve">
<circle style="fill:#F8E99B;" cx="256" cy="256" r="256"/>
<path style="fill:#F6E27D;" d="M256,0v512c141.385,0,256-114.615,256-256S397.385,0,256,0z"/>
<path style="fill:#A58868;" d="M83.521,192.989l-18.683-35.845c41.608-21.687,78.91-52.732,107.872-89.775l31.845,24.895
	C172.063,133.823,130.211,168.654,83.521,192.989z"/>
<path style="fill:#947859;" d="M428.481,192.989c-46.689-24.336-88.542-59.164-121.034-100.724l31.844-24.897
	c28.962,37.046,66.265,68.089,107.872,89.777L428.481,192.989z"/>
<path style="fill:#A58868;" d="M173.811,298.09l-24.253-32.337c17.682-13.272,35.486-28.951,43.168-37.726
	c-7.683-8.775-25.485-24.455-43.171-37.728l24.255-32.336c0.575,0.431,14.243,10.701,28.129,22.853
	c28.187,24.665,33.85,36.351,33.85,47.21c0,10.861-5.663,22.546-33.85,47.21C188.054,287.39,174.386,297.659,173.811,298.09z"/>
<path style="fill:#947859;" d="M338.189,298.09c-0.575-0.431-14.242-10.701-28.13-22.853c-28.187-24.664-33.849-36.349-33.849-47.21
	s5.662-22.546,33.849-47.21c13.889-12.152,27.555-22.422,28.13-22.853l24.253,32.337c-17.683,13.272-35.486,28.951-43.168,37.726
	c7.683,8.775,25.487,24.455,43.171,37.728L338.189,298.09z"/>
<path style="fill:#E07188;" d="M166.777,356.17c-11.715,17.248-18.567,38.067-18.567,60.49c0,6.96,0.684,13.761,1.946,20.352
	c34.641-4.529,69.967-6.878,105.844-6.878s71.203,2.35,105.845,6.878c1.261-6.593,1.944-13.392,1.944-20.352
	c0-22.423-6.851-43.242-18.567-60.49H166.777z"/>
<path style="fill:#E02753;" d="M256,356.17v73.964c35.876,0,71.203,2.35,105.845,6.878c1.261-6.593,1.944-13.392,1.944-20.352
	c0-22.423-6.851-43.242-18.567-60.49H256z"/>
<path style="fill:#F8F8F9;" d="M256,308.869c-39.89,0-74.694,21.686-93.334,53.895h186.668
	C330.695,330.555,295.889,308.869,256,308.869z"/>
<path style="fill:#EDEDED;" d="M256,308.869v53.895h93.335C330.695,330.555,295.889,308.869,256,308.869z"/>
<g>
</g>
<g>
</g>
<g>
</g>
<g>
</g>
<g>
</g>
<g>
</g>
<g>
</g>
<g>
</g>
<g>
</g>
<g>
</g>
<g>
</g>
<g>
</g>
<g>
</g>
<g>
</g>
<g>
</g>
</svg>
