<?xml version="1.0" encoding="iso-8859-1"?>
<!-- Generator: Adobe Illustrator 19.0.0, SVG Export Plug-In . SVG Version: 6.00 Build 0)  -->
<svg version="1.1" id="Layer_1" xmlns="http://www.w3.org/2000/svg" x="0px" y="0px"
     viewBox="0 0 512 512" style="enable-background:new 0 0 512 512;" xml:space="preserve">
<circle style="fill:#F8E99B;" cx="256" cy="256" r="256"/>
<path style="fill:#F6E27D;" d="M256,0v512c141.385,0,256-114.615,256-256S397.385,0,256,0z"/>
<path style="fill:#947859;" d="M395.214,274.098c-0.23-0.113-23.243-11.361-44.898-11.361c-21.573,0-44.63,11.226-44.857,11.339
	l-18.076-36.153c1.275-0.639,31.576-15.608,62.933-15.608s61.658,14.969,62.933,15.608L395.214,274.098z"/>
<g>
	<path style="fill:#A58868;" d="M206.583,274.098c-0.23-0.113-23.243-11.361-44.898-11.361c-21.573,0-44.63,11.226-44.857,11.339
		l-18.076-36.153c1.275-0.639,31.576-15.608,62.933-15.608s61.658,14.969,62.933,15.608L206.583,274.098z"/>
	<path style="fill:#A58868;" d="M207.78,410.677l-38.298-12.932c7.687-22.761,19.829-40.148,36.093-51.676
		c14.257-10.105,31.693-15.446,50.424-15.446c41.231,0,72.796,24.561,86.603,67.385l-38.471,12.405
		c-8.422-26.124-24.616-39.369-48.133-39.369C232.559,371.045,216.785,384.008,207.78,410.677z"/>
</g>
<path style="fill:#98C8ED;" d="M38.788,166.587c15.784,15.786,41.379,15.786,57.163,0.001c15.784-15.786,15.786-41.379,0-57.165
	L67.368,80.842l-28.582,28.582C23.002,125.208,23.001,150.803,38.788,166.587z"/>
<path style="fill:#947859;" d="M256,330.624v40.421c23.516,0,39.71,13.245,48.133,39.369l38.471-12.405
	C328.796,355.184,297.231,330.624,256,330.624z"/>
<g>
</g>
<g>
</g>
<g>
</g>
<g>
</g>
<g>
</g>
<g>
</g>
<g>
</g>
<g>
</g>
<g>
</g>
<g>
</g>
<g>
</g>
<g>
</g>
<g>
</g>
<g>
</g>
<g>
</g>
</svg>
