<?xml version="1.0" encoding="iso-8859-1"?>
<!-- Generator: Adobe Illustrator 19.0.0, SVG Export Plug-In . SVG Version: 6.00 Build 0)  -->
<svg version="1.1" id="Layer_1" xmlns="http://www.w3.org/2000/svg" x="0px" y="0px"
     viewBox="0 0 512 512" style="enable-background:new 0 0 512 512;" xml:space="preserve">
<circle style="fill:#F8E99B;" cx="256" cy="256" r="256"/>
<path style="fill:#F6E27D;" d="M256,0v512c141.385,0,256-114.615,256-256S397.385,0,256,0z"/>
<path style="fill:#E2CEEF;" d="M256,0C126.672,0,19.761,95.908,2.466,220.477C71.807,276.395,159.984,309.895,256,309.895
	s184.193-33.5,253.534-89.418C492.24,95.908,385.329,0,256,0z"/>
<path style="fill:#D4B6E6;" d="M256,0v309.895c96.016,0,184.193-33.5,253.534-89.418C492.24,95.908,385.329,0,256,0z"/>
<path style="fill:#98C8ED;" d="M65.734,341.745c15.784,15.786,41.378,15.786,57.163,0.001c15.784-15.786,15.786-41.379,0-57.165
	L94.316,256l-28.583,28.582C49.948,300.366,49.947,325.961,65.734,341.745z"/>
<path style="fill:#A58868;" d="M195.368,276.211c-14.859,0-26.947-12.089-26.947-26.947s12.089-26.947,26.947-26.947
	c14.861,0,26.947,12.089,26.947,26.947C222.31,264.125,210.222,276.211,195.368,276.211z"/>
<path style="fill:#947859;" d="M316.632,276.211c-14.859,0-26.947-12.089-26.947-26.947s12.089-26.947,26.947-26.947
	c14.86,0,26.947,12.089,26.947,26.947C343.574,264.125,331.485,276.211,316.632,276.211z"/>
<path style="fill:#A58868;" d="M90.183,220.962l-18.683-35.845c41.608-21.687,78.91-52.732,107.872-89.775l31.845,24.895
	C178.726,161.796,136.872,196.627,90.183,220.962z"/>
<path style="fill:#947859;" d="M421.817,220.962c-46.689-24.336-88.542-59.164-121.034-100.724l31.845-24.898
	c28.962,37.046,66.265,68.089,107.87,89.777L421.817,220.962z"/>
<path style="fill:#E07188;" d="M359.753,398.968c5.627-21.563-11.539-44.659-38.768-48.326c-43.127-5.833-86.843-5.831-129.969,0
	c-27.229,3.668-44.394,26.763-38.768,48.326l0,0c5.621,21.643,27.675,34.688,49.603,31.787c35.934-4.86,72.362-4.86,108.297,0
	C332.076,433.657,354.13,420.612,359.753,398.968L359.753,398.968z"/>
<path style="fill:#E02753;" d="M320.984,350.642c-21.563-2.916-43.273-4.374-64.984-4.374v80.842
	c18.091,0,36.182,1.214,54.149,3.645c21.927,2.902,43.982-10.143,49.603-31.787C365.379,377.405,348.214,354.311,320.984,350.642z"
	/>
<g>
</g>
<g>
</g>
<g>
</g>
<g>
</g>
<g>
</g>
<g>
</g>
<g>
</g>
<g>
</g>
<g>
</g>
<g>
</g>
<g>
</g>
<g>
</g>
<g>
</g>
<g>
</g>
<g>
</g>
</svg>
