<?xml version="1.0" encoding="iso-8859-1"?>
<!-- Generator: Adobe Illustrator 19.0.0, SVG Export Plug-In . SVG Version: 6.00 Build 0)  -->
<svg version="1.1" id="Layer_1" xmlns="http://www.w3.org/2000/svg" x="0px" y="0px"
     viewBox="0 0 512 512" style="enable-background:new 0 0 512 512;" xml:space="preserve">
<circle style="fill:#F8E99B;" cx="256" cy="256" r="256"/>
<path style="fill:#F6E27D;" d="M256,0v512c141.385,0,256-114.615,256-256S397.385,0,256,0z"/>
<path style="fill:#A58868;" d="M207.78,410.677l-38.298-12.932c7.687-22.761,19.829-40.148,36.093-51.676
	c14.257-10.105,31.693-15.446,50.424-15.446c41.231,0,72.796,24.561,86.603,67.385l-38.471,12.405
	c-8.422-26.124-24.616-39.369-48.133-39.369C232.559,371.045,216.785,384.008,207.78,410.677z"/>
<path style="fill:#98C8ED;" d="M65.734,341.745c15.784,15.786,41.378,15.786,57.163,0.001c15.784-15.786,15.786-41.379,0-57.165
	L94.316,256l-28.583,28.582C49.948,300.366,49.947,325.961,65.734,341.745z"/>
<path style="fill:#A58868;" d="M195.368,276.211c-14.859,0-26.947-12.089-26.947-26.947s12.089-26.947,26.947-26.947
	c14.861,0,26.947,12.089,26.947,26.947C222.31,264.125,210.222,276.211,195.368,276.211z"/>
<path style="fill:#947859;" d="M316.632,276.211c-14.859,0-26.947-12.089-26.947-26.947s12.089-26.947,26.947-26.947
	c14.861,0,26.947,12.089,26.947,26.947C343.574,264.125,331.485,276.211,316.632,276.211z"/>
<path style="fill:#A58868;" d="M90.183,220.962l-18.683-35.845c41.608-21.687,78.91-52.732,107.872-89.775l31.845,24.895
	C178.726,161.796,136.872,196.627,90.183,220.962z"/>
<path style="fill:#947859;" d="M421.817,220.962c-46.689-24.336-88.542-59.166-121.033-100.725l31.845-24.895
	c28.962,37.043,66.262,68.088,107.872,89.775L421.817,220.962z"/>
<g>
</g>
<g>
</g>
<g>
</g>
<g>
</g>
<g>
</g>
<g>
</g>
<g>
</g>
<g>
</g>
<g>
</g>
<g>
</g>
<g>
</g>
<g>
</g>
<g>
</g>
<g>
</g>
<g>
</g>
</svg>
