<?xml version="1.0" encoding="iso-8859-1"?>
<!-- Generator: Adobe Illustrator 19.0.0, SVG Export Plug-In . SVG Version: 6.00 Build 0)  -->
<svg version="1.1" id="Layer_1" xmlns="http://www.w3.org/2000/svg" x="0px" y="0px"
     viewBox="0 0 512 512" style="enable-background:new 0 0 512 512;" xml:space="preserve">
<circle style="fill:#F8E99B;" cx="256" cy="256" r="256"/>
<path style="fill:#F6E27D;" d="M256,0v512c141.385,0,256-114.615,256-256S397.385,0,256,0z"/>
<path style="fill:#A58868;" d="M175.158,242.385c-31.357,0-61.658-14.969-62.933-15.608l18.035-36.174
	c0.23,0.113,23.243,11.361,44.898,11.361c21.573,0,44.629-11.226,44.857-11.339l18.076,36.153
	C236.816,227.414,206.515,242.385,175.158,242.385z"/>
<path style="fill:#947859;" d="M336.842,242.385c-31.357,0-61.658-14.969-62.933-15.608l18.035-36.174
	c0.229,0.113,23.243,11.361,44.898,11.361c21.573,0,44.629-11.226,44.857-11.339l18.076,36.153
	C398.5,227.414,368.199,242.385,336.842,242.385z"/>
<path style="fill:#A58868;" d="M117.131,186.201l-18.683-35.845c41.608-21.687,78.91-52.732,107.872-89.775l31.845,24.895
	C205.673,127.035,163.82,161.866,117.131,186.201z"/>
<path style="fill:#947859;" d="M394.869,186.201c-46.689-24.336-88.542-59.166-121.033-100.725l31.845-24.895
	c28.962,37.043,66.262,68.088,107.872,89.775L394.869,186.201z"/>
<path style="fill:#E07188;" d="M166.777,336.842c-11.715,17.248-18.567,38.067-18.567,60.49c0,6.96,0.684,13.761,1.946,20.352
	c34.641-4.529,69.967-6.878,105.844-6.878s71.203,2.35,105.844,6.878c1.26-6.593,1.946-13.393,1.946-20.352
	c0-22.423-6.851-43.242-18.567-60.49L166.777,336.842L166.777,336.842z"/>
<path style="fill:#E02753;" d="M256,336.842v73.964c35.876,0,71.203,2.35,105.844,6.878c1.26-6.593,1.946-13.393,1.946-20.352
	c0-22.423-6.851-43.242-18.567-60.49L256,336.842L256,336.842z"/>
<path style="fill:#F8F8F9;" d="M256,289.543c-39.89,0-74.694,21.686-93.334,53.895h186.667
	C330.694,311.227,295.89,289.543,256,289.543z"/>
<path style="fill:#EDEDED;" d="M256,289.543v53.895h93.334C330.694,311.227,295.89,289.543,256,289.543z"/>
<g>
</g>
<g>
</g>
<g>
</g>
<g>
</g>
<g>
</g>
<g>
</g>
<g>
</g>
<g>
</g>
<g>
</g>
<g>
</g>
<g>
</g>
<g>
</g>
<g>
</g>
<g>
</g>
<g>
</g>
</svg>
