<svg xmlns="http://www.w3.org/2000/svg" width="2500" height="2500" viewBox="0 0 192.756 192.756">
    <g fill-rule="evenodd" clip-rule="evenodd">
        <path fill="#fff" d="M0 0h192.756v192.756H0V0z"/>
        <path d="M185.402 132.742c0 .107.107.215.107.215.107.322.432.322.646.322.322 0 .645-.107.645-.322 0-.324-.215-.432-.752-.539-.324-.107-.861-.215-.861-.645 0-.432.322-.754.861-.754.537 0 .969.322.969.754l-.324.107c0-.215-.107-.539-.537-.539-.215 0-.646.109-.646.432 0 .215.215.215.646.322.43.107.969.215.969.754 0 .43-.324.752-.969.752-.539 0-.861-.215-.969-.537v-.322h.215z"/>
        <path d="M121.391 63.135c-3.98-2.797-10.973-2.151-14.953.215-7.854 4.411-12.911 12.695-13.664 20.871 2.259-5.81 7.638-12.157 13.771-14.093 5.164-1.722 10.543-.215 13.447 3.55 7.424 8.714.646 21.409.646 21.409 5.164-4.842 8.283-11.941 7.854-19.58l18.396 31.844h-30.877c8.176-4.195 13.018-12.802 13.664-21.194-2.906 7.208-10.221 14.846-18.506 14.739-4.41 0-8.498-2.26-10.65-6.24-3.119-5.594-1.506-13.448 1.076-18.719-5.809 5.271-8.606 13.233-7.531 21.625.86 3.656 2.582 7.637 6.132 9.789h-25.82l36.255-62.828 10.76 18.612z"
              fill="#3f63a8"/>
        <path d="M95.033 110.795c-3.873-8.715-9.252-14.416-13.555-17.859 3.227-.43 6.885-1.721 12.049-4.626l1.614-.861-.753-1.829-4.088-9.36-.968-2.152-2.044 1.184c-.108.108-4.411 2.259-9.36 1.721 5.379-1.398 9.36-6.239 9.36-12.049a12.535 12.535 0 0 0-12.587-12.587c-6.885 0-12.48 5.594-12.48 12.587 0 2.797.968 5.379 2.582 7.531-6.777 4.626-8.714 12.265-9.252 19.042-.215 1.721-.323 2.259-.323 2.474-4.303 8.823-13.555 10.114-13.986 10.221l-2.689.322.968 2.475 4.411 11.941.538 1.721 1.829-.43c13.448-2.797 18.289-9.037 22.162-14.094 9.467 4.734 12.91 12.373 12.91 12.373.323.43 1.076 1.936 1.076 1.936l1.829-1.184 9.897-5.809 1.722-.969-.862-1.719z"/>
        <path d="M74.7 56.896c4.518 0 8.069 3.55 8.069 8.068 0 4.411-3.551 7.961-8.069 7.961a7.943 7.943 0 0 1-7.961-7.961c0-4.518 3.55-8.068 7.961-8.068zM84.167 114.451c-1.722-3.119-6.025-8.82-15.492-12.908-.322-.215-.646-.324-.968-.324-.538 0-1.076.324-1.399.646l-.968 1.291c-3.442 4.625-7.315 9.789-18.074 12.588l-2.904-7.854c3.765-1.076 10.866-4.09 14.631-12.05.323-.43.538-1.506.753-3.873.753-8.821 3.12-13.556 8.284-16.46 1.291.753 2.689 1.398 4.303 1.721v.538c.108.646.108 1.291.323 1.829l.431.968.968.323c5.271 1.829 10.435.323 13.233-.86l2.474 5.486c-7.854 4.088-11.296 3.551-15.384 2.905 0 0-.968-.107-1.291-.107-1.184 0-1.829.861-2.044 2.044-.215 1.291.968 1.829.968 1.829.431.43 11.296 4.519 18.397 18.612l-6.241 3.656z"
              fill="#edd494"/>
        <path d="M10.042 139.088H7.138l.86-2.365c.215-.754.43-1.508.538-2.26h.107c.107.752.323 1.398.538 2.043l.861 2.582zm4.627 4.519l-4.303-12.48H7.031l-4.196 12.48H5.74l.753-2.26h4.303l.753 2.26h3.12zM23.598 137.367c0 2.797-1.614 3.873-2.904 3.873-2.044 0-2.905-1.506-2.905-3.98 0-2.582 1.398-3.766 2.905-3.766 1.936 0 2.904 1.399 2.904 3.873zm3.12-.215c0-4.303-2.475-6.24-5.81-6.24s-6.132 2.582-6.132 6.67c0 3.873 1.829 6.24 5.702 6.24 3.443 0 6.24-2.582 6.24-6.67zM28.332 143.607v-12.48h2.905v9.898h3.657v2.582h-6.562zM41.995 143.607h-2.367l2.367-12.48h2.367l-2.367 12.48zM52.323 143.607h-2.367l1.184-5.703c.215-1.182 0-1.613-.646-1.613-1.183 0-2.797 2.906-3.228 4.949l-.43 2.367h-2.367l.968-4.842c.108-.752.646-3.441.753-4.303h2.259c-.107.537-.323 1.398-.753 2.797.861-1.613 2.044-3.012 3.873-3.012 1.721 0 2.259 1.291 1.937 3.012l-1.183 6.348zM60.607 136.184c-.431-.107-.861-.215-1.291-.215-.968 0-1.398.43-1.398 1.076 0 1.076 2.366 1.613 2.366 3.658 0 1.506-1.291 3.119-4.195 3.119-.538 0-1.076-.107-1.614-.107l.43-2.045c.431.107.968.217 1.398.217.968 0 1.614-.324 1.614-.969 0-1.291-2.367-1.506-2.367-3.658 0-1.721 1.291-3.012 3.873-3.012.646 0 1.076 0 1.614.107l-.43 1.829zM68.03 136.291h-2.151l-.753 4.088c-.215 1.184-.108 1.398.645 1.398.43 0 .861 0 1.184-.107l-.215 1.938c-.646.107-1.291.215-1.937.215-1.937 0-2.474-.969-2.044-3.119l.753-4.412h-1.506l.323-1.828h1.614l.538-2.797 2.366-.539-.646 3.336h2.152l-.323 1.827zM75.13 136.291l-.107.539c-.431 1.936-2.044 4.947-3.335 4.947-.431 0-.646-.322-.646-1.291 0-1.936.968-4.41 3.012-4.41.431 0 .754.108 1.076.215zm2.582-1.721c-.968-.215-2.152-.322-3.228-.322-3.98 0-5.917 3.227-5.917 6.67 0 2.043.753 2.904 2.151 2.904 1.829 0 3.12-1.828 3.873-3.119-.322 1.291-.646 2.15-.86 2.904h2.367c.323-2.367.861-4.841 1.614-9.037zM86.319 143.607H84.06l1.075-5.703c.215-1.182 0-1.613-.538-1.613-1.291 0-2.905 2.906-3.335 4.949l-.43 2.367h-2.367l.968-4.842c.215-.752.646-3.441.753-4.303h2.259c-.107.537-.323 1.398-.753 2.797.861-1.613 2.152-3.012 3.873-3.012 1.722 0 2.259 1.291 1.937 3.012l-1.183 6.348zM95.033 136.291h-2.152l-.86 4.088c-.107 1.184 0 1.398.753 1.398.431 0 .753 0 1.184-.107l-.323 1.938c-.538.107-1.291.215-1.829.215-1.936 0-2.474-.969-2.152-3.119l.861-4.412h-1.506l.323-1.828h1.506l.538-2.797 2.475-.539-.646 3.336h2.151l-.323 1.827zM113.969 143.607h-2.582l.322-5.918c0-1.184.107-2.15.215-3.012h-.107c-.215.861-.646 1.721-1.076 2.689l-3.227 6.24h-2.26l-.754-5.811c-.107-.967-.215-2.15-.215-3.119-.322 1.076-.537 2.152-.969 3.227l-1.721 5.703H99.12l4.195-12.48h2.799l.859 6.455c.107.861.107 1.723.107 2.582.432-.967.754-1.613 1.184-2.582l3.336-6.455h2.689l-.32 12.481zM121.713 136.83c0 .967-1.182 1.398-3.227 1.506.322-1.184 1.076-2.367 2.26-2.367.537 0 .967.322.967.861zm2.26-.324c0-1.074-.752-2.258-3.012-2.258-2.797 0-5.164 2.582-5.164 6.455 0 2.043.969 3.119 3.227 3.119 1.291 0 2.475-.215 3.443-.646v-1.828a5.837 5.837 0 0 1-2.689.646c-1.184 0-1.613-.324-1.613-1.398v-.754c3.657-.108 5.808-1.184 5.808-3.336zM130.428 136.184c-.43-.107-.859-.215-1.291-.215-.969 0-1.398.43-1.398 1.076 0 1.076 2.367 1.613 2.367 3.658 0 1.506-1.291 3.119-4.195 3.119-.539 0-1.076-.107-1.613-.107l.43-2.045c.43.107.969.217 1.398.217.969 0 1.613-.324 1.613-.969 0-1.291-2.367-1.506-2.367-3.658 0-1.721 1.291-3.012 3.873-3.012.646 0 1.076 0 1.615.107l-.432 1.829zM137.314 136.184c-.324-.107-.754-.215-1.184-.215-.969 0-1.4.43-1.4 1.076 0 1.076 2.367 1.613 2.367 3.658 0 1.506-1.398 3.119-4.195 3.119-.645 0-1.184-.107-1.613-.107l.43-2.045c.43.107.969.217 1.398.217.969 0 1.506-.324 1.506-.969 0-1.291-2.365-1.506-2.365-3.658 0-1.721 1.291-3.012 3.98-3.012.537 0 1.076 0 1.506.107l-.43 1.829zM144.521 136.83c0 .967-1.076 1.398-3.229 1.506.324-1.184 1.076-2.367 2.26-2.367.647 0 .969.322.969.861zm2.26-.324c0-1.074-.646-2.258-2.904-2.258-2.906 0-5.166 2.582-5.166 6.455 0 2.043.861 3.119 3.229 3.119a9.306 9.306 0 0 0 3.443-.646v-1.828c-.861.43-1.83.646-2.689.646-1.291 0-1.723-.324-1.723-1.398 0-.217 0-.539.107-.754 3.551-.108 5.703-1.184 5.703-3.336zM155.279 143.607h-2.258l1.074-5.703c.215-1.182 0-1.613-.537-1.613-1.291 0-2.904 2.906-3.336 4.949l-.43 2.367h-2.367l.969-4.842c.215-.752.645-3.441.754-4.303h2.258c-.107.537-.322 1.398-.752 2.797.859-1.613 2.15-3.012 3.873-3.012 1.721 0 2.258 1.291 1.936 3.012l-1.184 6.348zM164.424 136.291l-.107.539c-.43 1.936-2.043 4.947-3.334 4.947-.539 0-.754-.322-.754-1.291 0-1.936.969-4.41 3.119-4.41.431 0 .754.108 1.076.215zm2.582-1.721a16.419 16.419 0 0 0-3.227-.322c-4.088 0-5.918 3.227-5.918 6.67 0 2.043.754 2.904 2.152 2.904 1.828 0 3.119-1.828 3.873-3.119-.539 1.506-.754 2.15-.969 3.227-.322 1.613-1.291 2.26-3.012 2.26-.861 0-1.83-.215-2.582-.539l-.539 2.152c.754.322 1.723.43 2.689.43 3.551 0 5.164-1.506 5.703-4.088l1.83-9.575zM173.676 136.83c0 .967-1.076 1.398-3.227 1.506.322-1.184 1.076-2.367 2.367-2.367.538 0 .86.322.86.861zm2.367-.324c0-1.074-.752-2.258-3.012-2.258-2.904 0-5.164 2.582-5.164 6.455 0 2.043.861 3.119 3.227 3.119a9.306 9.306 0 0 0 3.443-.646v-1.828a6.171 6.171 0 0 1-2.689.646c-1.291 0-1.721-.324-1.721-1.398 0-.217.107-.539.107-.754 3.549-.108 5.809-1.184 5.809-3.336zM182.928 136.506c-1.398-.43-3.012 2.045-3.549 5.164l-.432 1.938h-2.258l.859-4.842c.215-.752.646-3.441.861-4.303h2.152c-.109.645-.324 1.506-.754 2.797.969-1.936 2.045-3.229 3.551-3.012l-.43 2.258zM187.555 131.127h.43l.646 1.723c.107.215.107.322.107.322 0-.107 0-.107.107-.322l.645-1.723h.432v2.475h-.324v-2.043l-.752 2.043h-.322l-.646-2.15v2.15h-.322v-2.475h-.001z"/>
    </g>
</svg>