<?xml version="1.0" encoding="iso-8859-1"?>
<!-- Generator: Adobe Illustrator 19.0.0, SVG Export Plug-In . SVG Version: 6.00 Build 0)  -->
<svg xmlns="http://www.w3.org/2000/svg" xmlns:xlink="http://www.w3.org/1999/xlink" version="1.1" id="Layer_1" x="0px" y="0px" viewBox="0 0 371.599 371.599" style="enable-background:new 0 0 371.599 371.599;" xml:space="preserve">
<path style="fill:#171715;" d="M282.074,221.289l-11.073-17.113c-3.413-5.274-5.228-11.422-5.228-17.704V114.59  c0-28.693,2.079-89.823-79.842-89.823c-66.643,0-87.251,35.516-93.623,57.483c-2.53,8.721,3.415,17.601,12.448,18.533l25.83,2.665  c6.08,0.627,11.91-2.6,14.547-8.114c5.007-10.473,13.735-26.07,40.668-26.07c10.434,0,25.106,4.413,25.106,17.316  c0,18.722-0.025,27.595-0.025,27.595l0,0c0.07,3.907-3.078,7.113-6.986,7.113h-25.247c-19.05,0-91.438,9.769-91.438,82.157  s76.813,64.059,81.913,62.864c9.515-2.23,27.342-8.741,44.096-24.717c2.815-2.684,7.306-2.45,9.751,0.575l13.529,16.742  c5.259,6.508,14.933,7.192,21.056,1.49l22.239-20.713C284.914,234.917,285.875,227.163,282.074,221.289z M171.028,217.255  c-25.717,0-24.984-23.251-19.05-34.289c5.552-10.328,20.221-28.636,59.602-29.883l0.345,19.212  c0.257,14.281-6.313,27.999-17.995,36.218C186.692,213.607,178.795,217.255,171.028,217.255z"/>
<g>
	<path style="fill:#FFAC35;" d="M1.534,283.353c-3.911-3.534,0.345-9.793,5.073-7.464c33.229,16.369,95.786,41.676,164.935,41.676   c70.665,0,129.782-16.879,159.536-27.296c4.838-1.694,8.324,4.639,4.341,7.866c-23.606,19.119-74.3,48.697-162.019,48.697   C86.01,346.832,29.244,308.394,1.534,283.353z"/>
	<path style="fill:#FFAC35;" d="M299.936,273.051c9.218-6.825,32.12-18.591,66.348-8.303c3.145,0.945,5.289,3.855,5.313,7.139   c0.083,11.229-2.337,37.593-24.318,59.502c-1.526,1.521-4.096,0.028-3.531-2.052c3.754-13.824,11.385-43.476,8.964-47.613   c-2.776-4.743-37.465-4.969-51.52-4.864C299.141,276.876,298.288,274.271,299.936,273.051z"/>
</g>
<g>
</g>
<g>
</g>
<g>
</g>
<g>
</g>
<g>
</g>
<g>
</g>
<g>
</g>
<g>
</g>
<g>
</g>
<g>
</g>
<g>
</g>
<g>
</g>
<g>
</g>
<g>
</g>
<g>
</g>
</svg>
