<?xml version="1.0" encoding="UTF-8" standalone="no"?>
<svg width="313px" height="96px" viewBox="0 0 313 96" version="1.1" xmlns="http://www.w3.org/2000/svg">
    <!-- Generator: Sketch 3.2 (9961) - http://www.bohemiancoding.com/sketch -->
    <title>bebo_logo</title>
    <desc>Created with Sketch.</desc>
    <defs/>
    <g id="Welcome" stroke="none" stroke-width="1" fill="none" fill-rule="evenodd">
        <g id="Desktop-HD" transform="translate(-871.000000, -245.000000)" fill="#DE484A">
            <g id="text_container" transform="translate(760.000000, 245.000000)">
                <g id="bebo_logo" transform="translate(111.000000, 0.000000)">
                    <path d="M72.763,46.319 C70.918,42.065 68.346,38.275 65.116,35.053 C61.875,31.835 58.075,29.275 53.823,27.444 C49.566,25.604 44.952,24.672 40.111,24.672 L21.045,24.654 C18.649,24.652 16.698,22.7 16.697,20.304 L16.69,8.276 C16.69,3.926 13.193,0.519 8.728,0.519 C4.339,0.519 0.769,4.092 0.769,8.483 L0.794,59.99 C0.794,64.822 1.727,69.437 3.569,73.71 C5.424,77.985 7.99,81.78 11.197,84.991 C14.424,88.206 18.219,90.768 22.476,92.608 C26.747,94.446 31.366,95.378 36.203,95.378 L40.144,95.378 C44.986,95.378 49.604,94.446 53.872,92.607 C58.152,90.758 61.946,88.195 65.147,84.993 C68.357,81.792 70.923,78.003 72.774,73.732 C74.62,69.489 75.556,64.876 75.556,60.02 C75.556,55.177 74.617,50.567 72.763,46.319 L72.763,46.319 Z M59.639,60.02 C59.639,62.658 59.131,65.202 58.129,67.58 C57.117,69.96 55.709,72.049 53.938,73.795 C52.154,75.578 50.055,76.98 47.699,77.962 C45.331,78.954 42.782,79.457 40.123,79.457 L36.238,79.457 C33.564,79.457 31.01,78.95 28.643,77.949 C26.286,76.965 24.187,75.558 22.402,73.765 C20.639,72.013 19.23,69.912 18.214,67.527 C17.221,65.157 16.718,62.604 16.718,59.941 L16.712,48.729 C16.711,46.552 17.558,44.504 19.098,42.963 C20.638,41.423 22.685,40.575 24.863,40.575 L40.109,40.589 C42.767,40.589 45.321,41.093 47.699,42.087 C50.072,43.083 52.171,44.484 53.939,46.253 C55.719,48.029 57.132,50.122 58.134,52.468 C59.133,54.851 59.639,57.392 59.639,60.02 L59.639,60.02 Z" id="Fill-1"/>
                    <path d="M231.1,46.319 C229.256,42.066 226.683,38.276 223.453,35.053 C220.213,31.836 216.412,29.276 212.159,27.444 C207.902,25.604 203.289,24.672 198.447,24.672 L179.381,24.654 C176.985,24.652 175.035,22.7 175.033,20.304 L175.027,8.276 C175.027,3.926 171.529,0.519 167.064,0.519 C162.676,0.519 159.106,4.092 159.106,8.483 L159.131,59.99 C159.131,64.82 160.064,69.435 161.906,73.71 C163.76,77.985 166.327,81.78 169.534,84.991 C172.76,88.206 176.555,90.768 180.814,92.608 C185.085,94.446 189.703,95.378 194.54,95.378 L198.481,95.378 C203.322,95.378 207.94,94.446 212.209,92.607 C216.487,90.759 220.281,88.196 223.484,84.993 C226.694,81.791 229.259,78.002 231.11,73.732 C232.957,69.49 233.893,64.877 233.893,60.02 C233.893,55.177 232.954,50.567 231.1,46.319 L231.1,46.319 Z M217.976,60.02 C217.976,62.658 217.468,65.202 216.467,67.58 C215.455,69.959 214.047,72.048 212.275,73.795 C210.488,75.58 208.389,76.981 206.036,77.962 C203.667,78.954 201.118,79.457 198.46,79.457 L194.575,79.457 C191.9,79.457 189.346,78.95 186.98,77.949 C184.62,76.963 182.521,75.555 180.739,73.765 C178.976,72.012 177.566,69.911 176.551,67.528 C175.558,65.155 175.055,62.603 175.055,59.941 L175.049,48.73 C175.048,46.552 175.895,44.503 177.434,42.963 C178.974,41.423 181.022,40.575 183.2,40.575 L198.446,40.589 C201.104,40.589 203.658,41.093 206.036,42.088 C208.408,43.083 210.508,44.484 212.276,46.253 C214.057,48.03 215.47,50.123 216.471,52.468 C217.47,54.851 217.976,57.392 217.976,60.02 L217.976,60.02 Z" id="Fill-2"/>
                    <path d="M310.095,46.233 C308.253,41.964 305.687,38.17 302.471,34.958 C299.257,31.743 295.463,29.177 291.192,27.329 C286.912,25.49 282.294,24.556 277.468,24.556 L273.876,24.556 C269.041,24.556 264.422,25.49 260.148,27.331 C255.884,29.174 252.089,31.74 248.865,34.958 C245.658,38.163 243.09,41.956 241.231,46.233 C239.394,50.491 238.464,55.119 238.464,59.99 C238.464,64.834 239.394,69.449 241.232,73.71 C243.093,77.992 245.661,81.787 248.868,84.992 C252.115,88.223 255.911,90.786 260.145,92.606 C264.378,94.445 268.997,95.378 273.876,95.378 L277.468,95.378 C282.316,95.378 286.934,94.446 291.195,92.607 C295.477,90.759 299.271,88.193 302.47,84.985 C305.688,81.776 308.253,77.982 310.093,73.712 C311.937,69.482 312.873,64.852 312.873,59.951 C312.873,55.076 311.937,50.46 310.095,46.233 L310.095,46.233 Z M296.959,59.974 C296.959,62.629 296.454,65.175 295.459,67.54 C294.451,69.915 293.042,72.011 291.267,73.774 C289.49,75.554 287.391,76.96 285.024,77.951 C282.664,78.95 280.115,79.457 277.45,79.457 L273.893,79.457 C271.225,79.457 268.675,78.95 266.308,77.948 C263.948,76.964 261.847,75.559 260.064,73.77 C258.295,72.012 256.888,69.916 255.883,67.545 C254.884,65.175 254.377,62.626 254.377,59.968 C254.377,57.311 254.883,54.768 255.881,52.409 C256.889,50.027 258.299,47.928 260.072,46.163 C261.82,44.401 263.921,42.995 266.313,41.985 C268.678,40.989 271.228,40.485 273.893,40.485 L277.45,40.485 C280.117,40.485 282.668,40.989 285.031,41.983 C287.42,42.994 289.517,44.399 291.267,46.158 C293.046,47.94 294.456,50.042 295.457,52.401 C296.454,54.769 296.959,57.317 296.959,59.974 L296.959,59.974 Z" id="Fill-3"/>
                    <path d="M151.541,46.582 C149.722,42.36 147.173,38.593 143.963,35.384 C140.765,32.187 136.999,29.639 132.769,27.809 C128.513,25.983 123.928,25.056 119.143,25.056 L115.548,25.056 C110.747,25.056 106.16,25.983 101.909,27.811 C97.655,29.659 93.887,32.207 90.709,35.385 C87.507,38.593 84.958,42.36 83.132,46.582 C81.303,50.828 80.375,55.424 80.375,60.24 C80.375,65.028 81.303,69.612 83.132,73.865 C84.961,78.09 87.51,81.857 90.71,85.062 C93.893,88.245 97.662,90.791 101.912,92.628 C106.142,94.453 110.729,95.378 115.548,95.378 L132.09,95.378 C136.09,95.378 139.472,92.493 139.957,88.668 C140.237,86.457 139.558,84.236 138.093,82.574 C136.627,80.911 134.52,79.957 132.311,79.957 L115.569,79.957 C112.859,79.957 110.276,79.444 107.888,78.429 C105.505,77.436 103.374,76.013 101.555,74.204 C100.554,73.204 99.66,72.091 98.897,70.894 C98.786,70.721 98.634,70.439 98.442,70.06 C98.179,69.538 98.204,68.929 98.512,68.429 C98.818,67.931 99.35,67.634 99.933,67.634 L146.349,67.663 C150.639,67.663 154.275,64.09 154.288,59.846 C154.236,55.144 153.312,50.681 151.541,46.582 L151.541,46.582 Z M135.724,51.44 C135.394,51.989 134.815,52.317 134.175,52.317 L100.458,52.317 C99.81,52.317 99.226,51.982 98.897,51.421 C98.57,50.866 98.561,50.2 98.873,49.642 C99.013,49.39 99.142,49.172 99.254,49.009 C99.933,48.015 100.707,47.081 101.554,46.234 C103.356,44.439 105.487,43.015 107.888,42.004 C110.284,40.996 112.868,40.485 115.569,40.485 L119.122,40.485 C121.815,40.485 124.395,40.996 126.792,42.004 C129.192,43.015 131.324,44.438 133.124,46.232 C133.884,46.992 134.666,47.945 135.385,48.989 C135.476,49.12 135.606,49.35 135.775,49.67 C136.072,50.232 136.054,50.893 135.724,51.44 L135.724,51.44 Z" id="Fill-4"/>
                </g>
            </g>
        </g>
    </g>
</svg>