<?xml version="1.0" encoding="iso-8859-1"?>
<!-- Generator: Adobe Illustrator 19.0.0, SVG Export Plug-In . SVG Version: 6.00 Build 0)  -->
<svg xmlns="http://www.w3.org/2000/svg" xmlns:xlink="http://www.w3.org/1999/xlink" version="1.1" id="Layer_1" x="0px" y="0px" viewBox="0 0 458.443 458.443" style="enable-background:new 0 0 458.443 458.443;" xml:space="preserve">
<g>
	<path style="fill:#0067FF;" d="M194.019,206.642c7.935-12.351,12.466-27.086,12.204-42.884   c-0.702-42.275-35.884-75.87-78.166-75.87H10.012C4.483,87.888,0,92.371,0,97.9v259.595c0,5.529,4.483,10.012,10.012,10.012   h131.861c48.941,0,89.482-39.226,89.682-88.167C231.678,249.346,216.804,222.754,194.019,206.642z M51.787,139.675h77.278   c13.995,0,25.382,11.386,25.382,25.382c0,13.995-11.386,25.382-25.382,25.382H51.787V139.675z M143.023,315.72H51.787v-73.494   h77.278h13.957c20.262,0,36.747,16.485,36.747,36.747C179.769,299.235,163.285,315.72,143.023,315.72z"/>
	<path style="fill:#0067FF;" d="M458.443,260.931c0-60.447-47.642-109.623-106.203-109.623s-106.203,49.177-106.203,109.623   S293.68,370.555,352.24,370.555c35.534,0,68.552-18.216,88.324-48.729c2.465-3.804,4.704-7.779,6.691-11.876   c1.442-2.974-0.746-6.435-4.052-6.443l-52.206-0.13c-1.155-0.003-2.25,0.469-3.078,1.274c-9.858,9.585-21.944,14.116-35.679,14.116   c-25.945,0-47.694-19.405-53.108-45.274H448.05c5.74,0,10.393-4.653,10.393-10.393V260.931z M352.24,203.095   c19.002,0,35.75,10.413,45.486,26.145h-90.971C316.49,213.508,333.239,203.095,352.24,203.095z"/>
	<path style="fill:#0067FF;" d="M396.37,138.44h-94.197c-4.395,0-7.958-3.563-7.958-7.958v-23.631c0-4.395,3.563-7.958,7.958-7.958   h94.197c4.395,0,7.958,3.563,7.958,7.958v23.631C404.328,134.878,400.765,138.44,396.37,138.44z"/>
</g>
<g>
</g>
<g>
</g>
<g>
</g>
<g>
</g>
<g>
</g>
<g>
</g>
<g>
</g>
<g>
</g>
<g>
</g>
<g>
</g>
<g>
</g>
<g>
</g>
<g>
</g>
<g>
</g>
<g>
</g>
</svg>
