<?xml version="1.0" encoding="iso-8859-1"?>
<!-- Generator: Adobe Illustrator 19.0.0, SVG Export Plug-In . SVG Version: 6.00 Build 0)  -->
<svg xmlns="http://www.w3.org/2000/svg" xmlns:xlink="http://www.w3.org/1999/xlink" version="1.1" id="Layer_1" x="0px" y="0px" viewBox="0 0 457.944 457.944" style="enable-background:new 0 0 457.944 457.944;" xml:space="preserve">
<g>
	<path style="fill:#00AEF0;" d="M232.989,182.012c-33.693,0-62.711,20.378-75.391,49.453   c-12.681-29.075-41.699-49.453-75.391-49.453c-15.719,0-30.419,4.438-42.92,12.121v-67.64c0-10.849-8.795-19.643-19.643-19.643   S0,115.644,0,126.494v137.724c0,45.329,36.878,82.206,82.206,82.206c33.693,0,62.711-20.378,75.391-49.453   c12.681,29.076,41.699,49.453,75.391,49.453c45.328,0,82.206-36.878,82.206-82.206C315.196,218.89,278.318,182.012,232.989,182.012   z M82.206,307.137c-23.666,0-42.92-19.253-42.92-42.92c0-23.665,19.254-42.919,42.92-42.919s42.919,19.253,42.919,42.919   C125.126,287.884,105.872,307.137,82.206,307.137z M232.989,307.137c-23.666,0-42.919-19.253-42.919-42.92   c0-23.665,19.253-42.919,42.919-42.919s42.919,19.253,42.919,42.919C275.909,287.884,256.655,307.137,232.989,307.137z"/>
	<path style="fill:#00AEF0;" d="M404.896,263.403l48.192-55.117c7.141-8.167,6.309-20.577-1.858-27.718s-20.577-6.309-27.718,1.858   l-44.709,51.134l-44.709-51.134c-7.141-8.167-19.55-8.998-27.718-1.858c-8.167,7.141-8.999,19.551-1.858,27.718l48.192,55.117   l-48.192,55.117c-7.141,8.167-6.309,20.577,1.858,27.718c3.725,3.258,8.333,4.855,12.922,4.855c5.47,0,10.913-2.272,14.796-6.713   l44.709-51.134l44.709,51.134c3.884,4.442,9.325,6.713,14.796,6.713c4.588,0,9.196-1.599,12.922-4.855   c8.167-7.141,8.999-19.551,1.858-27.718L404.896,263.403z"/>
</g>
<g>
</g>
<g>
</g>
<g>
</g>
<g>
</g>
<g>
</g>
<g>
</g>
<g>
</g>
<g>
</g>
<g>
</g>
<g>
</g>
<g>
</g>
<g>
</g>
<g>
</g>
<g>
</g>
<g>
</g>
</svg>
