<?xml version="1.0" encoding="iso-8859-1"?>
<!-- Generator: Adobe Illustrator 19.0.0, SVG Export Plug-In . SVG Version: 6.00 Build 0)  -->
<svg xmlns="http://www.w3.org/2000/svg" xmlns:xlink="http://www.w3.org/1999/xlink" version="1.1" id="Layer_1" x="0px" y="0px" viewBox="0 0 355.467 355.467" style="enable-background:new 0 0 355.467 355.467;" xml:space="preserve">
<path style="fill:#90A358;" d="M355.326,162.463L342.718,36.187c-1.382-13.846-12.55-24.676-26.431-25.633L194.552,2.161  c-8.098-0.558-16.051,2.359-21.867,8.021L8.631,169.883c-11.4,11.098-11.523,29.375-0.273,40.624l134.508,134.508  c11.038,11.038,28.897,11.158,40.082,0.269l163.888-159.541C353.064,179.682,356.189,171.112,355.326,162.463z M261.305,203.598  l-20.545,34.805l-40.175-27.623c-2.65-1.822-6.232,0.223-6.01,3.431l3.366,48.639h-40.417l3.366-48.639  c0.222-3.208-3.36-5.254-6.01-3.431l-40.175,27.623L94.16,203.598l44.802-22.429c2.83-1.417,2.83-5.455,0-6.872L94.16,151.869  l20.545-34.805l40.175,27.623c2.65,1.822,6.232-0.223,6.01-3.431l-3.366-48.639h40.417l-3.366,48.639  c-0.222,3.208,3.36,5.254,6.01,3.431l40.175-27.623l20.545,34.805l-51.665,25.864L261.305,203.598z M287.721,87.745  c-11.001,0-19.918-8.918-19.918-19.918s8.918-19.918,19.918-19.918c11.001,0,19.918,8.918,19.918,19.918  S298.721,87.745,287.721,87.745z"/>
<g>
</g>
<g>
</g>
<g>
</g>
<g>
</g>
<g>
</g>
<g>
</g>
<g>
</g>
<g>
</g>
<g>
</g>
<g>
</g>
<g>
</g>
<g>
</g>
<g>
</g>
<g>
</g>
<g>
</g>
</svg>
