<?xml version="1.0" encoding="iso-8859-1"?>
<!-- Generator: Adobe Illustrator 19.0.0, SVG Export Plug-In . SVG Version: 6.00 Build 0)  -->
<svg xmlns="http://www.w3.org/2000/svg" xmlns:xlink="http://www.w3.org/1999/xlink" version="1.1" id="Layer_1" x="0px" y="0px" viewBox="0 0 425.276 425.276" style="enable-background:new 0 0 425.276 425.276;" xml:space="preserve">
<path style="fill:#A6285F;" d="M212.638,0C95.201,0,0,95.201,0,212.638s95.201,212.638,212.638,212.638  s212.638-95.201,212.638-212.638S330.074,0,212.638,0z M384.599,197.347c-22.571-0.907-65.28-0.93-113.812,7.556  c-4.384-10.511-8.862-20.591-13.362-30.209c2.811-1.312,5.599-2.646,8.334-4.024c33.334-16.799,61.016-38.531,82.59-64.764  C369.149,132.246,381.674,163.799,384.599,197.347z M319.958,77.397c-20.137,25.651-46.978,46.245-80.323,61.637  c-3.751-7.068-7.448-13.791-11.036-20.102c-18.354-32.279-35.867-57.969-48.968-75.791C190.394,41.069,201.433,40,212.638,40  C252.104,40,289.541,53.164,319.958,77.397z M90.564,90.564c14.403-14.403,30.905-25.942,48.814-34.344  c12.573,16.328,33.28,45.133,54.976,83.412c2.48,4.376,5.018,8.972,7.587,13.735c-16.671,5.154-34.572,9.303-53.706,12.419  c-42.926,6.99-81.612,6.778-103.339,5.784C52.283,141.159,67.871,113.258,90.564,90.564z M40,212.638  c0-0.409,0.012-0.817,0.015-1.225c7.377,0.393,16.766,0.715,27.711,0.715c23.124,0,53.197-1.44,85.907-6.694  c23.596-3.791,45.835-9.141,66.534-15.992c3.659,7.752,7.307,15.831,10.902,24.214c-26.514,7.132-50.856,16.462-72.688,27.894  c-35.425,18.55-64.281,42.653-86.006,71.784C51.352,284.182,40,249.285,40,212.638z M99.989,343.473  c30.377-44.489,79.347-75.482,145.902-92.392c13.348,36.702,24.769,77.743,31.354,121.738  c-20.261,8.169-42.103,12.457-64.607,12.457C170.838,385.276,131.305,370.52,99.989,343.473z M334.711,334.711  c-6.372,6.372-13.159,12.175-20.292,17.404c-6.83-39.082-17.103-75.734-28.934-109.105c41.931-6.576,78.823-6.412,98.035-5.643  C378.284,274.097,361.414,308.009,334.711,334.711z"/>
<g>
</g>
<g>
</g>
<g>
</g>
<g>
</g>
<g>
</g>
<g>
</g>
<g>
</g>
<g>
</g>
<g>
</g>
<g>
</g>
<g>
</g>
<g>
</g>
<g>
</g>
<g>
</g>
<g>
</g>
</svg>
