<?xml version="1.0" encoding="iso-8859-1"?>
<!-- Generator: Adobe Illustrator 16.0.0, SVG Export Plug-In . SVG Version: 6.00 Build 0)  -->
<!DOCTYPE svg PUBLIC "-//W3C//DTD SVG 1.1//EN" "http://www.w3.org/Graphics/SVG/1.1/DTD/svg11.dtd">
<svg version="1.1" id="Capa_1" xmlns="http://www.w3.org/2000/svg" xmlns:xlink="http://www.w3.org/1999/xlink" x="0px" y="0px"
	 width="96.312px" height="96.312px" viewBox="0 0 96.312 96.312" style="enable-background:new 0 0 96.312 96.312;"
	 xml:space="preserve">
<g>
	<path d="M91.127,38.158l-8.193,16.454l-8.213-16.454h-5.723l1.463,2.745c-1.936-2.889-5.756-3.623-9.249-3.623
		c-10.22,0-10.874,5.596-10.874,6.49h5.086c0,0,0.268-3.267,5.438-3.267c3.36,0,5.965,1.538,5.965,4.494v1.053h-5.965
		c-6.609,0-10.617,1.616-11.76,4.886c0.119-0.724,0.184-1.474,0.184-2.255c0-6.282-4.236-11.335-11.391-11.335
		c-6.699,0-8.781,3.617-8.781,3.617V28.861h-4.911V47.28c-0.072-4.005-2.669-10-11.749-10C5.661,37.28,0,40.162,0,48.857
		c0,6.889,3.807,11.226,12.63,11.226c10.385,0,11.051-6.841,11.051-6.841h-5.032c0,0-1.079,3.684-6.326,3.684
		c-4.273,0-7.347-2.887-7.347-6.933h19.228v5.724c0,1.524-0.109,3.666-0.109,3.666h4.8c0,0,0.172-1.537,0.172-2.942
		c0,0,2.371,3.71,8.819,3.71c5.499,0,9.568-3.094,10.917-7.855c-0.026,0.25-0.042,0.508-0.042,0.773
		c0,4.626,3.867,7.143,9.095,7.143c7.123,0,9.416-3.937,9.416-3.937c0,1.565,0.121,3.108,0.121,3.108h4.521
		c0,0-0.176-1.912-0.176-3.137V45.673c0-1.414-0.235-2.597-0.647-3.59l9.164,17.202l-4.308,8.166h5.438l14.927-29.293H91.127z
		 M5.086,46.753c0-3.966,3.62-6.228,7.191-6.228c4.068,0,6.841,2.492,6.841,6.228H5.086z M36.688,56.827
		c-4.921,0-7.575-3.842-7.575-8.103c0-3.968,2.382-8.058,7.542-8.058c4.611,0,7.543,3.422,7.543,8.015
		C44.198,53.606,40.811,56.827,36.688,56.827z M66.824,50.611c0,1.83-1.129,6.381-7.776,6.381c-3.642,0-5.202-1.816-5.202-3.925
		c0-3.835,5.258-3.858,12.979-3.858V50.611z"/>
</g>
<g>
</g>
<g>
</g>
<g>
</g>
<g>
</g>
<g>
</g>
<g>
</g>
<g>
</g>
<g>
</g>
<g>
</g>
<g>
</g>
<g>
</g>
<g>
</g>
<g>
</g>
<g>
</g>
<g>
</g>
</svg>
