<?xml version="1.0" encoding="iso-8859-1"?>
<!-- Generator: Adobe Illustrator 19.0.0, SVG Export Plug-In . SVG Version: 6.00 Build 0)  -->
<svg xmlns="http://www.w3.org/2000/svg" xmlns:xlink="http://www.w3.org/1999/xlink" version="1.1" id="Layer_1" x="0px" y="0px" viewBox="0 0 352.666 352.666" style="enable-background:new 0 0 352.666 352.666;" xml:space="preserve">
<path style="fill:#E65300;" d="M307.167,249.56l-12.035,38.705c-6.414,20.625-25.501,34.679-47.1,34.679h-92.153  c-13.68,0-24.769-11.09-24.769-24.769V194.191h66.712c17.51,0,31.705,14.195,31.705,31.705v8.16c0,2.424,1.965,4.389,4.389,4.389  h13.679c2.424,0,4.389-1.965,4.389-4.389V114.035c0-2.424-1.965-4.389-4.389-4.389h-13.679c-2.424,0-4.389,1.965-4.389,4.389v12.784  c0,17.51-14.195,31.705-31.705,31.705H131.11V54.492c0-13.68,11.09-24.769,24.769-24.769h87.518  c22.617,0,40.952,18.335,40.952,40.952v24.674c0,2.424,1.965,4.389,4.389,4.389h15.995c2.289,0,4.194-1.759,4.375-4.042  l6.737-84.769C316.313,5.037,311.66,0,305.752,0H27.792c-3.86,0-6.989,3.129-6.989,6.989v15.745c0,3.86,3.129,6.989,6.989,6.989  h17.78c13.68,0,24.769,11.09,24.769,24.769v243.682c0,13.68-11.09,24.769-24.769,24.769h-17.78c-3.86,0-6.989,3.129-6.989,6.989  v15.745c0,3.86,3.129,6.989,6.989,6.989h280.196c5.014,0,9.273-3.67,10.014-8.63l13.812-92.525c0.396-2.653-1.659-5.037-4.341-5.037  h-16.114C309.436,246.474,307.738,247.724,307.167,249.56z"/>
<g>
</g>
<g>
</g>
<g>
</g>
<g>
</g>
<g>
</g>
<g>
</g>
<g>
</g>
<g>
</g>
<g>
</g>
<g>
</g>
<g>
</g>
<g>
</g>
<g>
</g>
<g>
</g>
<g>
</g>
</svg>
