<?xml version="1.0" encoding="iso-8859-1"?>
<!-- Generator: Adobe Illustrator 19.0.0, SVG Export Plug-In . SVG Version: 6.00 Build 0)  -->
<svg xmlns="http://www.w3.org/2000/svg" xmlns:xlink="http://www.w3.org/1999/xlink" version="1.1" id="Layer_1" x="0px" y="0px" viewBox="0 0 422.831 422.831" style="enable-background:new 0 0 422.831 422.831;" xml:space="preserve">
<path style="fill:#FF4175;" d="M351.473,16.308C342.622,5.944,329.728,0,316.098,0H106.729C81.077,0,60.208,20.869,60.208,46.521  V401.55c0,8.839,5.464,16.758,13.728,19.895c2.461,0.934,5.016,1.386,7.548,1.386c5.97,0,11.805-2.516,15.924-7.16l112.289-126.584  h75.355c23.023,0,42.347-16.504,45.948-39.244l31.048-196.045C364.179,40.336,360.325,26.672,351.473,16.308z M299.447,118.751  h-99.52c-11.93,0-21.982,9.763-21.756,21.692c0.219,11.563,9.661,20.869,21.276,20.869h90.013c6.547,0,11.546,5.849,10.526,12.316  l-10.082,63.943c-0.817,5.183-5.285,8.999-10.532,8.997l-79.247-0.04c-6.086,0-11.881,2.606-15.919,7.159l-81.439,91.807V46.521  c0-2.187,1.773-3.961,3.961-3.961h200.68c6.494,0,11.479,5.76,10.546,12.187l-7.962,54.877  C309.233,114.864,304.742,118.751,299.447,118.751z"/>
<g>
</g>
<g>
</g>
<g>
</g>
<g>
</g>
<g>
</g>
<g>
</g>
<g>
</g>
<g>
</g>
<g>
</g>
<g>
</g>
<g>
</g>
<g>
</g>
<g>
</g>
<g>
</g>
<g>
</g>
</svg>
