<?xml version="1.0" ?><!DOCTYPE svg  PUBLIC '-//W3C//DTD SVG 1.1//EN'>
<svg height="2048px"
     style="shape-rendering:geometricPrecision; text-rendering:geometricPrecision; image-rendering:optimizeQuality; fill-rule:evenodd; clip-rule:evenodd"
     viewBox="0 0 2048 2048" width="2048px" xml:space="preserve" xmlns="http://www.w3.org/2000/svg"><defs><style type="text/css">
   <![CDATA[
    .fil2 {fill:none}
    .fil0 {fill:#5585C4}
    .fil1 {fill:#AEC9E8;fill-rule:nonzero}
   ]]>
  </style></defs><g id="Layer_x0020_1"><path class="fil0" d="M400.363 703.547l0 -160.455c0,-2.64567 0.155906,-5.23111 0.39567,-7.86142 6.51615,-71.6646 18.9473,-148.29 61.2,-208.462 51.2776,-73.0253 128.421,-104.131 216.373,-104.131l377.031 0c44.1591,0 79.9997,35.8406 79.9997,79.9997l0 83.4851c8.64686,-21.7795 19.0819,-42.0485 31.2343,-59.354 51.2776,-73.0253 128.42,-104.131 216.372,-104.131l377.032 0c44.1591,0 79.9997,35.8406 79.9997,79.9997l0 226.56c0,44.1591 -35.8406,79.9997 -79.9997,79.9997l-205.781 0c-4.58859,0 -14.8158,0.206693 -21.4701,1.52008 -0.812599,3.77835 -1.25906,8.70946 -1.48347,12.0095l0 80.8205 134.645 0c44.1591,0 79.9997,35.8406 79.9997,79.9997l0 240.454c0,44.1591 -35.8406,79.9997 -79.9997,79.9997l-134.645 0 0 641.364c0,58.0028 -55.3831,75.1784 -102.072,80.1757 -34.7563,3.72048 -71.1225,3.90355 -106.074,3.61181 -45.9756,-0.38504 -92.5146,-3.7878 -138.121,-3.7878 -44.1591,0 -79.9997,-35.8406 -79.9997,-79.9997l0 -641.364 -278.372 0 0 641.364c0,44.1591 -35.8406,79.9997 -79.9997,79.9997l-266.266 0c-44.1591,0 -79.9997,-35.8406 -79.9997,-79.9997l0 -641.364 -112.364 0c-44.1591,0 -79.9997,-35.8406 -79.9997,-79.9997l0 -240.454c0,-44.1591 35.8406,-79.9997 79.9997,-79.9997l112.364 0zm704.637 -111.623c-13.6429,10.813 -30.8906,17.2725 -49.637,17.2725l-205.781 0c-4.57678,0 -14.7473,0.204331 -21.4217,1.50236 -0.830316,3.82441 -1.29921,8.71772 -1.53189,12.0591l0 80.7886 278.372 0 0 -111.623z"/><path class="fil1" d="M287.999 767.546l176.364 0 0 -224.455c0,-0.700394 0.0448819,-1.39016 0.132284,-2.06575 3.64607,-69.1241 17.6244,-131.601 49.8402,-177.48 33.4382,-47.6209 85.4198,-76.9099 163.997,-76.9099l377.031 0c8.83583,0 16.0004,7.16457 16.0004,16.0004l0 226.56c0,8.83583 -7.16457,16.0004 -16.0004,16.0004l-205.781 0c-28.7764,0 -50.3481,4.39252 -64.3075,15.9189 -13.4634,11.1165 -21.0414,30.176 -22.6666,60.0201l0.0212599 0 0 146.41 136.736 0 61.9087 0 207.725 0 0 -224.455c0,-55.8296 17.5193,-133.329 49.9737,-179.545 33.4382,-47.6209 85.4198,-76.9099 163.996,-76.9099l377.032 0c8.83583,0 16.0004,7.16457 16.0004,16.0004l0 226.56c0,8.83583 -7.16457,16.0004 -16.0004,16.0004l-205.781 0c-28.7374,0 -50.2867,4.39252 -64.2449,15.9189l0.0011811 0.0248032c-17.3244,14.315 -21.574,38.7662 -22.7303,59.9953l0.0212599 0 0 146.41 198.644 0c8.83583,0 16.0004,7.16457 16.0004,16.0004l0 240.454c0,8.83583 -7.16457,16.0004 -16.0004,16.0004l-198.644 0 0 705.363c0,31.6134 -244.883,16.0004 -282.267,16.0004 -8.83583,0 -16.0004,-7.16457 -16.0004,-16.0004l0 -705.363 -207.725 0 -61.9087 0 -136.736 0 0 705.363c0,8.83583 -7.16457,16.0004 -16.0004,16.0004l-266.266 0c-8.83583,0 -16.0004,-7.16457 -16.0004,-16.0004l0 -705.363 -176.364 0c-8.83583,0 -16.0004,-7.16457 -16.0004,-16.0004l0 -240.454c0,-8.83583 7.16457,-16.0004 16.0004,-16.0004z"/></g><rect class="fil2" height="2048" width="2048"/></svg>