<?xml version="1.0" encoding="iso-8859-1"?>
<!-- Generator: Adobe Illustrator 19.0.0, SVG Export Plug-In . SVG Version: 6.00 Build 0)  -->
<svg xmlns="http://www.w3.org/2000/svg" xmlns:xlink="http://www.w3.org/1999/xlink" version="1.1" id="Layer_1" x="0px" y="0px" viewBox="0 0 439.577 439.577" style="enable-background:new 0 0 439.577 439.577;" xml:space="preserve">
<path style="fill:#333F40;" d="M426.052,193.455v-3.828V118.58H289.231h-3.282l-13.309,66.879v-55.95h-81.372v37.412h-22.679v14.909  c-0.4-0.468-0.807-0.925-1.222-1.372c-8.23-8.856-19.478-13.537-32.527-13.537c-11.078,0-21.403,2.693-30.786,8.018V118.58H0v65.379  h16.815v66.295H0v65.378h281.887v-14.923c1.618,1.208,3.307,2.352,5.061,3.426c18.279,11.189,41.071,16.862,67.741,16.862  c11.912,0,30.805-3.714,48.103-14.137c20.601-12.413,32.964-30.583,35.755-52.546C441.755,229.058,437.438,208.109,426.052,193.455z  "/>
<g>
	<polygon style="fill:#FFFFFF;" points="267.273,264.867 258.026,264.867 258.026,181.535 183.201,181.535 183.201,217.687    200.015,217.687 200.015,264.867 183.201,264.867 183.201,301.019 267.273,301.019  "/>
	<rect x="205.88" y="144.12" style="fill:#FFFFFF;" width="52.15" height="30.27"/>
	<path style="fill:#FFFFFF;" d="M167.837,230.298c0,0,3.573-48.763-32.999-48.763c-24.281,0-38.547,16.855-45.399,28.189v-76.531   H14.613v36.152h16.815v95.522H14.613v36.152h84.073v-36.152h-9.248v-16.914c0,0-2.054-31.344,13.031-31.344   c6.016,0,8.407,5.104,8.407,9.525c0,12.693,0,38.733,0,38.733h-8.407v36.152h76.927v-36.152h-11.56v-34.569H167.837z"/>
</g>
<path style="fill:#FF9414;" d="M372.765,185.319c-18.749,0-32.433,4.79-41.795,10.009l3.248-16.315h77.221v-45.82H343.34h-43.298  h-2.102l-16.815,84.494l44.138,6.306c0,0,7.146-7.384,18.076-7.384s14.286,16.721,12.611,29.243  c-1.639,12.255-7.987,23.12-20.598,23.54c-5.871,0.196-9.736-2.888-12.192-6.241c1.601-3.383,2.523-7.151,2.523-11.143  c0-14.422-11.691-26.112-26.112-26.112s-25.671,11.697-26.112,26.112c-0.343,11.228,2.338,28.169,21.117,39.663  c20.724,12.685,44.638,14.713,60.112,14.713c20.734,0,64.307-14.137,69.36-53.912C429.069,212.96,413.961,185.319,372.765,185.319z"/>
<g>
</g>
<g>
</g>
<g>
</g>
<g>
</g>
<g>
</g>
<g>
</g>
<g>
</g>
<g>
</g>
<g>
</g>
<g>
</g>
<g>
</g>
<g>
</g>
<g>
</g>
<g>
</g>
<g>
</g>
</svg>
