<?xml version="1.0" encoding="iso-8859-1"?>
<!-- Generator: Adobe Illustrator 19.0.0, SVG Export Plug-In . SVG Version: 6.00 Build 0)  -->
<svg xmlns="http://www.w3.org/2000/svg" xmlns:xlink="http://www.w3.org/1999/xlink" version="1.1" id="Layer_1" x="0px" y="0px" viewBox="0 0 386.537 386.537" style="enable-background:new 0 0 386.537 386.537;" xml:space="preserve">
<path style="fill:#0090E1;" d="M291.116,146.816H140.443l-60.142-95.4c-7.872-12.487-21.6-20.06-36.36-20.06H14.687  c-11.543,0-18.56,12.719-12.405,22.484l80.841,128.235L4.261,333.753c-5.075,9.762,2.008,21.428,13.01,21.428h25.594  c16.036,0,30.739-8.927,38.136-23.155l61.306-117.917h154.379L234.48,333.752c-5.075,9.762,2.008,21.428,13.01,21.428h25.594  c16.036,0,30.739-8.927,38.136-23.155l72.11-138.695c4.662-8.967,4.215-19.735-1.175-28.285L310.522,51.416  c-7.872-12.486-21.6-20.06-36.36-20.06h-29.255c-11.543,0-18.561,12.719-12.405,22.484L291.116,146.816z"/>
<g>
</g>
<g>
</g>
<g>
</g>
<g>
</g>
<g>
</g>
<g>
</g>
<g>
</g>
<g>
</g>
<g>
</g>
<g>
</g>
<g>
</g>
<g>
</g>
<g>
</g>
<g>
</g>
<g>
</g>
</svg>
