<?xml version="1.0" encoding="iso-8859-1"?>
<!-- Generator: Adobe Illustrator 19.0.0, SVG Export Plug-In . SVG Version: 6.00 Build 0)  -->
<svg xmlns="http://www.w3.org/2000/svg" xmlns:xlink="http://www.w3.org/1999/xlink" version="1.1" id="Layer_1" x="0px" y="0px" viewBox="0 0 395.999 395.999" style="enable-background:new 0 0 395.999 395.999;" xml:space="preserve">
<g>
	<circle style="fill:#222A30;" cx="56.14" cy="175.7" r="51.01"/>
	<path style="fill:#222A30;" d="M55.449,240.044C24.567,240.416,0,266.188,0,297.072v14.363c0,3.325,2.696,6.021,6.021,6.021H106.26   c3.325,0,6.021-2.696,6.021-6.021V296.18C112.281,264.947,86.771,239.667,55.449,240.044z"/>
	<circle style="fill:#222A30;" cx="185.34" cy="164.05" r="55.21"/>
	<path style="fill:#222A30;" d="M184.592,233.681c-33.42,0.402-60.006,28.292-60.006,61.715v16.039c0,3.325,2.696,6.021,6.021,6.021   h109.467c3.325,0,6.021-2.696,6.021-6.021v-17.004C246.094,260.628,218.488,233.273,184.592,233.681z"/>
	<path style="fill:#222A30;" d="M326.422,204.991c34.917,0,63.223-28.308,63.223-63.229c0-34.913-28.307-63.221-63.223-63.221   c-34.919,0-63.223,28.308-63.223,63.221C263.199,176.683,291.504,204.991,326.422,204.991z"/>
	<path style="fill:#222A30;" d="M326.421,221.509L326.421,221.509c-38.427,0-69.578,31.151-69.578,69.578v20.349   c0,3.325,2.696,6.021,6.021,6.021h127.114c3.325,0,6.021-2.696,6.021-6.021v-20.348C396,252.66,364.848,221.509,326.421,221.509z"/>
</g>
<g>
</g>
<g>
</g>
<g>
</g>
<g>
</g>
<g>
</g>
<g>
</g>
<g>
</g>
<g>
</g>
<g>
</g>
<g>
</g>
<g>
</g>
<g>
</g>
<g>
</g>
<g>
</g>
<g>
</g>
</svg>
