<svg width="82" height="142" viewBox="0 0 82 142" fill="none" xmlns="http://www.w3.org/2000/svg">
<path d="M41.1697 72.9553C61.2652 72.9553 77.6473 56.5731 77.6473 36.4776C77.6473 16.3822 61.2652 0 41.1697 0C20.8558 0 4.47363 16.3822 4.47363 36.4776C4.47363 56.5731 20.8558 72.9553 41.1697 72.9553ZM41.1697 21.406C49.47 21.406 56.2413 28.1773 56.2413 36.4776C56.2413 44.7779 49.47 51.5492 41.1697 51.5492C32.8694 51.5492 26.0981 44.7779 26.0981 36.4776C25.8797 28.1773 32.651 21.406 41.1697 21.406Z" fill="#FF8800"/>
<path d="M55.8046 102.88C63.2312 101.133 70.4393 98.2932 76.9922 94.1431C82.0161 91.0851 83.5451 84.3138 80.2686 79.2899C77.2106 74.266 70.4393 72.737 65.4155 76.0135C50.5623 85.4059 31.1222 85.4059 16.269 76.0135C11.2451 72.9555 4.69228 74.266 1.41585 79.2899C-1.42372 84.3138 0.105278 90.8666 5.12914 93.9246C11.682 98.0748 18.8901 100.914 26.3167 102.662L6.00285 122.976C1.85271 127.126 1.85271 133.897 6.00285 138.047C8.18714 140.232 10.8083 141.105 13.6479 141.105C16.4874 141.105 19.1086 140.013 21.2929 138.047L41.3883 117.952L61.4837 138.047C65.6339 142.197 72.4052 142.197 76.5553 138.047C80.7055 133.897 80.7055 127.126 76.5553 122.976L55.8046 102.88Z" fill="#FF8800"/>
</svg>
