<?xml version="1.0" encoding="iso-8859-1"?>
<!-- Generator: Adobe Illustrator 19.0.0, SVG Export Plug-In . SVG Version: 6.00 Build 0)  -->
<svg xmlns="http://www.w3.org/2000/svg" xmlns:xlink="http://www.w3.org/1999/xlink" version="1.1" id="Layer_1" x="0px" y="0px" viewBox="0 0 395.955 395.955" style="enable-background:new 0 0 395.955 395.955;" xml:space="preserve">
<path style="fill:#EB4427;" d="M322.327,39.477C288.298,14.02,243.502,0,196.191,0c-47.232,0-91.57,14.342-124.845,40.384  c-35.04,27.425-54.339,64.572-54.339,104.601c0,37.081,5.851,65.753,34.547,98.815c3.444,3.968,9.492,4.291,13.303,0.674  l28.198-26.764c3.548-3.368,3.817-8.915,0.651-12.644c-17.423-20.518-19.479-35.481-19.479-60.081  c0-48.394,54.712-87.766,121.963-87.766c35.037,0,67.659,9.971,91.86,28.075c21.717,16.246,33.676,37.069,33.676,58.632  c0,20.673-4.582,48.997-26.409,66.528c-20.545,16.502-53.333,20.887-92.372,12.374V117.841c0-5.077-4.116-9.192-9.192-9.192h-40.732  c-5.077,0-9.192,4.116-9.192,9.192v214.126c-0.287,2.184-1.643,3.454-2.243,3.918c-1.612,1.243-2.95,0.97-3.39,0.879l-33.844-6.898  c-4.975-1.014-9.829,2.197-10.843,7.171l-8.134,39.911c-1.014,4.975,2.197,9.829,7.171,10.843l33.844,6.898  c4.165,0.849,8.366,1.266,12.549,1.266c13.877,0,27.529-4.596,38.774-13.278c14.97-11.558,24.152-29.036,25.188-47.952l0.045-0.809  v-52.828c12.564,2.106,24.76,3.151,36.486,3.151c36.099,0,67.718-9.899,91.716-29.173c31.27-25.114,47.8-63.546,47.8-111.141  C378.948,103.886,358.84,66.791,322.327,39.477z"/>
<g>
</g>
<g>
</g>
<g>
</g>
<g>
</g>
<g>
</g>
<g>
</g>
<g>
</g>
<g>
</g>
<g>
</g>
<g>
</g>
<g>
</g>
<g>
</g>
<g>
</g>
<g>
</g>
<g>
</g>
</svg>
