<?xml version="1.0" encoding="iso-8859-1"?>
<!-- Generator: Adobe Illustrator 19.0.0, SVG Export Plug-In . SVG Version: 6.00 Build 0)  -->
<svg xmlns="http://www.w3.org/2000/svg" xmlns:xlink="http://www.w3.org/1999/xlink" version="1.1" id="Layer_1" x="0px" y="0px" viewBox="0 0 412.439 412.439" style="enable-background:new 0 0 412.439 412.439;" xml:space="preserve">
<path style="fill:#9F1121;" d="M412.352,212.265c3.366-117.68-91.89-213.949-209.203-212.243  C90.239,1.664-0.858,94.912,0.006,207.831c0.62,80.912,47.841,150.724,116.145,183.94c3.951,1.921,8.525-1.066,8.36-5.457  c-0.498-13.268-0.069-27.452,2.586-38.854c2.613-11.227,12.866-54.643,19.607-83.164c3.281-13.885,3.677-28.303,1.035-42.324  c-0.867-4.601-1.495-10.006-1.495-16.013c0-30.479,17.666-53.235,39.663-53.235c18.701,0,27.735,14.041,27.735,30.877  c0,18.807-11.975,46.925-18.155,72.984c-5.164,21.818,10.942,39.61,32.46,39.61c38.96,0,68.907-41.08,68.907-100.378  c0-52.483-37.712-89.179-91.561-89.179c-62.369,0-98.978,46.781-98.978,95.127c0,18.839,7.258,39.042,16.313,50.024  c1.79,2.17,2.054,4.073,1.521,6.287c-1.664,6.924-5.362,21.813-6.088,24.859c-0.957,4.013-3.177,4.863-7.33,2.932  c-27.379-12.744-44.494-52.769-44.494-84.919c0-69.147,50.239-132.647,144.833-132.647c76.04,0,135.134,54.184,135.134,126.599  c0,75.545-47.633,136.343-113.747,136.343c-17.471,0-34.12-7.14-43.908-16.821c-3.01-2.977-8.099-1.621-9.173,2.474  c-3.447,13.133-9.019,34.376-10.814,41.284c-3.232,12.429-10.043,26.905-16.871,39.512c-1.814,3.35,0.021,7.488,3.714,8.424  c16.857,4.275,34.538,6.482,52.764,6.313C316.378,411.425,409.258,320.436,412.352,212.265z"/>
<g>
</g>
<g>
</g>
<g>
</g>
<g>
</g>
<g>
</g>
<g>
</g>
<g>
</g>
<g>
</g>
<g>
</g>
<g>
</g>
<g>
</g>
<g>
</g>
<g>
</g>
<g>
</g>
<g>
</g>
</svg>
