<?xml version="1.0" encoding="iso-8859-1"?>
<!-- Generator: Adobe Illustrator 19.0.0, SVG Export Plug-In . SVG Version: 6.00 Build 0)  -->
<svg xmlns="http://www.w3.org/2000/svg" xmlns:xlink="http://www.w3.org/1999/xlink" version="1.1" id="Layer_1" x="0px" y="0px" viewBox="0 0 381.287 381.287" style="enable-background:new 0 0 381.287 381.287;" xml:space="preserve">
<path style="fill:#2950A1;" d="M190.643,0C85.354,0,0,85.354,0,190.643c0,49.654,18.995,94.86,50.099,128.786V189.703  c0-77.584,63.12-140.704,140.704-140.704s140.701,63.12,140.701,140.704s-63.118,140.704-140.701,140.704  c-21.893,0-39.638-17.745-39.638-39.638s17.745-39.638,39.638-39.638c33.87,0,61.425-27.555,61.425-61.428  c0-33.87-27.555-61.428-61.425-61.428s-61.428,27.558-61.428,61.428v181.464c19.236,6.527,39.827,10.12,61.268,10.12  c105.29,0,190.643-85.354,190.643-190.644C381.286,85.354,295.932,0,190.643,0z"/>
<g>
</g>
<g>
</g>
<g>
</g>
<g>
</g>
<g>
</g>
<g>
</g>
<g>
</g>
<g>
</g>
<g>
</g>
<g>
</g>
<g>
</g>
<g>
</g>
<g>
</g>
<g>
</g>
<g>
</g>
</svg>
