<?xml version="1.0" encoding="UTF-8"?>
<!DOCTYPE svg PUBLIC "-//W3C//DTD SVG 1.1//EN">
<!-- Creator: CorelDRAW X7 -->
<svg xmlns="http://www.w3.org/2000/svg" xml:space="preserve" width="205.64mm" height="205.64mm" version="1.1"
     style="shape-rendering:geometricPrecision; text-rendering:geometricPrecision; image-rendering:optimizeQuality; fill-rule:evenodd; clip-rule:evenodd"
     viewBox="0 0 20564 20564"
>
 <defs>
  <style type="text/css">
   <![CDATA[
    .fil6 {fill:none}
    .fil3 {fill:#FEFEFE}
    .fil4 {fill:#332C2B}
    .fil5 {fill:#E9030F}
    .fil0 {fill:#F9AE08}
    .fil2 {fill:white}
    .fil1 {fill:black;fill-opacity:0.250980}
    .fil7 {fill:#FEFEFE;fill-opacity:0.309804}
   ]]>
  </style>
 </defs>
 <g id="Layer_x0020_1">
  <metadata id="CorelCorpID_0Corel-Layer"/>
  <g id="_2991478626464">
   <path class="fil0" d="M5163 1793l10238 0c1853,0 3370,1517 3370,3370l0 10238c0,1853 -1517,3370 -3370,3370l-10238 0c-1853,0 -3370,-1517 -3370,-3370l0 -10238c0,-1853 1517,-3370 3370,-3370z"/>
   <path class="fil1" d="M14739 9342c201,487 394,981 582,1474l201 535c196,531 403,1095 542,1644 115,456 209,987 181,1459 -19,319 -114,772 -497,828 -223,33 -409,-142 -547,-293 -143,-158 -275,-338 -397,-514l-93 -135c-22,89 -47,174 -71,254 -187,599 -490,1147 -907,1607 479,160 979,435 1020,924 23,159 -69,307 -199,396 -214,147 -572,184 -824,199 -627,37 -1280,35 -1907,14 -405,-14 -817,-37 -1219,-90 -133,14 -267,24 -401,30 -201,10 -402,11 -603,3 -669,52 -1354,82 -2024,87 -446,4 -910,-1 -1353,-53 -297,-35 -780,-102 -928,-402 -46,-95 -68,-198 -58,-303 42,-435 596,-691 1079,-840 -375,-447 -657,-968 -850,-1521 -33,-96 -66,-200 -97,-307 -55,73 -112,145 -168,215 -207,256 -583,709 -941,709 -330,0 -418,-348 -435,-611 -19,-307 19,-649 64,-952 143,-964 437,-1965 788,-2872 203,-523 435,-1037 698,-1533 -26,-276 -28,-573 -21,-843 19,-685 119,-1383 325,-2037 642,-2030 2139,-3105 4260,-3210 244,-25 534,-7 774,24 583,75 1149,267 1652,573 1882,1145 2361,3494 2374,5541z"/>
   <g>
    <path class="fil2" d="M9847 17479c-669,52 -1354,82 -2024,88 -446,3 -910,-2 -1353,-54 -297,-34 -780,-101 -928,-402 -47,-94 -68,-198 -58,-303 42,-435 596,-690 1079,-839 -375,-447 -657,-968 -850,-1521 -33,-97 -66,-201 -97,-308 -55,73 -112,145 -168,215 -207,257 -583,709 -942,709 -329,0 -417,-348 -434,-611 -19,-307 19,-648 64,-952 143,-964 437,-1964 788,-2871 203,-524 435,-1038 698,-1534 -26,-275 -28,-572 -21,-843 19,-685 119,-1382 325,-2036 642,-2030 2139,-3106 4260,-3211 244,-25 534,-6 774,25 583,75 1149,267 1651,573 1883,1144 2362,3493 2375,5540 201,488 394,981 582,1474 68,178 135,357 201,535 196,532 402,1096 542,1644 115,456 209,987 181,1459 -19,319 -114,772 -497,829 -223,33 -409,-142 -547,-294 -144,-158 -275,-338 -397,-513 -31,-45 -62,-90 -93,-135 -22,88 -47,174 -72,253 -186,600 -489,1147 -906,1607 479,161 979,436 1020,925 23,158 -69,307 -199,395 -214,147 -572,184 -824,199 -627,38 -1280,36 -1907,14 -405,-13 -817,-37 -1219,-89 -133,13 -267,23 -401,30 -201,9 -402,10 -603,2z"/>
    <path class="fil3" d="M9459 13386l-1929 -107 0 -2008c-209,-31 -408,-65 -595,-100 -96,676 -273,2472 361,3588 794,1397 1654,2126 3811,1814 2092,-303 3023,-2667 2481,-5432 -1518,293 -2919,359 -4129,311l0 1934z"/>
    <path class="fil4" d="M7296 14759c-634,-1116 -457,-2912 -361,-3588 -847,-158 -1449,-339 -1734,-434 -818,2113 -1006,4030 -695,4030 389,0 1262,-1365 1262,-1365 0,0 366,3984 4667,3778 4302,-206 4350,-3865 4350,-3865 0,0 896,1516 1166,1476 270,-40 357,-794 72,-1921 -136,-537 -446,-1395 -732,-2146 -581,173 -1150,310 -1703,417 542,2765 -389,5129 -2481,5432 -2157,312 -3017,-417 -3811,-1814zm4953 -8643c0,638 -359,1155 -802,1155 -442,0 -801,-517 -801,-1155 0,-638 359,-1155 801,-1155 443,0 802,517 802,1155zm-831 -188c-310,-14 -548,321 -558,339 -38,87 73,65 73,65 0,0 264,-210 461,-226 196,-16 313,268 456,141 143,-127 -123,-305 -432,-319zm-2050 668c175,0 317,-185 317,-414 0,-229 -142,-415 -317,-415 -175,0 -318,186 -318,415 0,229 143,414 318,414zm-250 -1635c464,0 841,519 841,1159 0,640 -377,1159 -841,1159 -465,0 -841,-519 -841,-1159 0,-640 376,-1159 841,-1159zm-1512 3151c810,-949 5549,-421 5373,32 -55,143 -913,865 -2683,881 -1769,16 -2690,-913 -2690,-913zm-1679 1044c0,0 4524,1286 8762,48 -12,-6385 -4480,-5902 -4480,-5902 -4952,239 -4282,5854 -4282,5854z"/>
    <path class="fil5" d="M7530 11271l0 2008 1929 107 0 -1934c1210,48 2611,-18 4129,-311 553,-107 1122,-244 1703,-417 -315,-825 -602,-1520 -602,-1520 -4238,1238 -8762,-48 -8762,-48 -282,522 -523,1057 -726,1581 285,95 887,276 1734,434 187,35 386,69 595,100z"/>
    <path class="fil6" d="M7606 8112c0,0 921,929 2690,913 1770,-16 2628,-738 2683,-881 176,-453 -4563,-981 -5373,-32z"/>
    <path class="fil3" d="M9368 5767c175,0 317,186 317,415 0,229 -142,414 -317,414 -175,0 -318,-185 -318,-414 0,-229 143,-415 318,-415zm1492 500c10,-18 248,-353 558,-339 309,14 575,192 432,319 -143,127 -260,-157 -456,-141 -197,16 -461,226 -461,226 0,0 -111,22 -73,-65zm-214 -151c0,638 359,1155 801,1155 443,0 802,-517 802,-1155 0,-638 -359,-1155 -802,-1155 -442,0 -801,517 -801,1155zm-2369 4c0,640 376,1159 841,1159 464,0 841,-519 841,-1159 0,-640 -377,-1159 -841,-1159 -465,0 -841,519 -841,1159z"/>
    <path class="fil0" d="M9842 17182c-1246,-57 -2114,-494 -2717,-1053 -860,195 -1494,490 -1317,851 246,500 4034,202 4034,202zm3556 -1030c-575,484 -1390,872 -2543,996 984,133 2485,115 3104,78 802,-48 746,-262 746,-262 -22,-384 -552,-643 -1307,-812zm-419 -8008c176,-453 -4563,-981 -5373,-32 0,0 921,929 2690,913 1770,-16 2628,-738 2683,-881z"/>
   </g>
   <path class="fil7" d="M15029 3182c1290,0 2344,1069 2344,2376l0 9835c0,1307 -1054,2376 -2344,2376l778 0c1289,0 2344,-1069 2344,-2376l0 -10623c0,-1307 -1055,-2376 -2344,-2376l-10481 0c-1290,0 -2344,1069 -2344,2376l0 788c0,-1307 1054,-2376 2344,-2376l9703 0z"/>
  </g>
  <rect class="fil6" width="20564" height="20564"/>
 </g>
</svg>
