<?xml version="1.0" encoding="iso-8859-1"?>
<!-- Generator: Adobe Illustrator 19.0.0, SVG Export Plug-In . SVG Version: 6.00 Build 0)  -->
<svg xmlns="http://www.w3.org/2000/svg" xmlns:xlink="http://www.w3.org/1999/xlink" version="1.1" id="Layer_1" x="0px" y="0px" viewBox="0 0 412.07 412.07" style="enable-background:new 0 0 412.07 412.07;" xml:space="preserve">
<g>
	<path style="fill:#FF4403;" d="M347.267,220.659v45.045c0,15.16-12.405,28.069-27.562,27.815   c-14.733-0.247-26.641-12.307-26.641-27.098v-43.42c0-5.414-5.394-9.171-10.472-7.294l-23.911,8.838   c-1.794,0.663-3.77,0.642-5.55-0.06l-14.241-5.619c-5.103-2.013-10.63,1.748-10.63,7.233v38.927   c0,50.435,40.05,92.52,90.479,93.288c51.328,0.782,93.331-40.743,93.331-91.894v-45.763c0-3.882-3.147-7.03-7.03-7.03h-50.744   C350.414,213.63,347.267,216.777,347.267,220.659z"/>
	<path style="fill:#FF4403;" d="M228.26,141.418v21.523c0,3.193,1.952,6.062,4.922,7.233l20.45,8.068   c1.78,0.702,3.755,0.724,5.55,0.06l28.801-10.646c3.053-1.128,5.08-4.039,5.08-7.294v-18.269c0-47.758-37.924-87.611-85.677-88.339   c-48.604-0.741-88.38,38.581-88.38,87.018v124.932c0,15.16-12.405,28.069-27.562,27.815c-14.733-0.247-26.641-12.307-26.641-27.098   v-45.763c0-3.882-3.147-7.03-7.03-7.03H7.03c-3.882,0-7.03,3.147-7.03,7.03v44.367c0,50.434,40.048,92.52,90.477,93.29   c51.328,0.784,93.333-40.742,93.333-91.894v-125.65c0-12.626,10.584-22.827,23.345-22.197   C219.094,119.165,228.26,129.465,228.26,141.418z"/>
</g>
<g>
</g>
<g>
</g>
<g>
</g>
<g>
</g>
<g>
</g>
<g>
</g>
<g>
</g>
<g>
</g>
<g>
</g>
<g>
</g>
<g>
</g>
<g>
</g>
<g>
</g>
<g>
</g>
<g>
</g>
</svg>
