<?xml version="1.0" encoding="iso-8859-1"?>
<!-- Generator: Adobe Illustrator 19.0.0, SVG Export Plug-In . SVG Version: 6.00 Build 0)  -->
<svg xmlns="http://www.w3.org/2000/svg" xmlns:xlink="http://www.w3.org/1999/xlink" version="1.1" id="Layer_1" x="0px" y="0px" viewBox="0 0 404 404" style="enable-background:new 0 0 404 404;" xml:space="preserve">
<path style="fill:#518FE1;" d="M354.752,0H49.248C22.049,0,0,22.049,0,49.248v305.504C0,381.951,22.049,404,49.248,404h305.504  C381.951,404,404,381.951,404,354.752V49.248C404,22.049,381.951,0,354.752,0z M175.74,314.888  c0,12.633-10.241,22.873-22.873,22.873H75.394c-12.633,0-22.873-10.241-22.873-22.873V78.827c0-12.633,10.241-22.873,22.873-22.873  h77.473c12.633,0,22.873,10.241,22.873,22.873V314.888z M351.48,213.336c0,12.633-10.241,22.873-22.873,22.873h-77.473  c-12.633,0-22.873-10.241-22.873-22.873V78.827c0-12.633,10.241-22.873,22.873-22.873h77.473c12.633,0,22.873,10.241,22.873,22.873  V213.336z"/>
<g>
</g>
<g>
</g>
<g>
</g>
<g>
</g>
<g>
</g>
<g>
</g>
<g>
</g>
<g>
</g>
<g>
</g>
<g>
</g>
<g>
</g>
<g>
</g>
<g>
</g>
<g>
</g>
<g>
</g>
</svg>
