<?xml version="1.0" encoding="iso-8859-1"?>
<!-- Generator: Adobe Illustrator 19.0.0, SVG Export Plug-In . SVG Version: 6.00 Build 0)  -->
<svg xmlns="http://www.w3.org/2000/svg" xmlns:xlink="http://www.w3.org/1999/xlink" version="1.1" id="Layer_1" x="0px" y="0px" viewBox="0 0 434.016 434.016" style="enable-background:new 0 0 434.016 434.016;" xml:space="preserve">
<path style="fill:#69B4E5;" d="M416.049,52.27c-10.508-11.324-25.72-17.356-45.207-17.928  c-55.02-1.774-93.932,27.496-115.651,86.986c-1.14,3.124-0.444,6.588,1.814,9.041c2.247,2.439,5.622,3.409,8.812,2.534  c6.246-1.718,12.44-2.588,18.412-2.588c8.018,0,18.689,1.474,24.001,8.497c4.077,5.39,4.632,13.472,1.649,24.02  c-2.518,8.899-15.476,32.721-31.515,57.929c-19.539,30.712-30.333,44.48-33.445,44.48c-10.31,0-47.565-165.194-48.589-168.817  c-10.686-37.86-16.05-56.864-50.798-56.864c-26.483,0-85.551,48.362-134.051,90.495c-2.983,2.591-5.495,4.774-7.44,6.436  c-4.688,4.008-5.395,10.97-1.607,15.849l9.038,11.644c3.807,4.906,10.751,5.93,15.812,2.331l0.497-0.354  c15.691-11.163,30.514-21.706,41.704-22.284c12.16-0.597,22.711,18.4,35.29,63.605c23.957,87.803,60.355,192.468,97.709,192.468  c39.036,0,85.605-33.091,145.802-111.429c54.482-70.902,83.655-127.135,85.529-168.048l0,0  C435.222,89.372,429.245,66.493,416.049,52.27z"/>
<g>
</g>
<g>
</g>
<g>
</g>
<g>
</g>
<g>
</g>
<g>
</g>
<g>
</g>
<g>
</g>
<g>
</g>
<g>
</g>
<g>
</g>
<g>
</g>
<g>
</g>
<g>
</g>
<g>
</g>
</svg>
