<?xml version="1.0" encoding="iso-8859-1"?>
<!-- Generator: Adobe Illustrator 19.0.0, SVG Export Plug-In . SVG Version: 6.00 Build 0)  -->
<svg xmlns="http://www.w3.org/2000/svg" xmlns:xlink="http://www.w3.org/1999/xlink" version="1.1" id="Layer_1" x="0px" y="0px" viewBox="0 0 385.681 385.681" style="enable-background:new 0 0 385.681 385.681;" xml:space="preserve">
<path style="fill:#04B086;" d="M374.858,189.487c-0.836-5.859-6.17-9.996-12.052-9.345c-4.455,0.493-8.986,0.841-13.344,0.841  c-28.698,0-69.664-2.172-94.991-19.074c-2.202-1.528-4.302-3.136-6.277-4.836c-19.003-16.347-23.131-36.483-23.246-50.497  c-0.153-18.543,4.237-32.215,13.048-40.636c7.831-7.485,17.401-9.048,20.815-9.048c0.174,0,0.331,0.004,0.472,0.012  c1.062,0.057,10.579,0.85,17.562,11.081c5.393,7.901,12.015,25.854,3.673,62.64c-0.893,3.938,1.284,7.905,5.07,9.31  c13.135,4.877,29.678,6.856,42.494,7.633c3.939,0.239,7.48-2.438,8.318-6.294c3.853-17.737,5.457-34.174,4.776-49.108  c-1.001-21.94-6.835-40.868-17.34-56.257c-14.431-21.14-37.426-34.53-61.514-35.818c-17.289-0.925-43.092,5.083-63.637,24.721  c-14.171,13.544-30.987,38.806-30.629,82.235c0.301,36.461,15.585,69.545,43.036,93.159c8.387,7.215,19.15,14.595,32.774,20.939  c-14.817,26.2-30.857,48.042-44.183,64.294c-12.475,15.213-23.976,27.297-32.568,35.754  c-43.221-34.313-68.785-98.555-83.006-149.199C70.203,122.468,64.507,76.844,62.57,57.736c-0.534-5.271-5.156-9.163-10.442-8.806  l-18.79,1.268l28.383-1.899l-46.77,3.128c-5.537,0.37-9.67,5.238-9.13,10.76c2.005,20.518,7.996,69.578,23.224,124.156  c11.727,42.032,26.563,78.711,44.096,109.017c23.038,39.822,50.984,69.014,83.064,86.764c4.311,2.385,9.05,3.557,13.768,3.557  c6.459,0,12.875-2.197,18.083-6.483c1.022-0.841,25.366-21.009,54.608-56.454c17.088-20.712,32.467-42.532,45.711-64.852  c4.148-6.99,8.089-14.036,11.817-21.126c19.977,2.518,43.174,2.804,70.026-0.244c6.123-0.695,10.449-6.34,9.578-12.44  L374.858,189.487z"/>
<g>
</g>
<g>
</g>
<g>
</g>
<g>
</g>
<g>
</g>
<g>
</g>
<g>
</g>
<g>
</g>
<g>
</g>
<g>
</g>
<g>
</g>
<g>
</g>
<g>
</g>
<g>
</g>
<g>
</g>
</svg>
