<?xml version="1.0" encoding="UTF-8"?>
<!DOCTYPE svg PUBLIC "-//W3C//DTD SVG 1.1//EN">
<!-- Creator: CorelDRAW X7 -->
<svg xmlns="http://www.w3.org/2000/svg" xml:space="preserve" width="127mm" height="127mm" version="1.1"
     style="shape-rendering:geometricPrecision; text-rendering:geometricPrecision; image-rendering:optimizeQuality; fill-rule:evenodd; clip-rule:evenodd"
     viewBox="0 0 12700 12700"
>
 <defs>
  <style type="text/css">
   <![CDATA[
    .fil7 {fill:none}
    .fil0 {fill:#0EA7E1}
    .fil3 {fill:#F44336}
    .fil5 {fill:#FF9800}
    .fil2 {fill:white}
    .fil4 {fill:black}
    .fil1 {fill:black;fill-opacity:0.250980}
    .fil6 {fill:#FEFEFE;fill-opacity:0.309804}
   ]]>
  </style>
 </defs>
 <g id="Layer_x0020_1">
  <metadata id="CorelCorpID_0Corel-Layer"/>
  <g id="_2991586214016">
   <g>
    <path class="fil0" d="M3502 1627l5696 0c1031,0 1875,844 1875,1875l0 5696c0,1031 -844,1875 -1875,1875l-5696 0c-1031,0 -1875,-844 -1875,-1875l0 -5696c0,-1031 844,-1875 1875,-1875z"/>
    <path class="fil1" d="M9213 3473c325,191 596,461 784,787 227,392 308,799 301,1249 -4,228 -49,514 -178,705 -100,147 -235,236 -414,253 -172,15 -341,-27 -455,-166 -97,-118 -119,-266 -112,-412 -45,70 -104,131 -180,176 -126,74 -270,85 -409,48 -70,-19 -134,-55 -184,-108l-7 -7c-9,35 -20,71 -32,109 47,18 94,37 141,59 92,44 183,97 270,150 1007,613 643,1786 -107,2430 -642,551 -1501,840 -2329,956 -915,127 -1935,32 -2774,-371 -883,-424 -1505,-1063 -1387,-2108 95,-841 672,-1513 1255,-2079 280,-272 576,-521 913,-721 344,-204 876,-429 1278,-436 621,-9 945,489 906,1041 187,-54 374,-104 567,-136 100,-17 205,-30 312,-34l-4 -12c-55,-199 10,-441 187,-559l38 -23c-190,-20 -367,-107 -443,-294 -68,-166 -50,-396 51,-545 157,-231 509,-243 763,-257 436,-23 872,83 1249,305z"/>
    <g>
     <path class="fil2" d="M8496 5888c-9,35 -20,71 -32,109 48,18 95,37 141,59 92,44 184,97 271,150 1006,613 643,1786 -108,2430 -642,551 -1500,840 -2329,956 -914,127 -1935,32 -2774,-371 -883,-423 -1504,-1063 -1387,-2108 95,-841 672,-1513 1256,-2079 280,-272 576,-521 912,-721 344,-204 877,-429 1278,-436 622,-9 946,490 906,1041 187,-54 375,-104 567,-136 100,-17 206,-30 312,-34 -1,-4 -2,-8 -3,-12 -55,-199 9,-441 186,-559 13,-8 26,-16 39,-23 -190,-20 -367,-107 -444,-294 -67,-166 -49,-396 51,-544 158,-232 510,-244 763,-257 437,-24 873,83 1250,304 324,191 595,461 784,787 226,392 308,799 300,1249 -3,228 -49,514 -178,705 -100,147 -234,236 -414,253 -172,16 -341,-27 -454,-166 -97,-118 -120,-265 -113,-412 -45,70 -104,131 -180,176 -125,74 -269,85 -408,48 -71,-19 -134,-55 -185,-108 -2,-2 -5,-5 -7,-7z"/>
     <path class="fil3" d="M5676 5992c521,-18 1089,67 1551,323 448,248 739,669 646,1200 -172,980 -1482,1382 -2333,1424 -527,27 -1083,-64 -1546,-328 -451,-257 -746,-656 -656,-1198 81,-492 436,-797 846,-1034 462,-267 963,-368 1492,-387zm53 -1839c-347,6 -843,220 -1142,398 -318,189 -596,423 -861,681 -532,516 -1087,1145 -1173,1912 -105,923 460,1458 1232,1829 789,379 1757,465 2616,345 774,-108 1587,-376 2188,-892 604,-519 977,-1476 143,-1985 -72,-44 -170,-99 -246,-136 -221,-105 -382,-89 -295,-361 41,-127 69,-208 61,-345 -46,-830 -1033,-565 -1566,-410 -80,23 -235,82 -315,73 -100,-11 -51,-154 -37,-217 96,-444 -96,-900 -605,-892z"/>
     <path class="fil4" d="M5077 7477c233,-27 405,108 360,356 -39,210 -178,324 -386,340 -470,33 -524,-633 26,-696zm615 -186c165,-30 187,209 -11,237 -63,9 -158,-42 -134,-117 34,-103 74,-108 145,-120zm989 314c35,-707 -587,-1083 -1235,-1037 -564,40 -1195,441 -1242,1050 -24,302 104,615 340,806 661,535 2092,109 2137,-819z"/>
     <path class="fil5" d="M8116 3334c-138,8 -467,15 -549,136 -49,73 -57,206 -24,286 35,87 132,115 218,124 217,21 395,-41 637,4 503,95 950,438 1131,923 65,174 104,399 83,583 -27,245 -204,730 206,692 96,-9 157,-55 211,-133 96,-141 128,-387 130,-554 7,-402 -61,-757 -264,-1107 -361,-626 -1058,-993 -1779,-954z"/>
     <path class="fil5" d="M8140 4357c-96,6 -211,-5 -295,50 -76,51 -96,174 -73,256 57,207 354,118 534,157 170,36 283,198 335,354 56,166 -67,513 118,562 390,104 450,-528 259,-891 -171,-326 -513,-510 -878,-488z"/>
     <path class="fil2" d="M5446 6568c648,-46 1270,330 1235,1037 -45,928 -1476,1354 -2137,819 -236,-191 -364,-504 -340,-806 47,-609 678,-1010 1242,-1050zm-9 1265c45,-248 -127,-383 -360,-356 -550,63 -496,729 -26,696 208,-15 347,-130 386,-340zm244 -305c198,-28 176,-267 11,-237 -71,12 -111,17 -145,120 -24,75 71,126 134,117zm-1497 -1149c-410,237 -765,542 -846,1034 -90,542 205,941 656,1198 463,264 1019,355 1546,328 851,-42 2161,-444 2333,-1424 93,-531 -198,-952 -646,-1200 -462,-256 -1030,-341 -1551,-323 -529,19 -1030,120 -1492,387z"/>
     <path class="fil6" d="M8991 2400c718,0 1304,595 1304,1322l0 5472c0,727 -586,1322 -1304,1322l433 0c717,0 1304,-595 1304,-1322l0 -5911c0,-727 -587,-1322 -1304,-1322l-5831 0c-718,0 -1305,595 -1305,1322l0 439c0,-727 587,-1322 1305,-1322l5398 0z"/>
    </g>
   </g>
   <rect class="fil7" width="12700" height="12700"/>
  </g>
 </g>
</svg>
